<svg width="20" height="22" viewBox="0 0 20 22" fill="none" xmlns="http://www.w3.org/2000/svg">
<path d="M4.87746 4.67287V1.49689C4.87746 1.21612 4.9854 0.946844 5.17753 0.748307C5.36966 0.549769 5.63025 0.438232 5.90197 0.438232H18.1961C18.4678 0.438232 18.7284 0.549769 18.9205 0.748307C19.1127 0.946844 19.2206 1.21612 19.2206 1.49689V16.3181C19.2206 16.5989 19.1127 16.8682 18.9205 17.0667C18.7284 17.2653 18.4678 17.3768 18.1961 17.3768H15.1226V20.5528C15.1226 21.1372 14.6615 21.6114 14.0909 21.6114H1.8111C1.676 21.6123 1.54206 21.5855 1.41699 21.5327C1.29193 21.4799 1.17819 21.4021 1.08232 21.3037C0.986456 21.2053 0.910344 21.0883 0.858362 20.9595C0.80638 20.8306 0.779551 20.6924 0.779419 20.5528L0.782492 5.73153C0.782492 5.14715 1.24352 4.67287 1.81417 4.67287H4.87746ZM6.92648 4.67287H15.1226V15.2595H17.1716V2.55555H6.92648V4.67287Z" fill="white" fill-opacity="0.35"/>
</svg>
