<svg width="134" height="46" viewBox="0 0 134 46" fill="none" xmlns="http://www.w3.org/2000/svg">
<g clip-path="url(#clip0_318_471)">
<g clip-path="url(#clip1_318_471)">
<path d="M23.9568 0C34.3482 0 39.5462 0 42.7708 3.22887C45.9999 6.45775 45.9999 11.6506 45.9999 22.041V23.959C45.9999 34.3493 45.9999 39.5422 42.7708 42.7711C39.5416 45.9999 34.3482 45.9999 23.9568 45.9999H22.0386C11.6472 45.9999 6.45379 45.9999 3.2246 42.7711C0 39.5422 0 34.3447 0 23.9544L0 22.0364C0 11.6506 0 6.45315 3.2292 3.22887C6.45379 0 11.6518 0 22.0432 0H23.9614H23.9568Z" fill="#9186dd"/>
<path d="M34.4999 33.3502C34.4999 28.7419 31.6146 23.9852 27.2876 22.4243H34.4999V11.5002C29.9019 11.5002 25.1557 14.392 23.6002 18.7286V11.5002H12.6969C12.6969 16.1085 15.5821 20.8653 19.9091 22.4261H12.6969L12.6499 33.3502C17.2479 33.3502 22.041 30.4585 23.5966 26.1218V33.3502H34.4981H34.4999Z" fill="#F3F5F7"/>
</g>
<path d="M59.8 33.3775V12.6223H68.1444C69.6317 12.6223 70.8341 12.9202 71.7515 13.516C72.669 14.1021 73.3402 14.842 73.7652 15.7356C74.1901 16.6292 74.4026 17.5325 74.4026 18.4453C74.4026 19.608 74.137 20.5737 73.6058 21.3424C73.0843 22.1111 72.3648 22.6252 71.4473 22.8846V22.164C72.7511 22.433 73.7266 23.0336 74.3736 23.9656C75.0304 24.8977 75.3587 25.9402 75.3587 27.0933C75.3587 28.3329 75.1269 29.4235 74.6634 30.3651C74.2094 31.3068 73.5141 32.0467 72.5773 32.5848C71.6405 33.1133 70.4622 33.3775 69.0425 33.3775H59.8ZM63.7984 29.6877H68.6369C69.1681 29.6877 69.6413 29.5772 70.0566 29.3562C70.4719 29.1256 70.7954 28.8085 71.0272 28.4049C71.2687 27.9917 71.3894 27.5065 71.3894 26.9492C71.3894 26.4591 71.288 26.0219 71.0852 25.6376C70.8823 25.2532 70.5733 24.9505 70.158 24.7295C69.7524 24.4989 69.2453 24.3836 68.6369 24.3836H63.7984V29.6877ZM63.7984 20.7226H68.0864C68.5307 20.7226 68.9266 20.6458 69.2743 20.492C69.622 20.3383 69.8972 20.1029 70.1001 19.7858C70.3029 19.4591 70.4043 19.0411 70.4043 18.5318C70.4043 17.8976 70.2063 17.3643 69.8103 16.9319C69.4144 16.4995 68.8397 16.2833 68.0864 16.2833H63.7984V20.7226Z" fill="#F3F5F7"/>
<path d="M87.2007 33.8099C85.1146 33.8099 83.3134 33.3583 81.7971 32.4551C80.2905 31.5518 79.1268 30.2883 78.3058 28.6644C77.4946 27.0405 77.089 25.1523 77.089 22.9999C77.089 20.8475 77.4946 18.9594 78.3058 17.3355C79.1268 15.7116 80.2905 14.448 81.7971 13.5448C83.3134 12.6416 85.1146 12.1899 87.2007 12.1899C89.2867 12.1899 91.0831 12.6416 92.5897 13.5448C94.106 14.448 95.2697 15.7116 96.081 17.3355C96.9019 18.9594 97.3123 20.8475 97.3123 22.9999C97.3123 25.1523 96.9019 27.0405 96.081 28.6644C95.2697 30.2883 94.106 31.5518 92.5897 32.4551C91.0831 33.3583 89.2867 33.8099 87.2007 33.8099ZM87.2007 30.1201C88.5238 30.1393 89.6248 29.8559 90.5036 29.2697C91.3825 28.6836 92.0392 27.8524 92.4738 26.7762C92.9181 25.7 93.1402 24.4413 93.1402 22.9999C93.1402 21.5586 92.9181 20.3094 92.4738 19.2525C92.0392 18.1955 91.3825 17.3739 90.5036 16.7878C89.6248 16.2016 88.5238 15.899 87.2007 15.8797C85.8775 15.8605 84.7766 16.144 83.8977 16.7301C83.0188 17.3163 82.3573 18.1474 81.913 19.2236C81.4784 20.2998 81.2611 21.5586 81.2611 22.9999C81.2611 24.4413 81.4784 25.6904 81.913 26.7474C82.3573 27.8044 83.0188 28.6259 83.8977 29.2121C84.7766 29.7982 85.8775 30.1009 87.2007 30.1201Z" fill="#F3F5F7"/>
<path d="M103.818 33.3775L97.4439 12.6223H101.5L106.715 29.6877L112.017 12.6223H116.074L109.7 33.3775H103.818Z" fill="#F3F5F7"/>
<path d="M114.77 33.3775L121.144 12.6223H127.026L133.4 33.3775H129.344L123.665 15.0726H124.418L118.826 33.3775H114.77ZM118.595 29.0535V25.3925H129.604V29.0535H118.595Z" fill="#F3F5F7"/>
</g>
<defs>
<clipPath id="clip0_318_471">
<rect width="133.4" height="45.9999" fill="white"/>
</clipPath>
<clipPath id="clip1_318_471">
<rect width="45.9999" height="45.9999" fill="white"/>
</clipPath>
</defs>
</svg>
