<?xml version="1.0" standalone="no"?>
<!DOCTYPE svg PUBLIC "-//W3C//DTD SVG 20010904//EN"
 "http://www.w3.org/TR/2001/REC-SVG-20010904/DTD/svg10.dtd">
<svg version="1.0" xmlns="http://www.w3.org/2000/svg"
 width="700.000000pt" height="700.000000pt" viewBox="0 0 700.000000 700.000000"
 preserveAspectRatio="xMidYMid meet">
<metadata>
Created by potrace 1.14, written by Peter Selinger 2001-2017
</metadata>
<g transform="translate(0.000000,700.000000) scale(0.100000,-0.100000)"
fill="#000000" stroke="none">
<path d="M2318 6995 c-2 -2 -84 -6 -183 -9 -99 -4 -200 -9 -225 -11 -24 -2
-89 -7 -143 -10 -54 -3 -106 -8 -115 -10 -9 -1 -44 -6 -77 -9 -505 -57 -853
-201 -1092 -450 -119 -125 -170 -198 -243 -351 -71 -147 -143 -396 -164 -565
-3 -25 -8 -54 -10 -65 -2 -11 -7 -51 -11 -90 -4 -38 -9 -79 -11 -89 -2 -11 -6
-58 -10 -105 -3 -47 -7 -106 -9 -131 -15 -193 -20 -594 -20 -1615 0 -1051 4
-1389 20 -1575 2 -30 7 -93 10 -140 3 -47 8 -98 10 -115 2 -16 9 -73 16 -125
6 -52 12 -102 14 -110 2 -8 10 -55 19 -105 30 -161 109 -406 152 -472 8 -12
14 -27 14 -34 0 -33 140 -222 234 -314 185 -183 392 -295 686 -370 70 -18 77
-20 160 -35 30 -6 64 -12 75 -14 11 -2 63 -9 115 -15 52 -7 109 -14 125 -16
17 -2 68 -7 115 -10 47 -3 108 -8 135 -10 363 -28 2837 -29 3185 0 25 2 83 6
130 10 428 31 749 108 988 236 291 155 508 417 618 744 35 105 78 277 89 355
3 25 8 52 10 60 5 19 12 71 30 227 33 285 40 627 40 1848 0 1036 -4 1339 -20
1600 -9 149 -28 324 -50 472 -22 142 -84 386 -122 473 -149 349 -357 571 -667
715 -133 62 -359 130 -491 149 -22 3 -53 8 -70 10 -92 15 -194 27 -335 41 -45
5 -178 13 -345 22 -100 5 -2572 13 -2577 8z"/>
</g>
</svg>
