<svg width="56" height="46" viewBox="0 0 56 46" fill="none" xmlns="http://www.w3.org/2000/svg">
<g clip-path="url(#clip0_4847_45657)">
<path d="M53.559 9.05625C53.1756 8.45394 47.4708 0 37.5803 0H16.4324C13.1438 0.000381169 9.98988 1.30843 7.66443 3.63647C5.33899 5.96451 4.0324 9.1219 4.03202 12.4142V35.6428C4.03202 36.3285 2.96658 35.9476 2.96658 35.9476C2.671 35.8532 2.36351 35.8014 2.05335 35.7937C1.78332 35.7928 1.51576 35.8454 1.26612 35.9484C1.01648 36.0515 0.789677 36.203 0.598799 36.3942C0.407921 36.5854 0.25674 36.8126 0.153971 37.0626C0.0512028 37.3126 -0.00112047 37.5805 1.81927e-05 37.8508C1.81927e-05 40.2946 3.80371 41.2778 5.32576 41.2778C5.75796 41.2927 6.1906 41.2672 6.61807 41.2016C7.78727 42.6899 9.27723 43.8944 10.9767 44.7253C12.6761 45.5562 14.5412 45.9919 16.4324 46H37.5042C40.7929 45.9996 43.9468 44.6916 46.2722 42.3635C48.5977 40.0355 49.9043 36.8781 49.9046 33.5858V20.8682C49.9046 20.8682 52.4893 17.5936 52.7951 17.2888C52.7951 17.2888 54.8484 14.4713 55.3797 13.4076C55.911 12.3438 55.4558 11.8838 53.5533 9.06631" fill="white"/>
<path d="M41.1532 32.7488C41.644 32.9105 42.1587 32.9878 42.6753 32.9774C44.9569 32.9774 45.9463 32.0631 45.9463 30.9979C45.9463 29.7789 44.272 29.7789 44.1198 28.6375C43.8915 27.2662 44.0437 21.174 46.4014 17.8232L47.9996 18.5089C48.3101 18.6527 48.6469 18.7305 48.9889 18.7375C49.1943 18.7301 49.3957 18.6787 49.5795 18.5867C49.7633 18.4946 49.9252 18.3642 50.0544 18.2042C51.6334 16.4878 53.0126 14.5973 54.1653 12.5692C54.3936 12.1882 51.0466 7.99936 49.2201 6.55324C47.8929 5.52071 46.2616 4.95712 44.5807 4.95042C43.0433 4.93829 41.5409 5.40956 40.2853 6.29778C39.0296 7.186 38.0842 8.44637 37.5822 9.90117C34.3828 12.1444 30.836 13.8443 27.0843 14.9324C21.9869 16.3038 16.7387 15.0086 13.2394 15.2372C12.2702 15.2345 11.3104 15.4274 10.4174 15.8045C9.52433 16.1815 8.71638 16.7349 8.04179 17.4316C7.3672 18.1282 6.83982 18.9539 6.49115 19.8592C6.14249 20.7646 5.9797 21.7309 6.01251 22.7007C6.08861 26.661 8.82687 30.2404 8.82687 33.9721C8.84119 34.5132 8.74773 35.0518 8.55193 35.5564C8.35613 36.0609 8.06192 36.5214 7.68646 36.9109C7.311 37.3005 6.86181 37.6112 6.36511 37.8251C5.8684 38.039 5.33412 38.1517 4.79344 38.1567C2.8162 38.1567 2.7401 37.3948 2.13128 37.3948C2.06063 37.3764 1.98675 37.3742 1.91513 37.3883C1.8435 37.4024 1.77596 37.4324 1.7175 37.4762C1.65903 37.5199 1.61115 37.5763 1.57739 37.6411C1.54363 37.7059 1.52486 37.7774 1.52246 37.8505C1.52246 38.8409 3.96349 39.7552 5.32615 39.7552C6.33527 39.7916 7.33737 39.5738 8.24054 39.1217C9.14371 38.6696 9.91903 37.9977 10.4954 37.1677C10.884 38.0327 11.5328 38.7546 12.3512 39.2324C13.1696 39.7102 14.1167 39.9201 15.0601 39.8328C17.9506 39.8328 19.1682 38.4614 19.1682 37.32C19.1682 36.4058 18.6355 36.0263 18.1789 35.4154C17.807 34.9091 17.6191 34.2909 17.6462 33.663C18.1517 33.717 18.6598 33.7424 19.1682 33.7392C21.2215 33.7392 21.9065 32.9012 21.9065 32.0631C21.9065 30.9965 20.6888 31.0727 20.6888 29.3218C20.6888 27.9504 21.4498 27.5695 22.0587 27.5695C22.7436 27.5695 25.4057 27.798 28.6767 28.179C29.7422 28.2552 32.4101 29.3218 32.4101 33.5107V35.0344C32.4101 37.5472 33.3994 40.747 37.9641 40.747C41.0068 40.747 42.7571 39.0709 42.7571 37.7772C42.7571 36.9391 42.0722 36.6344 41.6917 36.101C41.3588 35.6177 41.1382 35.0659 41.046 34.4861C40.9538 33.9063 40.9924 33.3132 41.159 32.7502" fill="#F26724"/>
<path d="M48.5347 14.5461C48.4293 14.5461 48.3263 14.5773 48.2387 14.6359C48.1511 14.6945 48.0828 14.7778 48.0425 14.8753C48.0022 14.9727 47.9916 15.08 48.0122 15.1834C48.0327 15.2869 48.0835 15.3819 48.158 15.4565C48.2325 15.5311 48.3274 15.5819 48.4307 15.6024C48.5341 15.623 48.6412 15.6125 48.7385 15.5721C48.8359 15.5317 48.9191 15.4634 48.9776 15.3757C49.0361 15.288 49.0674 15.1849 49.0674 15.0794C49.0692 15.0089 49.0566 14.9387 49.0305 14.8732C49.0043 14.8077 48.9651 14.7482 48.9153 14.6983C48.8655 14.6484 48.8061 14.6092 48.7406 14.583C48.6752 14.5569 48.6051 14.5443 48.5347 14.5461Z" fill="white"/>
<path d="M50.3609 12.9477C50.2706 12.9477 50.1823 12.9745 50.1072 13.0247C50.0321 13.075 49.9736 13.1463 49.9391 13.2299C49.9045 13.3134 49.8955 13.4053 49.9131 13.494C49.9307 13.5827 49.9742 13.6641 50.038 13.728C50.1019 13.792 50.1833 13.8355 50.2718 13.8531C50.3604 13.8708 50.4522 13.8617 50.5357 13.8271C50.6191 13.7925 50.6904 13.7339 50.7406 13.6588C50.7907 13.5836 50.8175 13.4952 50.8175 13.4048C50.8202 13.3441 50.8102 13.2834 50.7882 13.2268C50.7662 13.1701 50.7326 13.1187 50.6897 13.0757C50.6467 13.0327 50.5953 12.9991 50.5387 12.9771C50.4821 12.955 50.4216 12.945 50.3609 12.9477Z" fill="white"/>
<path d="M51.2741 11.1953C51.1988 11.1953 51.1252 11.2177 51.0627 11.2595C51.0001 11.3014 50.9513 11.3609 50.9225 11.4305C50.8937 11.5001 50.8862 11.5767 50.9009 11.6506C50.9155 11.7245 50.9518 11.7923 51.005 11.8456C51.0582 11.8989 51.126 11.9352 51.1998 11.9499C51.2737 11.9646 51.3502 11.957 51.4197 11.9282C51.4892 11.8994 51.5486 11.8505 51.5905 11.7879C51.6323 11.7252 51.6546 11.6516 51.6546 11.5763C51.6482 11.4773 51.606 11.3841 51.536 11.314C51.466 11.2439 51.3729 11.2017 51.2741 11.1953Z" fill="white"/>
<path d="M36.06 13.7092C36.1804 13.7092 36.2981 13.6735 36.3982 13.6065C36.4984 13.5395 36.5764 13.4444 36.6225 13.333C36.6686 13.2216 36.6806 13.0991 36.6571 12.9808C36.6336 12.8626 36.5756 12.754 36.4905 12.6688C36.4054 12.5835 36.2969 12.5255 36.1788 12.5019C36.0607 12.4784 35.9383 12.4905 35.827 12.5366C35.7158 12.5828 35.6207 12.6609 35.5538 12.7611C35.4869 12.8613 35.4512 12.9792 35.4512 13.0997C35.5273 13.4807 35.7556 13.7092 36.06 13.7092Z" fill="white"/>
<path d="M38.2653 27.5693C38.1889 27.5702 38.1136 27.5871 38.0443 27.6191C37.9749 27.6511 37.9131 27.6973 37.8628 27.7549C37.8125 27.8124 37.7749 27.8799 37.7525 27.9529C37.7301 28.026 37.7233 28.103 37.7326 28.1788C37.7264 28.3294 37.7782 28.4766 37.8774 28.5901C37.9765 28.7035 38.1154 28.7745 38.2653 28.7883C38.3455 28.7895 38.4252 28.7745 38.4996 28.7443C38.574 28.7141 38.6416 28.6692 38.6984 28.6124C38.7551 28.5556 38.7999 28.4879 38.8301 28.4134C38.8603 28.339 38.8753 28.2592 38.8741 28.1788C38.798 27.8741 38.5697 27.5693 38.2653 27.5693Z" fill="white"/>
<path d="M41.6889 28.1797C41.5685 28.1797 41.4508 28.2154 41.3507 28.2824C41.2505 28.3494 41.1725 28.4446 41.1264 28.5559C41.0803 28.6673 41.0683 28.7899 41.0918 28.9081C41.1153 29.0263 41.1733 29.1349 41.2584 29.2202C41.3435 29.3054 41.452 29.3635 41.5701 29.387C41.6882 29.4105 41.8106 29.3984 41.9219 29.3523C42.0331 29.3062 42.1282 29.228 42.1951 29.1278C42.262 29.0276 42.2977 28.9097 42.2977 28.7892C42.2216 28.4082 41.9933 28.1797 41.6889 28.1797Z" fill="white"/>
<path d="M38.7221 22.3907C38.5606 22.3907 38.4058 22.4549 38.2916 22.5692C38.1774 22.6835 38.1133 22.8385 38.1133 23.0002C38.1133 23.1618 38.1774 23.3169 38.2916 23.4312C38.4058 23.5455 38.5606 23.6097 38.7221 23.6097C38.8039 23.6172 38.8864 23.6066 38.9637 23.5786C39.041 23.5507 39.1111 23.506 39.1692 23.4478C39.2274 23.3897 39.272 23.3194 39.2999 23.242C39.3278 23.1647 39.3384 23.0821 39.3309 23.0002C39.3321 22.9198 39.3171 22.84 39.2869 22.7656C39.2568 22.6911 39.212 22.6234 39.1552 22.5666C39.0984 22.5098 39.0308 22.4649 38.9565 22.4347C38.8821 22.4045 38.8024 22.3895 38.7221 22.3907Z" fill="white"/>
<path d="M40.7007 18.5081C40.8621 18.5081 41.017 18.4438 41.1312 18.3295C41.2453 18.2152 41.3095 18.0602 41.3095 17.8986C41.3095 17.7369 41.2453 17.5819 41.1312 17.4676C41.017 17.3533 40.8621 17.2891 40.7007 17.2891C40.5536 17.3093 40.4188 17.3822 40.3212 17.4943C40.2237 17.6063 40.1699 17.7499 40.1699 17.8986C40.1699 18.0472 40.2237 18.1908 40.3212 18.3029C40.4188 18.4149 40.5536 18.4878 40.7007 18.5081Z" fill="white"/>
<path d="M31.7231 16.1458C31.8435 16.1458 31.9612 16.11 32.0613 16.043C32.1614 15.9761 32.2395 15.8809 32.2856 15.7695C32.3316 15.6581 32.3437 15.5356 32.3202 15.4174C32.2967 15.2991 32.2387 15.1905 32.1536 15.1053C32.0684 15.02 31.96 14.962 31.8419 14.9385C31.7238 14.915 31.6013 14.927 31.4901 14.9732C31.3788 15.0193 31.2838 15.0974 31.2169 15.1976C31.15 15.2979 31.1143 15.4157 31.1143 15.5363C31.1904 15.9172 31.4187 16.1458 31.7231 16.1458Z" fill="white"/>
<path d="M34.9946 26.4268C34.8742 26.4268 34.7564 26.4625 34.6563 26.5295C34.5562 26.5964 34.4782 26.6916 34.4321 26.803C34.386 26.9144 34.3739 27.0369 34.3974 27.1552C34.4209 27.2734 34.4789 27.382 34.5641 27.4672C34.6492 27.5525 34.7577 27.6105 34.8758 27.634C34.9939 27.6576 35.1163 27.6455 35.2276 27.5994C35.3388 27.5532 35.4339 27.4751 35.5008 27.3749C35.5677 27.2746 35.6034 27.1568 35.6034 27.0363C35.5273 26.6553 35.299 26.4268 34.9946 26.4268Z" fill="white"/>
<path d="M33.3959 18.9631C33.4723 18.9623 33.5476 18.9453 33.6169 18.9134C33.6863 18.8814 33.7481 18.8351 33.7984 18.7776C33.8487 18.7201 33.8863 18.6526 33.9087 18.5795C33.9311 18.5065 33.9379 18.4295 33.9287 18.3536C33.9348 18.2031 33.883 18.0558 33.7838 17.9424C33.6847 17.829 33.5458 17.758 33.3959 17.7441C33.2345 17.7441 33.0796 17.8084 32.9654 17.9227C32.8513 18.037 32.7871 18.192 32.7871 18.3536C32.7871 18.5153 32.8513 18.6703 32.9654 18.7846C33.0796 18.8989 33.2345 18.9631 33.3959 18.9631Z" fill="white"/>
<path d="M29.7446 22.2383C29.6241 22.2383 29.5064 22.274 29.4063 22.341C29.3062 22.408 29.2282 22.5032 29.1821 22.6145C29.136 22.7259 29.1239 22.8485 29.1474 22.9667C29.1709 23.0849 29.2289 23.1935 29.3141 23.2788C29.3992 23.364 29.5077 23.422 29.6258 23.4456C29.7439 23.4691 29.8663 23.457 29.9775 23.4109C30.0888 23.3648 30.1839 23.2866 30.2508 23.1864C30.3177 23.0862 30.3534 22.9683 30.3534 22.8478C30.3426 22.6897 30.275 22.5408 30.1631 22.4288C30.0512 22.3167 29.9025 22.249 29.7446 22.2383Z" fill="white"/>
<path d="M35.6791 21.6301C35.7995 21.6301 35.9173 21.5944 36.0174 21.5274C36.1175 21.4604 36.1955 21.3652 36.2416 21.2539C36.2877 21.1425 36.2997 21.02 36.2763 20.9017C36.2528 20.7835 36.1948 20.6749 36.1096 20.5897C36.0245 20.5044 35.916 20.4464 35.7979 20.4228C35.6798 20.3993 35.5574 20.4114 35.4462 20.4575C35.3349 20.5037 35.2398 20.5818 35.1729 20.682C35.106 20.7822 35.0703 20.9001 35.0703 21.0206C35.1464 21.4016 35.3747 21.6301 35.6791 21.6301Z" fill="white"/>
<path d="M26.6254 16.5274C26.505 16.5274 26.3873 16.5632 26.2872 16.6301C26.1871 16.6971 26.109 16.7923 26.0629 16.9037C26.0169 17.015 26.0048 17.1376 26.0283 17.2558C26.0518 17.374 26.1098 17.4826 26.1949 17.5679C26.2801 17.6531 26.3886 17.7112 26.5067 17.7347C26.6247 17.7582 26.7472 17.7461 26.8584 17.7C26.9697 17.6539 27.0647 17.5758 27.1316 17.4755C27.1985 17.3753 27.2342 17.2575 27.2342 17.1369C27.2354 17.0565 27.2205 16.9768 27.1903 16.9023C27.1601 16.8278 27.1153 16.7602 27.0585 16.7033C27.0017 16.6465 26.9342 16.6017 26.8598 16.5714C26.7854 16.5412 26.7057 16.5262 26.6254 16.5274Z" fill="white"/>
<path d="M27.9194 19.4971C27.799 19.4971 27.6812 19.5328 27.5811 19.5998C27.481 19.6668 27.403 19.762 27.3569 19.8733C27.3108 19.9847 27.2988 20.1072 27.3222 20.2255C27.3457 20.3437 27.4037 20.4523 27.4889 20.5376C27.574 20.6228 27.6825 20.6808 27.8006 20.7044C27.9187 20.7279 28.0411 20.7158 28.1524 20.6697C28.2636 20.6235 28.3587 20.5454 28.4256 20.4452C28.4925 20.345 28.5282 20.2271 28.5282 20.1066C28.4521 19.7256 28.2238 19.4971 27.9194 19.4971Z" fill="white"/>
<path d="M32.1039 24.4473C31.9835 24.4473 31.8658 24.483 31.7657 24.55C31.6656 24.617 31.5875 24.7122 31.5415 24.8235C31.4954 24.9349 31.4833 25.0574 31.5068 25.1757C31.5303 25.2939 31.5883 25.4025 31.6734 25.4878C31.7586 25.573 31.8671 25.631 31.9852 25.6546C32.1033 25.6781 32.2257 25.666 32.3369 25.6199C32.4482 25.5737 32.5433 25.4956 32.6102 25.3954C32.6771 25.2952 32.7128 25.1773 32.7128 25.0568C32.6367 24.752 32.4084 24.4473 32.1039 24.4473Z" fill="white"/>
<path d="M37.9604 16.3743C38.0808 16.3743 38.1985 16.3385 38.2986 16.2716C38.3988 16.2046 38.4768 16.1094 38.5229 15.998C38.5689 15.8866 38.581 15.7641 38.5575 15.6459C38.534 15.5276 38.476 15.419 38.3909 15.3338C38.3057 15.2486 38.1973 15.1905 38.0792 15.167C37.9611 15.1435 37.8386 15.1555 37.7274 15.2017C37.6162 15.2478 37.5211 15.3259 37.4542 15.4262C37.3873 15.5264 37.3516 15.6442 37.3516 15.7648C37.4277 16.1457 37.656 16.3743 37.9604 16.3743Z" fill="white"/>
<path d="M42.145 23.4571C42.0245 23.4571 41.9068 23.4928 41.8067 23.5598C41.7066 23.6268 41.6286 23.722 41.5825 23.8334C41.5364 23.9447 41.5243 24.0673 41.5478 24.1855C41.5713 24.3037 41.6293 24.4123 41.7145 24.4976C41.7996 24.5828 41.9081 24.6409 42.0262 24.6644C42.1443 24.6879 42.2667 24.6758 42.3779 24.6297C42.4892 24.5836 42.5843 24.5054 42.6512 24.4052C42.7181 24.305 42.7538 24.1871 42.7538 24.0666C42.7549 23.9862 42.74 23.9065 42.7098 23.832C42.6796 23.7575 42.6348 23.6899 42.578 23.633C42.5213 23.5762 42.4537 23.5313 42.3793 23.5011C42.3049 23.4709 42.2252 23.4559 42.145 23.4571Z" fill="white"/>
<path d="M43.5912 18.8116C43.4298 18.8116 43.2749 18.8758 43.1607 18.9901C43.0466 19.1044 42.9824 19.2594 42.9824 19.4211C42.9824 19.5827 43.0466 19.7378 43.1607 19.8521C43.2749 19.9664 43.4298 20.0306 43.5912 20.0306C43.6731 20.0381 43.7555 20.0275 43.8328 19.9995C43.9101 19.9716 43.9803 19.9269 44.0384 19.8687C44.0965 19.8106 44.1411 19.7403 44.169 19.6629C44.197 19.5856 44.2076 19.503 44.2001 19.4211C44.2012 19.3407 44.1863 19.2609 44.1561 19.1865C44.1259 19.112 44.0811 19.0443 44.0243 18.9875C43.9676 18.9307 43.9 18.8858 43.8256 18.8556C43.7512 18.8254 43.6715 18.8104 43.5912 18.8116Z" fill="white"/>
<path d="M43.2104 14.0893C43.09 14.0893 42.9723 14.125 42.8721 14.192C42.772 14.259 42.694 14.3541 42.6479 14.4655C42.6018 14.5769 42.5898 14.6994 42.6133 14.8177C42.6368 14.9359 42.6947 15.0445 42.7799 15.1297C42.865 15.215 42.9735 15.273 43.0916 15.2965C43.2097 15.3201 43.3321 15.308 43.4434 15.2619C43.5546 15.2157 43.6497 15.1376 43.7166 15.0374C43.7835 14.9371 43.8192 14.8193 43.8192 14.6988C43.8267 14.6168 43.8161 14.5343 43.7882 14.4569C43.7602 14.3795 43.7156 14.3093 43.6575 14.2511C43.5994 14.1929 43.5292 14.1483 43.452 14.1203C43.3747 14.0923 43.2922 14.0817 43.2104 14.0893Z" fill="white"/>
<path d="M45.9487 14.9268C45.8282 14.9268 45.7105 14.9625 45.6104 15.0295C45.5103 15.0964 45.4323 15.1916 45.3862 15.303C45.3401 15.4144 45.3281 15.5369 45.3515 15.6552C45.375 15.7734 45.433 15.882 45.5182 15.9672C45.6033 16.0525 45.7118 16.1105 45.8299 16.134C45.948 16.1576 46.0704 16.1455 46.1816 16.0994C46.2929 16.0532 46.388 15.9751 46.4549 15.8749C46.5218 15.7746 46.5575 15.6568 46.5575 15.5363C46.5467 15.3782 46.4791 15.2293 46.3672 15.1172C46.2553 15.0052 46.1066 14.9375 45.9487 14.9268Z" fill="white"/>
<path d="M41.2319 12.3379C41.1115 12.3379 40.9937 12.3736 40.8936 12.4406C40.7935 12.5076 40.7155 12.6028 40.6694 12.7141C40.6233 12.8255 40.6113 12.9481 40.6347 13.0663C40.6582 13.1845 40.7162 13.2931 40.8014 13.3784C40.8865 13.4636 40.995 13.5217 41.1131 13.5452C41.2312 13.5687 41.3536 13.5566 41.4649 13.5105C41.5761 13.4644 41.6712 13.3862 41.7381 13.286C41.805 13.1858 41.8407 13.0679 41.8407 12.9474C41.7646 12.5665 41.5363 12.3379 41.2319 12.3379Z" fill="white"/>
<path d="M40.0912 10.1289C39.9708 10.1289 39.8531 10.1647 39.753 10.2316C39.6529 10.2986 39.5748 10.3938 39.5288 10.5052C39.4827 10.6165 39.4706 10.7391 39.4941 10.8573C39.5176 10.9755 39.5756 11.0841 39.6607 11.1694C39.7459 11.2546 39.8544 11.3127 39.9725 11.3362C40.0906 11.3597 40.213 11.3476 40.3242 11.3015C40.4355 11.2554 40.5306 11.1773 40.5975 11.077C40.6644 10.9768 40.7001 10.859 40.7001 10.7384C40.624 10.4337 40.3957 10.1289 40.0912 10.1289Z" fill="white"/>
<path d="M42.4496 10.1289C42.3292 10.1289 42.2115 10.1647 42.1114 10.2316C42.0113 10.2986 41.9332 10.3938 41.8872 10.5052C41.8411 10.6165 41.829 10.7391 41.8525 10.8573C41.876 10.9755 41.934 11.0841 42.0191 11.1694C42.1043 11.2546 42.2128 11.3127 42.3309 11.3362C42.449 11.3597 42.5714 11.3476 42.6826 11.3015C42.7939 11.2554 42.889 11.1773 42.9559 11.077C43.0228 10.9768 43.0585 10.859 43.0585 10.7384C43.0477 10.5803 42.9801 10.4314 42.8682 10.3194C42.7563 10.2073 42.6076 10.1397 42.4496 10.1289Z" fill="white"/>
<path d="M39.7109 8.60598C39.719 8.4874 39.7697 8.37576 39.8536 8.29171C39.9376 8.20767 40.0491 8.15692 40.1676 8.14885C40.2282 8.1462 40.2888 8.15622 40.3454 8.17825C40.402 8.20029 40.4534 8.23386 40.4963 8.27685C40.5392 8.31984 40.5728 8.3713 40.5948 8.42796C40.6168 8.48462 40.6268 8.54524 40.6242 8.60598C40.6242 8.72722 40.5761 8.84349 40.4904 8.92922C40.4048 9.01494 40.2887 9.0631 40.1676 9.0631C40.0465 9.0631 39.9303 9.01494 39.8447 8.92922C39.759 8.84349 39.7109 8.72722 39.7109 8.60598Z" fill="white"/>
<path d="M41.1553 6.85359C41.1553 6.77825 41.1776 6.7046 41.2194 6.64196C41.2612 6.57931 41.3206 6.53049 41.3902 6.50165C41.4597 6.47282 41.5362 6.46528 41.61 6.47998C41.6838 6.49467 41.7516 6.53096 41.8049 6.58423C41.8581 6.63751 41.8943 6.70538 41.909 6.77928C41.9237 6.85317 41.9161 6.92977 41.8873 6.99937C41.8585 7.06898 41.8098 7.12847 41.7472 7.17033C41.6846 7.21219 41.611 7.23453 41.5358 7.23453C41.437 7.22811 41.3439 7.18591 41.2739 7.11582C41.2038 7.04572 41.1617 6.95252 41.1553 6.85359Z" fill="white"/>
<path d="M42.9824 6.01764C42.9824 5.95737 43.0003 5.89845 43.0337 5.84833C43.0672 5.79821 43.1147 5.75915 43.1703 5.73609C43.226 5.71302 43.2872 5.70699 43.3462 5.71875C43.4053 5.73051 43.4595 5.75953 43.5021 5.80215C43.5447 5.84477 43.5736 5.89907 43.5854 5.95819C43.5971 6.0173 43.5911 6.07858 43.5681 6.13426C43.545 6.18995 43.506 6.23754 43.456 6.27103C43.4059 6.30452 43.347 6.32239 43.2868 6.32239C43.2079 6.31701 43.1335 6.28318 43.0776 6.22715C43.0216 6.17112 42.9878 6.09669 42.9824 6.01764Z" fill="white"/>
<path d="M50.8936 9.97662C50.8936 9.91635 50.9114 9.85743 50.9449 9.80731C50.9783 9.7572 51.0258 9.71814 51.0815 9.69507C51.1371 9.67201 51.1983 9.66597 51.2573 9.67773C51.3164 9.68949 51.3706 9.71851 51.4132 9.76113C51.4558 9.80375 51.4848 9.85805 51.4965 9.91717C51.5083 9.97629 51.5022 10.0376 51.4792 10.0932C51.4562 10.1489 51.4171 10.1965 51.3671 10.23C51.317 10.2635 51.2582 10.2814 51.198 10.2814C51.119 10.276 51.0447 10.2422 50.9887 10.1861C50.9327 10.1301 50.8989 10.0557 50.8936 9.97662Z" fill="white"/>
<path d="M50.4375 15.6885C50.4375 15.6283 50.4554 15.5693 50.4888 15.5192C50.5223 15.4691 50.5698 15.4301 50.6254 15.407C50.681 15.3839 50.7422 15.3779 50.8013 15.3896C50.8603 15.4014 50.9146 15.4304 50.9572 15.473C50.9997 15.5157 51.0287 15.57 51.0405 15.6291C51.0522 15.6882 51.0462 15.7495 51.0231 15.8052C51.0001 15.8608 50.9611 15.9084 50.911 15.9419C50.861 15.9754 50.8021 15.9933 50.7419 15.9933C50.6658 15.9933 50.5136 15.8409 50.4375 15.6885Z" fill="white"/>
<path d="M51.2744 14.6221C51.2744 14.5619 51.2923 14.5029 51.3257 14.4528C51.3592 14.4027 51.4067 14.3636 51.4623 14.3406C51.5179 14.3175 51.5792 14.3115 51.6382 14.3232C51.6973 14.335 51.7515 14.364 51.7941 14.4066C51.8366 14.4493 51.8656 14.5036 51.8774 14.5627C51.8891 14.6218 51.8831 14.6831 51.8601 14.7388C51.837 14.7944 51.798 14.842 51.7479 14.8755C51.6979 14.909 51.639 14.9269 51.5788 14.9269C51.4999 14.9215 51.4255 14.8877 51.3695 14.8316C51.3136 14.7756 51.2798 14.7012 51.2744 14.6221Z" fill="white"/>
<path d="M49.6006 16.8321C49.6006 16.7718 49.6184 16.7129 49.6519 16.6628C49.6853 16.6127 49.7329 16.5736 49.7885 16.5505C49.8441 16.5275 49.9053 16.5214 49.9644 16.5332C50.0234 16.545 50.0777 16.574 50.1202 16.6166C50.1628 16.6592 50.1918 16.7135 50.2036 16.7726C50.2153 16.8318 50.2093 16.893 50.1862 16.9487C50.1632 17.0044 50.1242 17.052 50.0741 17.0855C50.0241 17.119 49.9652 17.1368 49.905 17.1368C49.826 17.1315 49.7517 17.0976 49.6957 17.0416C49.6398 16.9856 49.606 16.9111 49.6006 16.8321Z" fill="white"/>
<path d="M48.6113 17.8204C48.6113 17.7601 48.6292 17.7012 48.6626 17.6511C48.6961 17.6009 48.7436 17.5619 48.7992 17.5388C48.8549 17.5158 48.9161 17.5097 48.9751 17.5215C49.0342 17.5332 49.0884 17.5623 49.131 17.6049C49.1736 17.6475 49.2025 17.7018 49.2143 17.7609C49.226 17.82 49.22 17.8813 49.197 17.937C49.1739 17.9927 49.1349 18.0403 49.0849 18.0738C49.0348 18.1073 48.9759 18.1251 48.9157 18.1251C48.7635 18.1251 48.6874 17.9727 48.6113 17.8204Z" fill="white"/>
<path d="M52.0342 13.4805C52.0342 13.4203 52.052 13.3613 52.0855 13.3112C52.1189 13.2611 52.1665 13.222 52.2221 13.199C52.2777 13.1759 52.3389 13.1699 52.398 13.1816C52.457 13.1934 52.5113 13.2224 52.5538 13.265C52.5964 13.3077 52.6254 13.362 52.6371 13.4211C52.6489 13.4802 52.6429 13.5415 52.6198 13.5972C52.5968 13.6528 52.5578 13.7004 52.5077 13.7339C52.4577 13.7674 52.3988 13.7853 52.3386 13.7853C52.2596 13.7799 52.1853 13.7461 52.1293 13.69C52.0733 13.634 52.0396 13.5596 52.0342 13.4805Z" fill="white"/>
<path d="M52.5664 12.4903C52.5664 12.43 52.5843 12.3711 52.6177 12.321C52.6512 12.2709 52.6987 12.2318 52.7543 12.2087C52.81 12.1857 52.8712 12.1796 52.9302 12.1914C52.9893 12.2032 53.0435 12.2322 53.0861 12.2748C53.1286 12.3174 53.1576 12.3717 53.1694 12.4308C53.1811 12.49 53.1751 12.5512 53.1521 12.6069C53.129 12.6626 53.09 12.7102 53.0399 12.7437C52.9899 12.7772 52.931 12.795 52.8708 12.795C52.7186 12.795 52.6425 12.7189 52.5664 12.4903Z" fill="white"/>
<path d="M16.8114 36.7839C16.2032 35.6771 15.8286 34.4571 15.7108 33.1995C15.593 31.9419 15.7345 30.6734 16.1265 29.4728C17.7246 25.3601 22.364 25.8934 22.364 25.8934C21.5975 25.5512 20.7612 25.3946 19.923 25.4363C18.3232 25.575 16.843 26.3414 15.8053 27.5682C14.7675 28.7951 14.2564 30.3829 14.3833 31.9855C14.4542 32.9069 14.7064 33.8052 15.1253 34.6287C15.5442 35.4522 16.1216 36.1846 16.8243 36.7839" fill="white"/>
<path d="M9.12964 25.2081C8.66775 24.75 8.30192 24.2041 8.05362 23.6025C7.80532 23.001 7.67955 22.3558 7.68369 21.7049C7.70656 20.399 8.23492 19.153 9.15742 18.2295C10.0799 17.306 11.3245 16.777 12.6289 16.7541C15.4433 16.6018 20.6168 17.4398 23.9639 16.9827C25.1054 22.0858 28.9091 25.6652 31.7177 27.9494C28.2946 26.4256 24.8714 22.3891 20.9155 20.1869C16.8074 17.9027 12.6232 17.5218 10.4176 19.5774C9.71867 20.3155 9.23012 21.2277 9.00284 22.219C8.77555 23.2103 8.81785 24.2445 9.12533 25.2138" fill="white"/>
<path d="M20.8502 30.3872C21.0785 31.8347 18.4092 32.3666 18.4092 32.3666C20.8502 32.8237 21.604 31.5286 21.604 31.5286C21.3964 31.1189 21.1409 30.7352 20.843 30.3857" fill="white"/>
<path d="M40.0903 31.1487C40.0903 31.1487 38.4922 33.3567 39.6337 37.4737C38.7973 38.1307 37.8415 38.6189 36.8193 38.9112C36.8193 38.9112 40.4708 39.3684 41.6124 37.4637C39.3307 35.7114 40.0142 31.4477 40.0903 31.1387" fill="white"/>
<path d="M47.3182 7.84406C46.7029 7.67625 46.0463 7.75813 45.4909 8.07193C44.9355 8.38572 44.5262 8.90612 44.3516 9.52018C44.3213 9.8361 44.3549 10.1549 44.4502 10.4576C44.5455 10.7602 44.7007 11.0406 44.9064 11.282C45.1122 11.5235 45.3644 11.721 45.648 11.8628C45.9316 12.0046 46.2408 12.0879 46.5572 12.1077C47.1725 12.2755 47.8291 12.1936 48.3844 11.8798C48.9398 11.566 49.3492 11.0456 49.5237 10.4316C49.554 10.1156 49.5205 9.79686 49.4252 9.49418C49.3299 9.1915 49.1747 8.91111 48.9689 8.6697C48.7631 8.42828 48.511 8.23078 48.2274 8.08894C47.9438 7.94709 47.6346 7.86382 47.3182 7.84406ZM49.1447 10.3568C49.0166 10.7966 48.723 11.1694 48.3258 11.3968C47.9286 11.6242 47.4587 11.6883 47.0152 11.5758C46.795 11.5567 46.5808 11.4941 46.3848 11.3917C46.1889 11.2892 46.0152 11.149 45.8737 10.979C45.7322 10.809 45.6257 10.6126 45.5604 10.4012C45.4951 10.1898 45.4722 9.96759 45.4932 9.74731C45.6212 9.30755 45.9148 8.93472 46.312 8.70734C46.7092 8.47996 47.1791 8.41578 47.6226 8.52831C47.8428 8.54743 48.057 8.61002 48.253 8.71245C48.4489 8.81489 48.6226 8.95514 48.7641 9.12513C48.9056 9.29512 49.0121 9.49148 49.0774 9.70288C49.1427 9.91427 49.1656 10.1365 49.1447 10.3568Z" fill="white"/>
<path d="M47.2422 9.97785C47.3114 9.74075 47.4674 9.53849 47.679 9.4114C47.8906 9.28431 48.1422 9.24174 48.3838 9.29216C48.6257 9.31303 48.8496 9.42892 49.0064 9.6145C49.1633 9.80008 49.2404 10.0403 49.2209 10.2826C49.1517 10.5197 48.9957 10.722 48.7841 10.849C48.5726 10.9761 48.3209 11.0187 48.0793 10.9683C47.8374 10.9474 47.6136 10.8315 47.4567 10.646C47.2998 10.4604 47.2227 10.2202 47.2422 9.97785Z" fill="white"/>
<path d="M44.2746 29.1684C45.1118 30.7684 42.3721 31.3764 42.3721 31.3764C44.3493 31.6812 45.4147 30.5384 45.4147 30.0051C44.9959 29.7822 44.6114 29.4999 44.2732 29.167" fill="white"/>
<path d="M27.159 23.9141C27.159 23.9141 27.5395 24.3712 28.1484 24.9807C28.9164 25.7185 29.7318 26.4051 30.5894 27.0363C31.4279 27.6693 32.3185 28.23 33.2515 28.7125C33.5396 28.8956 33.8456 29.0488 34.1648 29.1696C33.82 29.0521 33.4884 28.8989 33.1754 28.7125C32.2007 28.2464 31.2602 27.7118 30.3611 27.1125C29.4712 26.5233 28.6317 25.8613 27.8511 25.1331C27.4724 24.802 27.1164 24.4456 26.7857 24.0665C26.7488 24.0243 26.7285 23.9701 26.7285 23.9141C26.7285 23.858 26.7488 23.8039 26.7857 23.7617C26.9269 23.7639 27.0624 23.8182 27.1662 23.9141" fill="white"/>
<path d="M50.1325 9.13977C49.787 8.54116 49.2965 8.03936 48.7061 7.68072C48.1157 7.32207 47.4446 7.11815 46.7547 7.08778C46.0648 7.0574 45.3784 7.20157 44.7589 7.50695C44.1393 7.81233 43.6067 8.26908 43.2101 8.83502C43.1557 8.90203 43.0886 8.95752 43.0126 8.99823C42.9366 9.03893 42.8532 9.06403 42.7674 9.07205C42.6815 9.08007 42.595 9.07086 42.5127 9.04495C42.4305 9.01904 42.3543 8.97695 42.2885 8.92116C42.2227 8.86536 42.1688 8.79699 42.1297 8.72003C42.0907 8.64308 42.0674 8.5591 42.0612 8.47302C42.0551 8.38694 42.0661 8.30049 42.0937 8.21874C42.1214 8.13699 42.165 8.06159 42.2222 7.99695C42.6666 7.48697 43.2167 7.08004 43.8341 6.80449C44.4516 6.52893 45.1216 6.39135 45.7975 6.40133C46.7107 6.37496 47.6109 6.62167 48.3833 7.10995C49.1557 7.59824 49.7652 8.30593 50.1339 9.14264" fill="white"/>
<path d="M45.6445 17.5995C43.787 17.4039 42.0213 16.6918 40.547 15.5438C39.2242 14.6093 38.1316 13.3851 37.3522 11.9645C37.2761 11.7359 37.2761 11.4312 37.5044 11.355C37.5528 11.32 37.6083 11.296 37.667 11.2847C37.7257 11.2734 37.7861 11.2751 37.8441 11.2896C37.9021 11.3041 37.9562 11.3311 38.0027 11.3687C38.0491 11.4063 38.0869 11.4536 38.1132 11.5073C38.8371 13.0049 39.8749 14.3287 41.1559 15.3886C42.4666 16.4546 44.001 17.2104 45.6445 17.5995Z" fill="white"/>
<path d="M43.6661 21.5523C40.6043 21.2735 37.7565 19.8614 35.6796 17.592C34.6955 16.5376 33.8518 15.3601 33.1697 14.0888C33.1091 13.9878 33.0912 13.8668 33.1197 13.7525C33.1482 13.6382 33.221 13.5399 33.3219 13.4793C33.4228 13.4187 33.5436 13.4007 33.6578 13.4293C33.772 13.4579 33.8702 13.5307 33.9307 13.6317C34.6488 15.2694 35.6534 16.7653 36.8973 18.0491C38.6905 19.9536 41.0771 21.1892 43.6661 21.5523Z" fill="white"/>
<path d="M28.8315 15.6127C28.8865 15.5973 28.944 15.5929 29.0006 15.5999C29.0573 15.6069 29.112 15.6251 29.1616 15.6535C29.2111 15.6819 29.2546 15.7198 29.2894 15.7651C29.3242 15.8104 29.3496 15.8622 29.3642 15.9175C30.1638 18.2678 31.4899 20.4038 33.2412 22.162C35.7691 24.721 39.1608 26.2421 42.7511 26.427C38.8993 26.4203 35.207 24.8868 32.4816 22.162C30.7827 20.48 29.4611 18.4552 28.6046 16.2222C28.5701 16.1691 28.5484 16.1087 28.5415 16.0457C28.5346 15.9827 28.5425 15.919 28.5648 15.8596C28.587 15.8003 28.6228 15.747 28.6694 15.7041C28.716 15.6612 28.7706 15.6299 28.8315 15.6127Z" fill="white"/>
<path d="M44.3506 12.1859C45.0922 12.6857 45.9666 12.9511 46.8606 12.9478C47.6197 13.0061 48.3735 12.7818 48.9775 12.3178C49.5814 11.8537 49.9929 11.1828 50.133 10.4336C50.0356 11.3142 49.6168 12.1277 48.9569 12.718C48.297 13.3084 47.4426 13.6339 46.5576 13.632C45.6323 13.6651 44.7144 13.455 43.8955 13.0225C43.7879 12.9682 43.7047 12.8754 43.6624 12.7624C43.6201 12.6495 43.6218 12.5248 43.6671 12.413C43.8955 12.1845 44.1999 12.0321 44.3521 12.1845" fill="white"/>
</g>
<defs>
<clipPath id="clip0_4847_45657">
<rect width="56" height="46" fill="white"/>
</clipPath>
</defs>
</svg>
