<svg  viewBox="0 0 56 35" fill="none" xmlns="http://www.w3.org/2000/svg">
<g clip-path="url(#clip0_4847_45740)">
<path fill-rule="evenodd" clip-rule="evenodd" d="M31.67 7.79C36.36 6.75 42.22 5.86 42.88 0.01H6.41C2.57 0.3 0.03 3.39 0.03 6.74V14.83L0 34.77C0.34 33.31 1.42 27.21 4.37 22.61C6.57 19.24 9.65 16.51 13.08 14.43C18.48 11.15 24.98 9.29 31.67 7.8V7.79ZM55.87 0V27.97C55.87 31.7 52.81 34.76 49.08 34.76H31.76C36.56 32.79 45.7 27.71 45.49 21.61C45.18 12.86 32.93 15.61 32.93 15.61C34.59 18.04 35.8 20.93 34.54 24.2C32.93 28.39 28.69 31.3 24.62 32.7C17.12 35.29 9.99 34.64 9.99 34.64C10.98 30.27 12.33 25.54 15.12 22.06C18.77 17.49 24.44 15.34 29.77 13.39C35.25 11.39 44.64 10.52 49.86 6.91C55.08 3.31 55.87 0 55.87 0Z" fill="#008E79"/>
</g>
<defs>
<clipPath id="clip0_4847_45740">
<rect width="55.87" height="34.76" fill="white"/>
</clipPath>
</defs>
</svg>
