<svg width="49" height="44" viewBox="0 0 49 44" fill="none" xmlns="http://www.w3.org/2000/svg">
<g clip-path="url(#clip0_4847_45563)">
<path d="M41.7725 31.8704C41.7725 36.2651 38.2381 39.8402 33.8866 39.8402H14.0256C10.7875 39.8402 8.00124 37.8548 6.78995 35.029L7.4807 34.4214L8.92589 30.2671L6.14089 25.5015V11.8185C6.14089 7.42503 9.67909 3.84993 14.0256 3.84993H33.8866C38.2381 3.84993 41.7725 7.42503 41.7725 11.8185V31.8704ZM33.8866 0H14.0256C7.57625 0 2.32715 5.3029 2.32715 11.8185V31.8704C2.32715 38.3872 7.57625 43.6938 14.0256 43.6938H33.8866C40.3421 43.6938 45.5887 38.3872 45.5887 31.8704V11.8185C45.5887 5.3029 40.3421 0 33.8866 0Z" fill="#ECEDEE"/>
<path d="M37.2617 31.1063C37.6622 31.2394 38.1263 31.3146 38.6652 31.3146C40.7815 31.3146 41.776 30.4667 41.776 29.4537C41.776 28.2706 40.1888 28.2755 40.0247 27.2354C39.8214 25.9353 39.9512 20.1801 42.1606 16.9981L43.6376 17.6723C43.6376 17.6723 44.0577 17.9125 44.5659 17.8916C44.8941 17.8743 45.237 17.7277 45.5665 17.3703C46.4017 16.4682 48.6981 13.529 49.4329 11.9897C49.6141 11.6102 46.5034 7.68504 44.7581 6.25798C43.5665 5.29426 42.054 4.71875 40.4068 4.71875C37.3597 4.71875 34.7706 6.68683 33.8154 9.43131C31.8705 10.8301 27.9895 13.0865 23.932 14.1674C19.1679 15.4367 14.2287 14.2499 10.8754 14.4212C6.56202 14.6406 3.99499 17.8349 4.09787 21.5308C4.2032 25.2871 6.76159 28.7032 6.76159 32.229C6.76159 34.992 4.53386 36.2096 3.00176 36.2096C1.16715 36.2096 1.04713 35.4541 0.488659 35.4541C0.263312 35.4541 0 35.6451 0 35.9471C0 36.88 2.26816 37.7697 3.55655 37.7697C6.99308 37.7697 8.426 35.2914 8.426 35.2914C8.426 35.2914 9.30046 37.8573 12.6892 37.8573C15.3921 37.8573 16.5629 36.5534 16.5629 35.4603C16.5629 34.5767 16.0302 34.1996 15.6481 33.6795C15.1092 32.9426 15.13 32.0417 15.13 32.0417C15.13 32.0417 15.7203 32.1378 16.5997 32.1378C18.5629 32.1378 19.1691 31.3343 19.1691 30.5419C19.1691 29.5252 17.9885 29.5954 17.9885 27.9256C17.9885 26.6611 18.6841 26.2434 19.2952 26.2434C19.9554 26.2434 22.4599 26.4874 25.4972 26.8004C26.51 26.9027 29.039 27.8923 29.039 31.8568V33.2815C29.039 35.6981 30.0004 38.6903 34.2318 38.6903C37.1037 38.6903 38.7166 37.0698 38.7166 35.9003C38.7166 35.1362 38.0541 34.8022 37.7295 34.3425C36.7706 32.9881 37.2446 31.1063 37.2446 31.1063H37.2617Z" fill="#F96302"/>
<path d="M44.2299 13.7939C43.9507 13.7939 43.7266 14.0182 43.7266 14.2967C43.7266 14.5741 43.9507 14.8008 44.2299 14.8008C44.5042 14.8008 44.7259 14.5741 44.7259 14.2967C44.7259 14.0182 44.5042 13.7939 44.2299 13.7939Z" fill="white"/>
<path d="M45.9693 12.3213C45.7206 12.3213 45.5186 12.5234 45.5186 12.776C45.5186 13.0274 45.7206 13.232 45.9693 13.232C46.2166 13.232 46.4199 13.0274 46.4199 12.776C46.4199 12.5234 46.2166 12.3213 45.9693 12.3213Z" fill="white"/>
<path d="M46.7818 10.627C46.5772 10.627 46.4082 10.797 46.4082 11.0029C46.4082 11.2123 46.5772 11.3812 46.7818 11.3812C46.9887 11.3812 47.1578 11.2123 47.1578 11.0029C47.1578 10.797 46.9887 10.627 46.7818 10.627Z" fill="white"/>
<path d="M32.4962 13.0152C32.7925 13.0152 33.0338 12.7724 33.0338 12.4705C33.0338 12.1698 32.7925 11.9258 32.4962 11.9258C32.1973 11.9258 31.9561 12.1698 31.9561 12.4705C31.9561 12.7724 32.1973 13.0152 32.4962 13.0152Z" fill="white"/>
<path d="M34.5701 26.1924C34.2725 26.1924 34.0312 26.4352 34.0312 26.7371C34.0312 27.0341 34.2725 27.2806 34.5701 27.2806C34.8653 27.2806 35.1078 27.0341 35.1078 26.7371C35.1078 26.4352 34.8653 26.1924 34.5701 26.1924Z" fill="white"/>
<path d="M37.7781 26.7373C37.483 26.7373 37.2393 26.9788 37.2393 27.2783C37.2393 27.579 37.483 27.8231 37.7781 27.8231C38.077 27.8231 38.3207 27.579 38.3207 27.2783C38.3207 26.9788 38.077 26.7373 37.7781 26.7373Z" fill="white"/>
<path d="M35.0157 21.2373C34.7169 21.2373 34.4756 21.4838 34.4756 21.7832C34.4756 22.0851 34.7169 22.3279 35.0157 22.3279C35.3121 22.3279 35.5546 22.0851 35.5546 21.7832C35.5546 21.4838 35.3121 21.2373 35.0157 21.2373Z" fill="white"/>
<path d="M36.8528 17.5511C37.1492 17.5511 37.3929 17.3108 37.3929 17.0064C37.3929 16.7081 37.1492 16.4629 36.8528 16.4629C36.5564 16.4629 36.3164 16.7081 36.3164 17.0064C36.3164 17.3108 36.5564 17.5511 36.8528 17.5511Z" fill="white"/>
<path d="M28.4434 15.3519C28.7398 15.3519 28.9823 15.1078 28.9823 14.8071C28.9823 14.5076 28.7398 14.2637 28.4434 14.2637C28.1458 14.2637 27.9033 14.5076 27.9033 14.8071C27.9033 15.1078 28.1458 15.3519 28.4434 15.3519Z" fill="white"/>
<path d="M31.4617 25.0762C31.1617 25.0762 30.918 25.3153 30.918 25.6184C30.918 25.9191 31.1617 26.1632 31.4617 26.1632C31.7593 26.1632 31.9994 25.9191 31.9994 25.6184C31.9994 25.3153 31.7593 25.0762 31.4617 25.0762Z" fill="white"/>
<path d="M29.9759 18.0335C30.2686 18.0335 30.5098 17.7895 30.5098 17.4876C30.5098 17.1893 30.2686 16.9453 29.9759 16.9453C29.6795 16.9453 29.4346 17.1893 29.4346 17.4876C29.4346 17.7895 29.6795 18.0335 29.9759 18.0335Z" fill="white"/>
<path d="M26.5672 21.1318C26.2708 21.1318 26.0283 21.3759 26.0283 21.6765C26.0283 21.976 26.2708 22.22 26.5672 22.22C26.8624 22.22 27.1073 21.976 27.1073 21.6765C27.1073 21.3759 26.8624 21.1318 26.5672 21.1318Z" fill="white"/>
<path d="M32.1417 20.5486C32.4393 20.5486 32.6805 20.3059 32.6805 20.0064C32.6805 19.7069 32.4393 19.4629 32.1417 19.4629C31.8477 19.4629 31.6064 19.7069 31.6064 20.0064C31.6064 20.3059 31.8477 20.5486 32.1417 20.5486Z" fill="white"/>
<path d="M23.6229 15.6699C23.3277 15.6699 23.084 15.9164 23.084 16.2171C23.084 16.5166 23.3277 16.7606 23.6229 16.7606C23.9205 16.7606 24.1642 16.5166 24.1642 16.2171C24.1642 15.9164 23.9205 15.6699 23.6229 15.6699Z" fill="white"/>
<path d="M24.7962 18.498C24.4998 18.498 24.2598 18.7421 24.2598 19.0415C24.2598 19.341 24.4998 19.5838 24.7962 19.5838C25.0938 19.5838 25.3363 19.341 25.3363 19.0415C25.3363 18.7421 25.0938 18.498 24.7962 18.498Z" fill="white"/>
<path d="M28.7467 23.2432C28.4503 23.2432 28.209 23.4884 28.209 23.7903C28.209 24.0898 28.4503 24.3363 28.7467 24.3363C29.0443 24.3363 29.288 24.0898 29.288 23.7903C29.288 23.4884 29.0443 23.2432 28.7467 23.2432Z" fill="white"/>
<path d="M34.2879 15.5418C34.5855 15.5418 34.8293 15.3003 34.8293 15.002C34.8293 14.7013 34.5855 14.4561 34.2879 14.4561C33.9903 14.4561 33.749 14.7013 33.749 15.002C33.749 15.3003 33.9903 15.5418 34.2879 15.5418Z" fill="white"/>
<path d="M38.2535 22.2812C37.9559 22.2812 37.7158 22.5228 37.7158 22.8247C37.7158 23.1255 37.9559 23.3694 38.2535 23.3694C38.5498 23.3694 38.7899 23.1255 38.7899 22.8247C38.7899 22.5228 38.5498 22.2812 38.2535 22.2812Z" fill="white"/>
<path d="M39.6063 17.8389C39.3111 17.8389 39.0674 18.0817 39.0674 18.3836C39.0674 18.6818 39.3111 18.9259 39.6063 18.9259C39.9014 18.9259 40.1451 18.6818 40.1451 18.3836C40.1451 18.0817 39.9014 17.8389 39.6063 17.8389Z" fill="white"/>
<path d="M39.2582 13.3643C38.9606 13.3643 38.7168 13.6083 38.7168 13.9102C38.7168 14.2109 38.9606 14.4561 39.2582 14.4561C39.552 14.4561 39.7946 14.2109 39.7946 13.9102C39.7946 13.6083 39.552 13.3643 39.2582 13.3643Z" fill="white"/>
<path d="M41.8179 14.2012C41.5216 14.2012 41.2803 14.444 41.2803 14.7446C41.2803 15.0441 41.5216 15.2881 41.8179 15.2881C42.113 15.2881 42.3543 15.0441 42.3543 14.7446C42.3543 14.444 42.113 14.2012 41.8179 14.2012Z" fill="white"/>
<path d="M37.338 11.6816C37.0379 11.6816 36.793 11.9256 36.793 12.2263C36.793 12.5246 37.0379 12.7698 37.338 12.7698C37.6343 12.7698 37.8744 12.5246 37.8744 12.2263C37.8744 11.9256 37.6343 11.6816 37.338 11.6816Z" fill="white"/>
<path d="M36.2745 9.62988C35.9769 9.62988 35.7344 9.87142 35.7344 10.1734C35.7344 10.4741 35.9769 10.7181 36.2745 10.7181C36.5721 10.7181 36.8134 10.4741 36.8134 10.1734C36.8134 9.87142 36.5721 9.62988 36.2745 9.62988Z" fill="white"/>
<path d="M38.5086 9.62988C38.211 9.62988 37.9697 9.87142 37.9697 10.1734C37.9697 10.4741 38.211 10.7181 38.5086 10.7181C38.8062 10.7181 39.0487 10.4741 39.0487 10.1734C39.0487 9.87142 38.8062 9.62988 38.5086 9.62988Z" fill="white"/>
<path d="M35.959 8.13935C35.959 7.88796 36.1599 7.68457 36.4072 7.68457C36.6583 7.68457 36.8592 7.88796 36.8592 8.13935C36.8592 8.39323 36.6583 8.59655 36.4072 8.59655C36.1599 8.59655 35.959 8.39323 35.959 8.13935Z" fill="white"/>
<path d="M37.3008 6.48734C37.3008 6.30126 37.4466 6.14844 37.6364 6.14844C37.8226 6.14844 37.9719 6.30126 37.9719 6.48734C37.9719 6.67834 37.8226 6.83366 37.6364 6.83366C37.4466 6.83366 37.3008 6.67834 37.3008 6.48734Z" fill="white"/>
<path d="M39.0371 5.70448C39.0371 5.54304 39.1669 5.40625 39.3311 5.40625C39.4988 5.40625 39.6323 5.54304 39.6323 5.70448C39.6323 5.87332 39.4988 6.00518 39.3311 6.00518C39.1669 6.00518 39.0371 5.87332 39.0371 5.70448Z" fill="white"/>
<path d="M46.4434 9.45866C46.4434 9.31077 46.5646 9.1875 46.7141 9.1875C46.8647 9.1875 46.9884 9.31077 46.9884 9.45866C46.9884 9.61272 46.8647 9.73349 46.7141 9.73349C46.5646 9.73349 46.4434 9.61272 46.4434 9.45866Z" fill="white"/>
<path d="M46.0578 14.9034C46.0517 14.7395 46.1791 14.599 46.342 14.5941C46.5024 14.5867 46.642 14.7136 46.6469 14.8776C46.6592 15.0439 46.5294 15.1807 46.3689 15.1881C46.2072 15.1942 46.0676 15.0661 46.0578 14.9034Z" fill="white"/>
<path d="M46.8216 13.8505C46.8143 13.6866 46.9416 13.5473 47.1033 13.5424C47.2637 13.5337 47.4009 13.6607 47.4095 13.8246C47.4131 13.991 47.2895 14.129 47.1278 14.1327C46.9661 14.1426 46.8277 14.0156 46.8216 13.8505Z" fill="white"/>
<path d="M45.2505 15.9445C45.2407 15.7781 45.3681 15.6389 45.5322 15.6352C45.6914 15.6266 45.8286 15.7523 45.8372 15.9149C45.8396 16.0825 45.7172 16.2206 45.5543 16.2268C45.395 16.2329 45.2554 16.1047 45.2505 15.9445Z" fill="white"/>
<path d="M44.3372 16.919C44.3299 16.7526 44.4548 16.6146 44.6165 16.6097C44.7806 16.6023 44.9128 16.728 44.9239 16.8919C44.9275 17.0595 44.8051 17.1988 44.6397 17.2024C44.4805 17.2099 44.3421 17.0841 44.3372 16.919Z" fill="white"/>
<path d="M47.5206 12.8068C47.5158 12.6429 47.6383 12.5048 47.8023 12.4975C47.9652 12.4888 48.0999 12.6146 48.1073 12.7822C48.1134 12.946 47.9885 13.0866 47.8256 13.0915C47.6652 13.1001 47.5255 12.9695 47.5206 12.8068Z" fill="white"/>
<path d="M48.0639 11.8876C48.0553 11.725 48.1803 11.5857 48.3443 11.5795C48.506 11.5709 48.6395 11.6979 48.6468 11.863C48.6591 12.0305 48.5305 12.1673 48.3676 12.1748C48.2047 12.1809 48.0688 12.0503 48.0639 11.8876Z" fill="white"/>
<path d="M14.4078 34.8884C14.4078 34.8884 12.4335 31.4476 13.8003 27.9144C15.3055 24.009 19.6397 24.5217 19.6397 24.5217C18.9343 24.2013 18.1603 24.0373 17.3519 24.0694C14.3429 24.1889 12.0074 26.9618 12.1359 30.262C12.2094 32.1747 13.0937 33.8445 14.4078 34.8884Z" fill="white" stroke="#ED6F27" stroke-width="1.17473" stroke-miterlimit="10"/>
<path d="M7.12631 23.9213C6.28004 23.0661 5.75586 21.883 5.75586 20.5767C5.75586 17.9641 7.8538 15.9849 10.4404 15.8456C13.1004 15.7014 17.9907 16.5074 21.1063 16.0945C22.1828 20.9526 26.9617 25.6762 30.7105 27.823C26.2587 25.8241 21.9967 21.2693 18.2699 19.1816C14.3778 17.0053 10.4759 16.6787 8.4257 18.5827C6.65968 20.223 6.79934 22.5461 7.12631 23.9213Z" fill="white"/>
<path d="M18.147 28.8262C18.3858 30.2298 15.8838 30.671 15.8838 30.671C18.1605 31.0802 19.0092 29.8466 19.0092 29.8466L18.147 28.8262Z" fill="white"/>
<path d="M36.2714 29.5768L36.2726 29.5596C36.2726 29.5596 34.7956 31.6866 35.8096 35.5526C35.1936 36.1577 34.0681 36.6518 33.1729 36.9032C33.1729 36.9032 36.6069 37.3506 37.6797 35.507C35.6076 33.8839 36.2272 29.8516 36.2714 29.5768Z" fill="white"/>
<path d="M44.7964 9.81416C44.6531 10.6115 43.7701 11.118 42.8173 10.9393C41.8682 10.7644 41.2154 9.97808 41.3611 9.182C41.5056 8.38711 42.3874 7.88184 43.3415 8.05928C44.2882 8.2318 44.9397 9.02177 44.7964 9.81416ZM43.1198 7.42706C41.7836 7.17935 40.5357 7.89294 40.3336 9.01316C40.1315 10.1358 41.0488 11.2449 42.3874 11.4927C43.7272 11.7342 44.9752 11.0281 45.1761 9.90663C45.3757 8.78147 44.4584 7.67478 43.1198 7.42706Z" fill="white"/>
<path d="M43.0005 9.46561C43.0765 9.02442 43.5676 8.74716 44.0918 8.84323C44.6159 8.94187 44.9784 9.37688 44.8988 9.81439C44.818 10.2568 44.3293 10.5341 43.8027 10.4367C43.2785 10.3418 42.916 9.90679 43.0005 9.46561Z" fill="white"/>
<path d="M40.201 27.6636C41.0228 29.2065 38.3896 29.7746 38.3896 29.7746C40.2194 30.0888 41.2702 28.8984 41.2702 28.4067C40.8783 26.7368 40.4447 28.0049 40.201 27.6636Z" fill="white"/>
<path d="M45.7075 8.65334C45.0388 7.48261 43.7859 6.68404 42.353 6.68404C41.0475 6.68404 39.8902 7.34582 39.1908 8.34278C38.9716 8.61269 38.576 8.65216 38.3066 8.42907C38.0408 8.20599 38.0041 7.8092 38.2221 7.54053C39.0402 6.6187 40.2613 6.01855 41.6084 6.01855C43.4454 6.01855 45.0241 7.10428 45.7075 8.65334Z" fill="white"/>
<path d="M41.5235 16.6917C40.1408 16.6486 38.3699 15.967 36.7153 14.731C35.3253 13.6933 34.2805 12.4609 33.7197 11.3062C33.6045 11.1078 33.6706 10.854 33.8678 10.7369C34.0626 10.6198 34.332 10.6802 34.4336 10.886C35.0375 12.1011 35.9376 13.4481 37.2787 14.5584C38.6687 15.7132 40.1665 16.4378 41.5235 16.6917Z" fill="white"/>
<path d="M39.6874 20.494C37.1939 20.3362 34.344 19.025 32.1468 16.7476C31.1144 15.6742 30.3404 14.5354 29.8089 13.3893C29.695 13.186 29.7673 12.9334 29.9681 12.8225C30.169 12.7103 30.4323 12.7769 30.5315 12.9876C31.1769 14.3802 31.9828 15.8405 33.3091 17.1801C35.2111 19.0989 37.5258 20.2376 39.6874 20.494Z" fill="white"/>
<path d="M25.6948 14.7897C25.9128 14.7157 26.1357 14.834 26.219 15.0484C27.2845 17.7128 27.8552 18.8047 29.8845 20.9786C32.6229 23.9104 36.602 24.969 38.8028 25.0134C36.934 25.1798 32.3217 24.2986 29.124 20.9453C27.3236 19.0561 26.0096 17.0597 25.4376 15.3196C25.3653 15.1026 25.4805 14.8648 25.6948 14.7897Z" fill="white"/>
<path d="M40.3085 11.5615C40.8487 11.9201 41.6423 12.2726 42.7029 12.312C44.9392 12.381 45.7083 10.5867 45.8014 9.8916C45.832 10.4018 45.1596 12.8826 42.4102 12.9208C41.352 12.9331 40.5216 12.6842 39.935 12.3182C39.7305 12.2122 39.6484 11.9608 39.7489 11.7525C39.8529 11.5467 40.1199 11.4358 40.3085 11.5615Z" fill="white"/>
</g>
<defs>
<clipPath id="clip0_4847_45563">
<rect width="49" height="44" fill="white"/>
</clipPath>
</defs>
</svg>
