<svg width="40" height="40" viewBox="0 0 40 40" fill="none" xmlns="http://www.w3.org/2000/svg">
<g clip-path="url(#clip0_792_8548)">
<path fill-rule="evenodd" clip-rule="evenodd" d="M0 0H12.4186C11.7695 1.11364 11.2799 3.61649 12.5347 9.23708C13.6506 14.2337 16.8777 19.4443 20.246 23.5641L16.0146 27.0371L0 6.91642L0 0ZM18.1348 0H39.9977V5.2972C38.3056 4.30881 35.222 3.35459 30.6946 5.16511C23.3887 8.08927 22.7625 16.6477 22.7625 16.6477C18.7201 11.765 16.0624 3.75996 18.1348 0ZM39.9977 12.3252V28.0938C35.0307 29.9795 28.0619 25.0763 26.3106 19.2553C23.7736 10.8199 29.754 7.77499 34.0332 8.6108C37.233 9.2348 39.089 11.141 39.9977 12.3252ZM39.9977 30.6809V40H26.5976L29.2849 37.7932C27.5313 38.0073 24.0879 37.1829 22.4118 35.0763L17.6953 29.1505L22.0064 25.6092C24.6573 28.5311 27.1806 30.6286 28.6062 31.2594C31.6625 32.6076 35.1036 33.2567 39.9977 30.6809ZM19.1164 40H4.47962L13.5983 32.512C14.3453 33.4502 15.0649 34.3566 15.7504 35.2152C17.0941 36.905 18.2214 38.5698 19.1164 40ZM0.225461 40H0V15.4247C3.48212 19.8019 7.93213 25.3929 11.9176 30.4008L0.225461 40Z" fill="#EC6722"/>
</g>
<defs>
<clipPath id="clip0_792_8548">
<rect width="40" height="40" fill="white"/>
</clipPath>
</defs>
</svg>
