<svg width="40" height="40" viewBox="0 0 40 40" fill="none" xmlns="http://www.w3.org/2000/svg">
<g clip-path="url(#clip0_792_8491)">
<path d="M6.76797 0H33.728C38.4264 0.473824 39.9925 3.28332 39.9981 7.72054C40.0019 15.848 40 23.9699 39.9925 32.0862C39.9925 37.0697 38.3984 39.9796 33.1686 39.9851C24.5623 40 15.9579 40.0037 7.35527 39.9963C2.17022 39.9907 0.0335602 37.6829 0.0223734 32.6437C0 24.505 -0.00559336 16.3627 0.00559336 8.21666C0.0111867 3.40038 1.52139 0.27872 6.76797 0ZM13.6254 13.1946C14.5166 12.3324 15.0965 11.6412 15.365 11.1209C19.6551 2.79277 4.48588 -0.111487 4.45791 6.70042C4.42062 15.3259 4.43554 23.9513 4.50266 32.5768C4.52876 36.0329 6.35592 37.4952 9.98415 36.9638C14.6882 36.2726 17.6974 31.4507 13.9778 27.5988C11.6547 25.1907 9.29058 22.7677 6.88543 20.3298C6.75492 20.196 6.75865 20.0641 6.89662 19.934C9.18989 17.7433 11.3377 15.3909 13.6254 13.1946ZM18.7378 3.47842C22.5916 11.3829 17.9155 14.7721 13.0158 19.8839C12.8815 20.0288 12.8852 20.17 13.0269 20.3075C17.9883 25.1071 22.379 29.2433 18.3015 36.5234C18.2702 36.5806 18.2542 36.6449 18.255 36.7099C18.2559 36.775 18.2736 36.8386 18.3064 36.8944C18.3392 36.9502 18.386 36.9962 18.442 37.028C18.498 37.0597 18.5614 37.076 18.6259 37.0753L32.5981 37.0586C33.9741 37.0586 34.181 36.568 33.219 35.5869L18.2176 20.3187C18.0722 20.17 18.0722 20.0214 18.2176 19.8727C20.6227 17.3791 23.0297 14.8818 25.4386 12.3807C30.3104 7.3359 24.566 1.88415 18.8496 3.23872C18.7117 3.27217 18.6744 3.35207 18.7378 3.47842ZM23.9787 20.2852L35.2494 31.618C35.2835 31.654 35.3277 31.6789 35.3762 31.6894C35.4248 31.6999 35.4754 31.6955 35.5214 31.6768C35.5673 31.6581 35.6066 31.6259 35.6339 31.5846C35.6612 31.5433 35.6754 31.4947 35.6745 31.4452C35.6484 24.3768 35.6521 17.2565 35.6857 10.0841C35.708 5.76392 35.4228 2.14614 29.8909 3.19413C29.7343 3.22386 29.6933 3.30747 29.7679 3.44498C31.293 6.19873 31.6062 8.98964 30.7076 11.8177C29.7791 14.7331 26.2161 17.7099 23.9731 19.8894C23.8426 20.0195 23.8445 20.1514 23.9787 20.2852Z" fill="#215197"/>
</g>
<defs>
<clipPath id="clip0_792_8491">
<rect width="40" height="40" fill="white"/>
</clipPath>
</defs>
</svg>
