<svg width="28" height="38" viewBox="0 0 28 38" fill="none" xmlns="http://www.w3.org/2000/svg">
<g clip-path="url(#clip0_4850_45743)">
<path fill-rule="evenodd" clip-rule="evenodd" d="M25.7941 27.4596L25.7391 27.9721L25.6571 28.4735L25.5481 28.9671L25.4121 29.4521L25.2521 29.9281L25.0663 30.3946L24.8566 30.8509L24.6236 31.2956L24.368 31.7294L24.0908 32.1508L23.7923 32.5598L23.4732 32.9554L23.1345 33.3374L22.7767 33.705L22.4006 34.0576L22.0063 34.3944L21.5959 34.7156L21.1687 35.0201L20.7265 35.3078L20.2688 35.5769L19.797 35.8284L19.3118 36.0607L18.814 36.2736L18.3034 36.4665L17.7819 36.6388L17.2494 36.7898L16.7066 36.9195L16.1546 37.0262L15.5938 37.1107L15.025 37.1714L14.4485 37.2079L13.8655 37.2198L13.2867 37.2067L12.7138 37.169L12.1477 37.107L11.5889 37.0216L11.039 36.9137L10.4975 36.7833L9.96592 36.631L9.44472 36.4575L8.93452 36.2637L8.43642 36.0496L7.95071 35.8165L7.47802 35.5642L7.01992 35.2938L6.57602 35.0057L6.14772 34.7005L5.73502 34.3788L5.33971 34.041L4.96222 33.6878L4.60262 33.3198L4.26192 32.9374L3.94122 32.5413L3.64062 32.1319L3.36172 31.7101L3.10442 31.276L2.87012 30.8304L2.65892 30.3745L2.47272 29.9079L2.31062 29.4315L2.17502 28.9466L2.06552 28.453L1.98322 27.9516L1.92902 27.44L1.46172 10.6686H1.45212L1.44922 9.09952L6.68291 5.58799L9.05682 7.18005L13.8092 3.99512L18.5718 7.18947L20.9398 5.60241L26.1911 9.12616L25.7941 27.4596Z" fill="#222222"/>
<path fill-rule="evenodd" clip-rule="evenodd" d="M25.4051 27.4349L25.7681 10.6719H1.84961L2.31561 27.4141C2.93731 33.247 8.18691 36.7105 13.865 36.837C19.5643 36.7233 24.7788 33.2857 25.4051 27.4349Z" fill="#E31E24"/>
<path fill-rule="evenodd" clip-rule="evenodd" d="M9.24958 0.586629L9.62867 1.42744L10.5494 1.52095C10.6676 1.53282 10.6785 1.51723 10.5853 1.59935L9.88877 2.21358L10.0826 3.10278C10.1076 3.21723 10.126 3.22211 10.0179 3.16058L9.20817 2.69941L8.40728 3.1557C8.30458 3.21397 8.30547 3.23281 8.33127 3.11301L8.52748 2.21358L7.83898 1.60632C7.75048 1.52793 7.73247 1.53444 7.85647 1.52177L8.78768 1.42744L9.16268 0.59605C9.21068 0.489045 9.19898 0.474273 9.24958 0.586629ZM5.02668 1.95677L5.40618 2.79746L6.32647 2.89097C6.44507 2.90295 6.45568 2.88737 6.36248 2.96937L5.66607 3.5836L5.86017 4.4728C5.88477 4.58725 5.90308 4.59213 5.79538 4.53061L4.98527 4.06943L4.18477 4.52572C4.08177 4.58399 4.08258 4.60283 4.10888 4.48269L4.30468 3.5836L3.61618 2.97635C3.52768 2.89795 3.50968 2.90458 3.63408 2.89225L4.56488 2.79746L4.93988 1.96619C4.98828 1.85907 4.97618 1.84464 5.02668 1.95677ZM1.48157 3.99232L1.86068 4.83266L2.78148 4.92664C2.89958 4.93851 2.91007 4.92292 2.81737 5.00492L2.12088 5.61916L2.31468 6.50835C2.33968 6.62245 2.35797 6.6278 2.24987 6.56627L1.44017 6.10499L0.639279 6.56092C0.536579 6.61954 0.537378 6.63839 0.563778 6.51824L0.759579 5.61916L0.0705761 5.01155C-0.0175239 4.93362 -0.0355261 4.94014 0.0885739 4.92746L1.01928 4.83266L1.39477 4.00174C1.44277 3.89462 1.43107 3.87985 1.48157 3.99232ZM18.4515 0.586629L18.8309 1.42744L19.7513 1.52095C19.8698 1.53282 19.8804 1.51723 19.7872 1.59935L19.0911 2.21358L19.2849 3.10278C19.3095 3.21723 19.3278 3.22211 19.2201 3.16058L18.41 2.69941L17.6096 3.1557C17.5064 3.21397 17.5073 3.23281 17.5335 3.11301L17.7299 2.21358L17.0409 1.60632C16.9524 1.52793 16.9344 1.53444 17.0588 1.52177L17.9896 1.42744L18.3646 0.59605C18.413 0.489045 18.4009 0.474273 18.4515 0.586629ZM22.6742 1.95677L23.0538 2.79746L23.9741 2.89097C24.0923 2.90295 24.1027 2.88737 24.01 2.96937L23.3135 3.5836L23.5073 4.4728C23.5324 4.58725 23.5507 4.59213 23.4425 4.53061L22.6329 4.06943L21.832 4.52572C21.7293 4.58399 21.7302 4.60283 21.756 4.48269L21.9522 3.5836L21.2637 2.97635C21.1752 2.89795 21.1573 2.90458 21.2812 2.89225L22.212 2.79746L22.5874 1.96619C22.6354 1.85907 22.6233 1.84464 22.6742 1.95677ZM26.2592 4.03128L26.6382 4.87198L27.5592 4.96561C27.6772 4.97793 27.6882 4.96188 27.5952 5.044L26.8982 5.65824L27.0922 6.54731C27.1172 6.66188 27.1362 6.66677 27.0282 6.60524L26.2182 6.14395L25.4172 6.59989C25.3142 6.65897 25.3152 6.67747 25.3412 6.55755L25.5372 5.65824L24.849 5.05086C24.7604 4.97293 24.7424 4.97956 24.8665 4.96677L25.7972 4.87198L26.1722 4.04071C26.2202 3.93405 26.2092 3.91928 26.2592 4.03128ZM13.8703 0.0778862L14.2499 0.91823L15.1702 1.01221C15.2888 1.02407 15.2992 1.00849 15.2061 1.09049L14.5096 1.70472L14.7033 2.59392C14.7284 2.70802 14.7468 2.71337 14.6391 2.65184L13.829 2.19055L13.0285 2.64649C12.9254 2.70511 12.9267 2.72395 12.9525 2.6038L13.1484 1.70472L12.4597 1.09712C12.3713 1.01919 12.3533 1.0257 12.4777 1.01302L13.4085 0.91823L13.7835 0.087308C13.8314 -0.0198141 13.8197 -0.0345862 13.8703 0.0778862Z" fill="#FECC00"/>
<path fill-rule="evenodd" clip-rule="evenodd" d="M20.9403 6.06128L25.8191 9.31669L25.7991 10.313L1.8384 10.2884L1.8125 9.28924L6.6834 6.04651L9.05721 7.63857L13.8091 4.4541L18.5718 7.64834L20.9403 6.06128ZM13.8086 10.6719H25.8691L25.4021 27.4144C24.8339 33.2664 19.5638 36.7295 13.8086 36.8373V10.6719Z" fill="white"/>
<path fill-rule="evenodd" clip-rule="evenodd" d="M13.8114 32.9375V30.9328C13.7208 30.9352 13.6322 30.9946 13.6322 31.112V31.1965C13.6298 31.0431 13.3651 31.0443 13.3651 31.1978V32.6724C13.3651 32.8259 13.6298 32.8271 13.6322 32.674V32.7582C13.6322 32.8756 13.7208 32.9355 13.8114 32.9375ZM13.0736 32.6683C12.9842 32.6688 12.9216 32.6769 12.8841 32.6933C12.8877 32.741 12.917 32.8104 12.9718 32.9001C13.0486 33.0269 13.1208 33.1579 13.178 33.2973C13.2394 33.4483 13.2777 33.603 13.2753 33.7622C13.2719 34.0786 13.1454 34.4471 12.8798 34.7117C12.6606 34.9297 12.3525 35.0782 11.9474 35.0753C11.5728 35.072 11.2502 34.9276 11.0138 34.6977C10.77 34.4606 10.6196 34.132 10.6025 33.7754C10.5849 33.4098 10.7498 33.1332 10.8859 32.9051C10.9436 32.8083 11.0488 32.7943 11.0188 32.7631C11.0075 32.7513 10.9436 32.8149 10.8367 32.8636C10.6826 32.9339 10.5101 33.0122 10.2985 33.0417C10.2483 33.0487 10.1966 33.0524 10.1439 33.0532C9.83205 33.059 9.58654 32.9461 9.40864 32.7664C9.23874 32.5953 9.13674 32.3656 9.10254 32.1255C9.09514 32.0742 9.09084 32.0197 9.09004 31.9626C9.08884 31.8903 9.09304 31.8199 9.10254 31.7522C9.13644 31.5162 9.23454 31.2905 9.39694 31.1198C9.56824 30.9401 9.80494 30.8224 10.1059 30.817C10.1695 30.8162 10.2341 30.8195 10.2985 30.8285C10.5101 30.8576 10.6826 30.9364 10.8367 31.0066C10.9436 31.0553 11.0075 31.119 11.0188 31.1071C11.0488 31.0759 10.9436 31.062 10.8859 30.9647C10.7498 30.737 10.5849 30.4604 10.6025 30.0949C10.6196 29.7382 10.77 29.4095 11.0138 29.1724C11.2502 28.9422 11.5728 28.7979 11.9474 28.795C12.3525 28.7921 12.6606 28.9406 12.8798 29.1589C13.1454 29.4232 13.2719 29.7916 13.2753 30.108C13.2777 30.2672 13.2394 30.4219 13.178 30.5724C13.1208 30.7128 13.0486 30.8433 12.9718 30.9696C12.917 31.0599 12.8877 31.1292 12.8841 31.1769C12.9216 31.1933 12.9842 31.2014 13.0736 31.2019V31.7562C12.8707 31.7558 12.7073 31.7189 12.5846 31.647C12.499 31.597 12.4331 31.5314 12.3872 31.4517C12.3421 31.3725 12.3191 31.2844 12.3191 31.1879C12.3191 31.041 12.375 30.8732 12.4865 30.6882C12.5534 30.5778 12.6147 30.469 12.6551 30.3689C12.6915 30.2799 12.7144 30.1937 12.7133 30.1145C12.7111 29.9241 12.6364 29.7033 12.4785 29.5462C12.3583 29.4272 12.1855 29.3456 11.9516 29.3472C11.7337 29.3488 11.5465 29.4322 11.4104 29.5642C11.2647 29.7063 11.175 29.9045 11.1645 30.1207C11.1549 30.3234 11.2735 30.5216 11.3712 30.6857C11.5482 30.9823 11.6881 31.2167 11.4292 31.4858C11.1616 31.7648 10.9102 31.6499 10.6008 31.5092C10.4817 31.455 10.3486 31.3939 10.2212 31.3767C10.1819 31.3709 10.1465 31.3689 10.1152 31.3693C9.98284 31.3717 9.88094 31.421 9.80914 31.4965C9.72854 31.5814 9.67844 31.7004 9.66044 31.828C9.65414 31.8711 9.65134 31.9134 9.65214 31.954C9.65254 31.9835 9.65544 32.0155 9.66044 32.0496C9.67844 32.1784 9.72934 32.2974 9.81204 32.3807C9.88674 32.4562 9.99414 32.5034 10.1352 32.501C10.1598 32.5005 10.1887 32.4985 10.2212 32.4935C10.3486 32.4763 10.4817 32.4151 10.6008 32.361C10.9102 32.2203 11.1616 32.1054 11.4292 32.384C11.6881 32.6536 11.5482 32.8875 11.3712 33.1845C11.2735 33.3486 11.1549 33.5468 11.1645 33.7491C11.175 33.9658 11.2647 34.164 11.4104 34.3059C11.5465 34.438 11.7337 34.5209 11.9516 34.523C12.1855 34.5247 12.3583 34.4434 12.4785 34.324C12.6364 34.1669 12.7111 33.9461 12.7133 33.7557C12.7144 33.6765 12.6915 33.5903 12.6551 33.5012C12.6147 33.4012 12.5534 33.2925 12.4865 33.1821C12.375 32.997 12.3191 32.8292 12.3191 32.6823H12.3203C12.3203 32.5846 12.3424 32.4964 12.3872 32.4185C12.4331 32.3385 12.499 32.2732 12.5846 32.2231C12.7073 32.1518 12.8707 32.1145 13.0736 32.114V32.6683Z" fill="#FECC00"/>
<path fill-rule="evenodd" clip-rule="evenodd" d="M13.2109 31.9077C12.7207 31.9069 12.1653 31.7899 12.1653 31.188C12.1653 30.9845 12.2497 30.7835 12.3541 30.6111C12.4309 30.4839 12.5612 30.2668 12.5591 30.1162C12.555 29.7687 12.3166 29.4958 11.9528 29.4987C11.5912 29.5012 11.3349 29.781 11.3182 30.1277C11.3106 30.2902 11.4229 30.4736 11.5035 30.609C11.7064 30.9496 11.8638 31.2536 11.5407 31.5898C11.2179 31.9261 10.906 31.8149 10.536 31.6463C10.3644 31.5683 10.0809 31.4321 9.92134 31.6C9.76984 31.7596 9.76564 32.1173 9.92224 32.2754C10.0813 32.4361 10.3677 32.3004 10.536 32.2241C10.906 32.0555 11.2179 31.9443 11.5407 32.2803C11.8638 32.6163 11.7064 32.9208 11.5035 33.2609C11.4229 33.3963 11.3106 33.5797 11.3182 33.7422C11.3669 34.7561 13.1099 34.5071 12.3541 33.2593C12.1165 32.8666 12.045 32.3628 12.5057 32.0931C12.7291 31.9623 12.962 31.9631 13.2109 31.9623V31.9077ZM13.2273 31.1026C13.2715 30.9804 13.4022 30.9238 13.5258 30.9336C13.6498 30.7334 13.983 30.7334 14.1074 30.9336C14.2118 30.9254 14.3212 30.9648 14.3797 31.0505H18.6868V31.9073H14.4219V31.9626H18.6868V32.8199H17.9887V32.8634H18.4121V33.5813H17.9887V33.6946H18.4121V34.8288H17.681V34.4131H17.5657V34.8288H16.835V33.6946H17.258V33.5813H16.835V33.1658H16.7193V33.5813H16.2964V33.6946H16.7193V34.8288H15.9886V34.4131H15.8733V34.8288H15.1422V33.6946H15.5656V33.5813H15.1422V32.8634H15.5656V32.8199H14.3797C14.3212 32.9065 14.2118 32.9445 14.1074 32.9367C13.983 33.137 13.6498 33.137 13.5253 32.9367C13.4017 32.9462 13.2715 32.8896 13.2273 32.7677V32.8194L13.1016 32.8199C13.1024 32.8207 13.1032 32.8219 13.1036 32.8231C13.4777 33.4419 13.6185 34.2087 13.0556 34.7672C12.798 35.0224 12.4418 35.1714 12.0797 35.2058C11.1624 35.2937 10.4926 34.6926 10.4488 33.7824C10.4366 33.5342 10.4972 33.325 10.594 33.1206C10.1381 33.2654 9.67703 33.2539 9.29843 32.872C8.81773 32.3878 8.81613 31.5089 9.28453 31.0165C9.66083 30.621 10.1314 30.6045 10.594 30.7502C10.4972 30.5459 10.4366 30.3362 10.4488 30.0875C10.4871 29.2862 11.121 28.6502 11.9461 28.6436C12.7905 28.6371 13.4193 29.2866 13.4293 30.106C13.4331 30.4482 13.2773 30.76 13.1036 31.0468C13.1032 31.0481 13.1024 31.0494 13.1016 31.0505H13.2273V31.1026Z" fill="#222222"/>
<path d="M13.6324 31.1957C13.6302 31.0422 13.3656 31.0434 13.3656 31.1968V32.6715C13.3656 32.8254 13.6302 32.8262 13.6324 32.6732V32.7573C13.6324 32.9965 14.0016 32.9969 14.0016 32.7573V32.6732C14.0036 32.8262 14.2687 32.825 14.2687 32.6715V31.1968C14.2687 31.0434 14.0036 31.0422 14.0016 31.1957V31.1115C14.0016 30.8719 13.6324 30.8723 13.6324 31.1115V31.1957ZM18.5334 31.7557H14.4157V31.2009H18.5334V31.7557ZM18.2586 34.6767H17.8356V34.2612H17.4121V34.6767H16.9892V33.8455H17.4121V33.4298H16.9892V33.0137H16.5662V33.4298H16.1433V33.8455H16.5662V34.6767H16.1433V34.2612H15.7197V34.6767H15.2968V33.8455H15.7197V33.4298H15.2968V33.0137H15.7197V32.6678H14.4157V32.1131H18.5334V32.6678H17.8356V33.0137H18.2586V33.4298H17.8356V33.8455H18.2586V34.6767ZM13.1918 32.6678C12.9559 32.6683 12.8515 32.7011 12.9723 32.8996C14.3381 35.1605 10.7082 35.9591 10.6029 33.7749C10.5854 33.4088 10.7503 33.1327 10.8864 32.9046C10.9441 32.8077 11.0493 32.7934 11.0197 32.7626C11.008 32.7503 10.9441 32.8139 10.8368 32.8628C10.3591 33.0811 9.82836 33.1886 9.40906 32.7659C8.98566 32.3396 8.98516 31.5522 9.39736 31.1189C9.80916 30.686 10.3474 30.7824 10.8368 31.0056C10.9441 31.0545 11.008 31.1185 11.0197 31.1061C11.0493 31.0754 10.9441 31.061 10.8864 30.9642C10.7503 30.736 10.5854 30.4596 10.6029 30.0939C10.6376 29.3726 11.2047 28.8006 11.9479 28.794C12.7062 28.7883 13.2674 29.3697 13.2757 30.107C13.28 30.4172 13.1297 30.7086 12.9723 30.9691C12.852 31.167 12.9554 31.2009 13.1918 31.2009V31.7557C12.8201 31.7549 12.3196 31.6043 12.3196 31.1874C12.3196 31.0402 12.3751 30.8723 12.487 30.6876C12.5826 30.5292 12.7162 30.3024 12.7137 30.1136C12.7088 29.6816 12.3997 29.3431 11.9525 29.3467C11.5087 29.3501 11.1859 29.6931 11.1649 30.1202C11.1553 30.3229 11.2736 30.5211 11.3712 30.6847C11.5487 30.9819 11.6882 31.2157 11.4292 31.4853C11.1616 31.764 10.9102 31.6494 10.6013 31.5087C10.3591 31.3983 10.0312 31.2629 9.80946 31.496C9.60156 31.7143 9.59786 32.164 9.81246 32.3802C10.0347 32.6042 10.3632 32.4688 10.6013 32.3605C10.9102 32.2193 11.1616 32.1049 11.4292 32.3834C11.6882 32.6527 11.5487 32.887 11.3712 33.184C11.2736 33.3478 11.1553 33.5463 11.1649 33.7486C11.2259 35.0132 13.376 34.6485 12.487 33.1811C12.2961 32.8652 12.203 32.4463 12.5851 32.2222C12.7075 32.1508 12.9893 32.1135 13.1918 32.1131V32.6678Z" fill="#FECC00"/>
<path fill-rule="evenodd" clip-rule="evenodd" d="M9.77422 20.0933H10.0691V19.4987C10.0691 19.4478 10.1079 19.4068 10.1601 19.4068H11.085C11.1367 19.4068 11.1785 19.445 11.1785 19.4963V20.0933H12.0441V19.4987C12.0441 19.4478 12.0829 19.4068 12.1356 19.4068H13.0605C13.1119 19.4068 13.1535 19.445 13.1535 19.4963V20.0933H13.8042C13.8556 20.0933 13.8972 20.1314 13.8972 20.1827V23.3019C13.8972 23.3852 13.8969 23.4209 13.8171 23.4209C13.2617 23.4209 12.7999 23.8612 12.7999 24.4204C12.7999 25.3601 12.7979 26.3001 12.7979 27.2401C12.7979 27.2894 12.7573 27.3295 12.7068 27.3295H11.6349C11.5847 27.3295 11.5439 27.2894 11.5439 27.2401V27.0768H10.6398L10.6616 27.2328C10.6678 27.287 10.6352 27.3354 10.5776 27.3386C9.55042 27.3982 8.52661 27.5175 7.49641 27.5175C6.46681 27.5175 5.44242 27.3982 4.41562 27.3386C4.36262 27.3329 4.32382 27.291 4.33092 27.2373L4.61481 25.1672C4.61951 25.1188 4.66192 25.0831 4.71132 25.086L4.85412 25.0958L5.39142 17.7229L4.89042 17.3655C4.86332 17.3474 4.84862 17.3211 4.84862 17.2879V16.0713C4.84862 16.0221 4.88922 15.9818 4.93962 15.9818H5.56772L7.38952 13.6336V13.2988L7.38911 13.2931V12.3346C7.38911 12.2849 7.43002 12.2451 7.48012 12.2451H9.11832C9.16832 12.2451 9.20932 12.2849 9.20932 12.3346C9.20932 12.3604 9.19802 12.3834 9.18052 12.3998L8.78001 12.8138L9.18422 13.2314C9.21852 13.2671 9.21722 13.3238 9.18092 13.3579C9.16342 13.3743 9.14072 13.3821 9.11832 13.3821L7.57162 13.3825V13.6484L9.46072 15.9818H10.0511C10.1028 15.9818 10.1446 16.02 10.1446 16.0713V17.29C10.1446 17.322 10.1276 17.3494 10.1025 17.3655L9.60142 17.7229L9.77422 20.0933Z" fill="white"/>
<path fill-rule="evenodd" clip-rule="evenodd" d="M7.91335 20.6984L8.05196 18.9976C8.05196 18.1798 6.94336 18.1838 6.94336 18.9976L7.08166 20.6984H7.91335ZM20.134 12.2451H21.772C21.8222 12.2451 21.8631 12.2854 21.8631 12.3346C21.8631 12.3605 21.8518 12.3834 21.8338 12.3998L21.4334 12.8139L21.8376 13.2315C21.8723 13.2673 21.871 13.3239 21.8347 13.358C21.8168 13.3744 21.7942 13.3822 21.772 13.3822L20.225 13.3825V13.6341L22.0464 15.9819H22.6748C22.725 15.9819 22.7658 16.0222 22.7658 16.0714V17.288C22.7658 17.3211 22.7513 17.3479 22.7242 17.3655L22.223 17.7229L22.76 25.0959L22.9033 25.086C22.9525 25.0831 22.9951 25.1193 22.9992 25.1673L23.2832 27.2378C23.2908 27.291 23.252 27.3329 23.1989 27.3387C22.1716 27.3982 21.1478 27.5176 20.1177 27.5176C19.088 27.5176 18.0642 27.3982 17.0369 27.3387C16.9792 27.3354 16.9467 27.287 16.9529 27.2328L16.9747 27.0769H16.0702V27.2402C16.0702 27.2894 16.0297 27.3297 15.9792 27.3297H14.9077C14.8572 27.3297 14.8167 27.2894 14.8167 27.2402C14.8167 26.3002 14.8146 25.3602 14.8146 24.4205C14.8146 23.8613 14.3524 23.4209 13.7975 23.4209C13.7177 23.4209 13.7169 23.3857 13.7169 23.3019V20.1827C13.7169 20.1314 13.7586 20.0933 13.8104 20.0933H14.4609V19.4963C14.4609 19.445 14.5027 19.4068 14.554 19.4068H15.479C15.5316 19.4068 15.57 19.4479 15.57 19.4987V20.0933H16.436V19.4963C16.436 19.445 16.4778 19.4068 16.5291 19.4068H17.454C17.5066 19.4068 17.5451 19.4479 17.5451 19.4987V20.0933H17.8403L18.0128 17.7229L17.5121 17.3655C17.487 17.3495 17.47 17.3224 17.47 17.2904V16.0714C17.47 16.0201 17.5116 15.9819 17.563 15.9819H18.1539L20.043 13.6484V12.3346C20.043 12.2854 20.0838 12.2451 20.134 12.2451Z" fill="#E31E24"/>
<path fill-rule="evenodd" clip-rule="evenodd" d="M19.5957 19.0291L19.726 20.6296H20.5089L20.6392 19.0291C20.6392 18.2593 19.5957 18.2629 19.5957 19.0291Z" fill="white"/>
<path fill-rule="evenodd" clip-rule="evenodd" d="M4.63573 26.3507C5.58773 26.438 6.53852 26.5697 7.49642 26.5697C8.45422 26.5697 9.40512 26.438 10.3572 26.3507L10.469 27.1659C9.47863 27.2271 8.48972 27.3386 7.49642 27.3386C6.50302 27.3386 5.51423 27.2271 4.52373 27.1659L4.63573 26.3507ZM5.51502 17.5903H9.47772L9.77293 17.3794H5.21983L5.51502 17.5903ZM5.57023 17.7693L5.03533 25.1086C5.85363 25.1739 6.67512 25.262 7.49642 25.2641C8.31692 25.2625 9.13913 25.1734 9.95753 25.1086L9.42262 17.7693H5.57023ZM9.96213 16.1608H9.47312V16.6757C9.47312 16.7249 9.43223 16.7652 9.38213 16.7652H8.71063C8.66053 16.7652 8.61963 16.7249 8.61963 16.6757V16.1608H7.92732V16.6733C7.92732 16.7241 7.88853 16.7652 7.83633 16.7652H7.15862C7.10722 16.7652 7.06553 16.727 7.06553 16.6757V16.1608H6.37312V16.6733C6.37312 16.7241 6.33433 16.7652 6.28213 16.7652H5.61313C5.56143 16.7652 5.51962 16.727 5.51962 16.6757V16.1608H5.03033V17.2005H9.96213V16.1608ZM6.45083 26.3465C5.85283 26.301 5.25613 26.2288 4.65993 26.1734L4.78393 25.2695C5.34143 25.3076 5.89793 25.3646 6.45543 25.4028C6.45293 25.5899 6.45133 26.1381 6.45083 26.3465ZM8.35953 26.3596C7.77533 26.3986 7.21663 26.3983 6.63283 26.3596C6.63333 26.1635 6.63452 25.6039 6.63712 25.4147C7.21742 25.4496 7.77453 25.4496 8.35533 25.4147C8.35743 25.6092 8.35913 26.1692 8.35953 26.3596ZM9.29192 16.0602L7.47553 13.8167L5.70173 16.1034V16.5863H6.19113V16.0714C6.19113 16.0221 6.23213 15.9819 6.28213 15.9819H7.15653C7.20663 15.9819 7.24753 16.0221 7.24753 16.0714V16.5863H7.74523V16.0738C7.74523 16.0229 7.78413 15.9819 7.83633 15.9819H8.70812C8.76002 15.9819 8.80183 16.0201 8.80183 16.0714V16.5863H9.29112V16.0738C9.29112 16.0688 9.29152 16.0648 9.29192 16.0602ZM7.57113 12.424V13.2036H8.90603L8.58872 12.8754C8.55532 12.8409 8.55532 12.7868 8.58872 12.7522L8.90603 12.424H7.57113ZM11.9184 25.4422H12.6157V25.2383H11.9184V25.4422ZM11.8462 26.1705H12.6153V25.6211H11.8462V26.1705ZM12.0496 23.4652C11.9046 23.7233 11.8165 24.0171 11.8023 24.3306H12.6211C12.6332 24.1706 12.6783 24.0196 12.749 23.8842L12.0496 23.4652ZM12.8437 23.732C12.9076 23.6454 12.9828 23.567 13.068 23.5001C12.5957 22.8203 12.6103 22.8411 12.4095 22.5515C12.189 22.7119 11.9977 22.9093 11.8462 23.1341C12.1677 23.3266 12.2458 23.3738 12.8437 23.732ZM13.2249 22.5252C13.0584 22.5752 12.9013 22.6463 12.7564 22.7345L13.2178 23.3997C13.2847 23.3618 13.3552 23.3303 13.4287 23.3052C13.3607 23.0455 13.293 22.7854 13.2249 22.5252ZM13.7152 21.5557C13.5327 21.5618 13.3519 21.5844 13.1727 21.6246C13.3653 22.3525 13.4025 22.4932 13.6045 23.2605C13.6409 23.2539 13.6775 23.2495 13.7152 23.2461V21.5557ZM11.726 27.1503H12.6157V26.3494H11.726V27.1503ZM9.77422 20.0933H10.069V19.4984C10.069 19.4479 10.1078 19.4068 10.16 19.4068H11.0849C11.1367 19.4068 11.1785 19.445 11.1785 19.4963V20.0933H12.0441V19.4984C12.0441 19.4479 12.0829 19.4068 12.1351 19.4068H13.06C13.1118 19.4068 13.1535 19.445 13.1535 19.4963V20.0933H13.8037C13.8555 20.0933 13.8972 20.131 13.8972 20.1827V23.3016C13.8972 23.3852 13.8968 23.4209 13.8171 23.4209C13.2617 23.4209 12.7999 23.8608 12.7999 24.42C12.7999 25.3597 12.7977 26.3002 12.7977 27.2398C12.7977 27.2894 12.7569 27.3292 12.7067 27.3292H11.6349C11.5847 27.3292 11.5438 27.2894 11.5438 27.2398V27.0765H10.6398L10.6611 27.2328C10.6678 27.287 10.6352 27.335 10.5772 27.3383C9.55043 27.3982 8.52662 27.5176 7.49642 27.5176C6.46632 27.5176 5.44242 27.3982 4.41522 27.3383C4.36212 27.3329 4.32383 27.2911 4.33093 27.2373L4.61482 25.1669C4.61902 25.1188 4.66163 25.0828 4.71123 25.086L4.85413 25.0955L5.39143 17.7229L4.89043 17.3655C4.86333 17.3474 4.84833 17.3211 4.84833 17.2875V16.0714C4.84833 16.0221 4.88912 15.9819 4.93932 15.9819H5.56773L7.38953 13.6336V13.2984L7.38912 13.2931V12.3346C7.38912 12.2849 7.43003 12.2451 7.48013 12.2451H9.11833C9.16833 12.2451 9.20933 12.2849 9.20933 12.3346C9.20933 12.36 9.19792 12.3834 9.18012 12.3998L8.77963 12.8139L9.18372 13.2315C9.21842 13.2668 9.21672 13.3234 9.18092 13.3575C9.16292 13.3739 9.14043 13.3822 9.11833 13.3822L7.57113 13.3825V13.6484L9.46063 15.9819H10.0511C10.1025 15.9819 10.1441 16.0201 10.1441 16.0714V17.29C10.1441 17.322 10.1274 17.3495 10.1025 17.3655L9.60133 17.7229L9.77422 20.0933ZM9.81262 20.6194H13.7152V20.2722H13.0625C13.0125 20.2722 12.9715 20.2319 12.9715 20.1827V19.5857H12.2262V20.1827C12.2262 20.2319 12.1852 20.2722 12.1351 20.2722H11.0875C11.037 20.2722 10.9965 20.2319 10.9965 20.1827V19.5857H10.251V20.1827C10.251 20.2319 10.2102 20.2722 10.16 20.2722H9.78713L9.81262 20.6194ZM9.83853 20.9747H13.7152V20.7982H9.82562L9.83853 20.9747ZM10.6152 26.8976H11.5438V26.2603C11.5438 26.2108 11.5847 26.1705 11.6349 26.1705H11.664V25.5341C11.664 25.4906 11.6925 25.4532 11.7364 25.4443V25.2383C11.6725 25.2383 11.5918 25.237 11.5918 25.1484V24.4226C11.5918 24.3963 11.6023 24.3729 11.619 24.3561C11.6298 23.9999 11.7284 23.6651 11.8942 23.3721L11.6716 23.2388C11.629 23.213 11.6153 23.158 11.6416 23.1161C11.8257 22.8174 12.0876 22.5491 12.3811 22.3525C12.4224 22.3246 12.4788 22.3348 12.5072 22.3754L12.6537 22.5868C12.8162 22.4871 12.9923 22.4079 13.1795 22.352C13.1118 22.0948 13.0437 21.8379 12.974 21.5815C12.9614 21.5339 12.9907 21.4851 13.0391 21.4727C13.2592 21.417 13.4876 21.3841 13.7152 21.3768V21.1536H9.85143L10.1387 25.0955L10.2815 25.086C10.2815 25.086 10.3726 25.1283 10.3772 25.1628L10.6152 26.8976ZM12.6157 24.5095H11.7739V25.0589H12.6157V24.5095ZM10.3329 26.1734C9.73623 26.2288 9.13962 26.301 8.54112 26.3465C8.54082 26.1434 8.53952 25.5952 8.53652 25.4028C9.09452 25.3646 9.65102 25.3076 10.2089 25.2695L10.3329 26.1734Z" fill="#222222"/>
<path fill-rule="evenodd" clip-rule="evenodd" d="M22.9763 26.3507C22.0242 26.438 21.0735 26.5697 20.1156 26.5697C19.1577 26.5697 18.2068 26.438 17.2548 26.3507L17.143 27.1659C18.1333 27.2271 19.1226 27.3386 20.1156 27.3386C21.1089 27.3386 22.0977 27.2271 23.0882 27.1659L22.9763 26.3507ZM22.0969 17.5903H18.1343L17.839 17.3794H22.3926L22.0969 17.5903ZM22.0417 17.7693L22.5767 25.1086C21.7583 25.1739 20.9369 25.262 20.1156 25.2641C19.2954 25.2625 18.4733 25.1734 17.6549 25.1086L18.1893 17.7693H22.0417ZM17.6498 16.1608H18.1388V16.6757C18.1388 16.7249 18.1797 16.7652 18.2298 16.7652H18.9013C18.9514 16.7652 18.9923 16.7249 18.9923 16.6757V16.1608H19.6846V16.6733C19.6846 16.7241 19.7234 16.7652 19.7756 16.7652H20.4534C20.5051 16.7652 20.5469 16.727 20.5469 16.6757V16.1608H21.2392V16.6733C21.2392 16.7241 21.2777 16.7652 21.3303 16.7652H21.9988C22.0506 16.7652 22.0923 16.727 22.0923 16.6757V16.1608H22.5817V17.2005H17.6498V16.1608ZM21.1611 26.3465C21.7591 26.301 22.3558 26.2288 22.9521 26.1734L22.828 25.2695C22.2706 25.3076 21.714 25.3646 21.1566 25.4028C21.1594 25.5899 21.1608 26.1381 21.1611 26.3465ZM19.2528 26.3596C19.8366 26.3986 20.3958 26.3983 20.9795 26.3596C20.9791 26.1635 20.9774 25.6039 20.9754 25.4147C20.3945 25.4496 19.8374 25.4496 19.2571 25.4147C19.2546 25.6092 19.2533 26.1692 19.2528 26.3596ZM18.32 16.0602L20.1364 13.8167L21.9102 16.1034V16.5863H21.4213V16.0714C21.4213 16.0221 21.3803 15.9819 21.3303 15.9819H20.4559C20.4054 15.9819 20.3649 16.0221 20.3649 16.0714V16.5863H19.8667V16.0738C19.8667 16.0229 19.8278 15.9819 19.7756 15.9819H18.9038C18.8521 15.9819 18.8103 16.0201 18.8103 16.0714V16.5863H18.3208V16.0738C18.3208 16.0688 18.3208 16.0648 18.32 16.0602ZM15.6936 25.4422H14.9962V25.2383H15.6936V25.4422ZM15.7658 26.1705H14.9962V25.6211H15.7658V26.1705ZM15.5628 23.4652C15.7073 23.7233 15.7954 24.0171 15.8096 24.3306H14.9908C14.9787 24.1706 14.9341 24.0196 14.8634 23.8842L15.5628 23.4652ZM14.7682 23.732C14.7043 23.6454 14.6292 23.567 14.5441 23.5001C15.0163 22.8203 15.0017 22.8411 15.2025 22.5515C15.4234 22.7119 15.6142 22.9093 15.7658 23.1341C15.4447 23.3266 15.3666 23.3738 14.7682 23.732ZM14.3875 22.5252C14.5537 22.5752 14.7106 22.6463 14.856 22.7345L14.3941 23.3997C14.3273 23.3618 14.2568 23.3303 14.1833 23.3052C14.2513 23.0455 14.3189 22.7854 14.3875 22.5252ZM13.8968 21.5557C14.0792 21.5618 14.2605 21.5844 14.4392 21.6246C14.2471 22.3525 14.2099 22.4932 14.0075 23.2605C13.9712 23.2539 13.9344 23.2495 13.8968 23.2461V21.5557ZM15.8861 27.1503H14.9962V26.3494H15.8861V27.1503ZM17.7998 20.6194H13.8968V20.2722H14.5495C14.5999 20.2722 14.6405 20.2319 14.6405 20.1827V19.5857H15.3859V20.1827C15.3859 20.2319 15.4267 20.2722 15.4769 20.2722H16.5245C16.5751 20.2722 16.6156 20.2319 16.6156 20.1827V19.5857H17.3609V20.1827C17.3609 20.2319 17.4019 20.2722 17.4519 20.2722H17.8248L17.7998 20.6194ZM17.7739 20.9747H13.8968V20.7982H17.7868L17.7739 20.9747ZM16.9968 26.8976H16.0681V26.2603C16.0681 26.2108 16.0276 26.1705 15.9771 26.1705H15.9479V25.5341C15.9479 25.4906 15.9195 25.4532 15.8757 25.4443V25.2383C15.9399 25.2383 16.0201 25.237 16.0201 25.1484V24.4226C16.0201 24.3963 16.0096 24.3729 15.993 24.3561C15.9821 23.9999 15.8836 23.6651 15.7178 23.3721L15.9404 23.2388C15.9829 23.213 15.9968 23.158 15.9705 23.1161C15.7867 22.8174 15.5245 22.5491 15.2313 22.3525C15.1896 22.3246 15.1332 22.3348 15.1049 22.3754L14.9582 22.5868C14.7962 22.4871 14.6196 22.4079 14.4329 22.352C14.5001 22.0948 14.5682 21.8379 14.6379 21.5815C14.6505 21.5339 14.6212 21.4851 14.5728 21.4727C14.3533 21.417 14.1243 21.3841 13.8968 21.3768V21.1536H17.7605L17.4737 25.0955L17.3305 25.086C17.3305 25.086 17.2395 25.1283 17.2348 25.1628L16.9968 26.8976ZM14.9962 24.5095H15.8377V25.0589H14.9962V24.5095ZM20.2228 12.424V13.2036H21.5579L21.2401 12.8754C21.207 12.8409 21.2067 12.7868 21.2401 12.7522L21.5579 12.424H20.2228ZM20.1318 12.2451H21.7695C21.82 12.2451 21.8605 12.2849 21.8605 12.3346C21.8605 12.36 21.8497 12.3834 21.8317 12.3998L21.4313 12.8139L21.8355 13.2315C21.8697 13.2668 21.8684 13.3234 21.8322 13.3575C21.8146 13.3739 21.7921 13.3822 21.7695 13.3822L20.2228 13.3825V13.6341L22.0443 15.9819H22.6727C22.7228 15.9819 22.7638 16.0221 22.7638 16.0714V17.2875C22.7638 17.3211 22.7492 17.3474 22.7216 17.3655L22.2209 17.7229L22.758 25.0955L22.9007 25.086C22.9504 25.0828 22.993 25.1188 22.9972 25.1669L23.2811 27.2373C23.2886 27.2911 23.2498 27.3329 23.1967 27.3383C22.1696 27.3982 21.1457 27.5176 20.1156 27.5176C19.0858 27.5176 18.062 27.3982 17.0348 27.3383C16.9772 27.335 16.9441 27.287 16.9509 27.2328L16.9722 27.0765H16.0681V27.2398C16.0681 27.2894 16.0276 27.3292 15.9771 27.3292H14.9052C14.8551 27.3292 14.8142 27.2894 14.8142 27.2398C14.8142 26.3002 14.8122 25.3597 14.8122 24.42C14.8122 23.8608 14.3503 23.4209 13.7953 23.4209C13.7156 23.4209 13.7148 23.3852 13.7148 23.3016V20.1827C13.7148 20.131 13.7565 20.0933 13.8083 20.0933H14.4585V19.4963C14.4585 19.445 14.5002 19.4068 14.552 19.4068H15.4769C15.5291 19.4068 15.5679 19.4479 15.5679 19.4984V20.0933H16.4339V19.4963C16.4339 19.445 16.4756 19.4068 16.527 19.4068H17.4519C17.5041 19.4068 17.5429 19.4479 17.5429 19.4984V20.0933H17.8381L18.0106 17.7229L17.51 17.3655C17.4845 17.3495 17.4678 17.322 17.4678 17.29V16.0714C17.4678 16.0201 17.5096 15.9819 17.5609 15.9819H18.1513L20.0408 13.6481V12.3346C20.0408 12.2849 20.0814 12.2451 20.1318 12.2451ZM17.2795 26.1734C17.8761 26.2288 18.4725 26.301 19.0708 26.3465C19.0713 26.1434 19.0729 25.5952 19.0754 25.4028C18.5176 25.3646 17.961 25.3076 17.4035 25.2695L17.2795 26.1734Z" fill="#222222"/>
<path d="M8.2141 19.0288L8.08369 20.723C8.08369 20.7775 8.04199 20.8214 7.98609 20.8214C7.70549 20.8214 7.2867 20.8145 7.0077 20.8235C6.9535 20.8235 6.90959 20.7804 6.90959 20.7275L6.7793 19.0288C6.7793 18.0116 8.2141 18.0083 8.2141 19.0288ZM6.9751 19.0288L7.10549 20.6294H7.8883L8.01859 19.0288C8.01859 18.2591 6.9751 18.2627 6.9751 19.0288ZM20.8371 19.0288L20.7068 20.723C20.7068 20.7775 20.665 20.8214 20.6092 20.8214C20.329 20.8214 19.9097 20.8145 19.6307 20.8235C19.5765 20.8235 19.5331 20.7804 19.5331 20.7275L19.4023 19.0288C19.4023 18.0116 20.8371 18.0083 20.8371 19.0288ZM19.5982 19.0288L19.7285 20.6294H20.5114L20.6417 19.0288C20.6417 18.2591 19.5982 18.2627 19.5982 19.0288Z" fill="#222222"/>
</g>
<defs>
<clipPath id="clip0_4850_45743">
<rect width="28" height="38" fill="white"/>
</clipPath>
</defs>
</svg>
