<svg width="36" height="36" viewBox="0 0 36 36" fill="none" xmlns="http://www.w3.org/2000/svg">
<g clip-path="url(#clip0_4847_45651)">
<path d="M33.8998 30.7862L32.3998 30.0842C32.0998 29.8836 31.7998 29.7833 31.4998 29.4825C34.2998 26.2734 35.7998 22.1617 35.6998 17.9498C35.6998 8.22225 27.7998 0.299805 18.0998 0.299805C15.8998 0.299805 13.7998 0.700941 11.7998 1.50321V4.7123C13.7998 3.80975 15.8998 3.30833 18.0998 3.30833C26.1998 3.30833 32.7998 9.92708 32.7998 18.0501C32.7998 21.4597 31.5998 24.8694 29.3998 27.4768C29.1998 27.1759 28.9998 26.8751 28.7998 26.4739L28.0998 24.9697C27.8998 24.5686 27.3998 24.368 26.9998 24.4683C26.6998 24.5686 26.4998 24.8694 26.4998 25.1703V31.4882C26.4998 31.9896 26.8998 32.2904 27.2998 32.2904H33.5998C34.0998 32.2904 34.3998 31.8893 34.3998 31.3879C34.3998 31.1873 34.1998 30.9867 33.8998 30.7862Z" fill="#8A8A8D"/>
<path d="M18.0827 6.25781C15.7827 6.25781 13.6827 6.85952 11.7827 8.06293V10.6703C11.7827 12.2749 10.4827 13.5786 8.98273 13.5786C8.38273 13.5786 7.88273 13.378 7.38273 13.0771C4.68273 18.9939 7.28273 26.0138 13.1827 28.7214C14.6827 29.4234 16.3827 29.8246 18.0827 29.8246C20.2827 29.8246 22.4827 29.2229 24.3827 27.9192V25.3118C24.3827 23.7072 25.6827 22.4035 27.1827 22.4035C27.7827 22.4035 28.2827 22.6041 28.7827 22.905C29.4827 21.4007 29.7827 19.6959 29.7827 18.0913C29.7827 11.4726 24.5827 6.25781 18.0827 6.25781Z" fill="url(#paint0_radial_4847_45651)"/>
<path d="M2.10454 5.21466L3.60424 5.91686C3.90418 6.11748 4.20412 6.2178 4.50406 6.51874C1.70461 9.72877 0.204911 13.8416 0.304891 18.0548C0.304891 27.7852 8.20334 35.71 17.9014 35.71C20.101 35.71 22.2006 35.3087 24.2002 34.5062V31.2962C22.2006 32.199 20.101 32.7006 17.9014 32.7006C9.80302 32.7006 3.20432 26.0799 3.20432 17.9545C3.20432 14.5438 4.40408 11.1332 6.60365 8.52501C6.80361 8.82595 7.00357 9.12689 7.20354 9.52814L7.9034 11.0328C8.10336 11.4341 8.60326 11.6347 9.00318 11.5344C9.30312 11.4341 9.50308 11.1332 9.50308 10.8322V4.51247C9.50308 4.0109 9.10316 3.70996 8.70324 3.70996H2.40448C1.90458 3.70996 1.60463 4.11121 1.60463 4.61278C1.60463 4.81341 1.8046 5.01403 2.10454 5.21466Z" fill="#00609C"/>
</g>
<defs>
<radialGradient id="paint0_radial_4847_45651" cx="0" cy="0" r="1" gradientUnits="userSpaceOnUse" gradientTransform="translate(16.3347 14.0379) scale(16.109 16.1548)">
<stop stop-color="white"/>
<stop offset="0.139" stop-color="#C9DEEA"/>
<stop offset="0.338" stop-color="#83B2CF"/>
<stop offset="0.517" stop-color="#4A8FBA"/>
<stop offset="0.67" stop-color="#2276AA"/>
<stop offset="0.791" stop-color="#0967A1"/>
<stop offset="0.864" stop-color="#00619D"/>
<stop offset="0.967" stop-color="#00609C"/>
</radialGradient>
<clipPath id="clip0_4847_45651">
<rect width="36" height="36" fill="white"/>
</clipPath>
</defs>
</svg>
