<svg width="40" height="40" viewBox="0 0 40 40" fill="none" xmlns="http://www.w3.org/2000/svg">
<path fill-rule="evenodd" clip-rule="evenodd" d="M10.6101 19.0607L19.4761 10.2145C19.5433 10.1466 19.6234 10.0926 19.7116 10.0558C19.7998 10.019 19.8944 10 19.99 10C20.0856 10 20.1803 10.019 20.2685 10.0558C20.3567 10.0926 20.4367 10.1466 20.504 10.2145L29.3501 19.0607C29.4181 19.1279 29.4721 19.208 29.5089 19.2962C29.5457 19.3844 29.5647 19.479 29.5647 19.5746C29.5647 19.6702 29.5457 19.7649 29.5089 19.8531C29.4721 19.9413 29.4181 20.0213 29.3501 20.0886L22.4469 26.9918L19.9867 24.5315L17.5331 26.9918L10.6101 20.0886C10.5421 20.0213 10.4881 19.9413 10.4513 19.8531C10.4145 19.7649 10.3955 19.6702 10.3955 19.5746C10.3955 19.479 10.4145 19.3844 10.4513 19.2962C10.4881 19.208 10.5421 19.1279 10.6101 19.0607Z" fill="#1A9FDA"/>
<path fill-rule="evenodd" clip-rule="evenodd" d="M0.212202 29.4783L9.05837 20.6122C9.12559 20.5443 9.20562 20.4903 9.29384 20.4535C9.38205 20.4167 9.4767 20.3977 9.57229 20.3977C9.66789 20.3977 9.76253 20.4167 9.85075 20.4535C9.93896 20.4903 10.019 20.5443 10.0862 20.6122L16.9894 27.5353L14.5292 29.9889H0C0.000262456 29.7973 0.0765879 29.6137 0.212202 29.4783Z" fill="#4DB847"/>
<path fill-rule="evenodd" clip-rule="evenodd" d="M30.9218 20.6122L39.7878 29.4783C39.9234 29.6137 39.9998 29.7973 40 29.9889H25.4443L22.9907 27.5353L29.8939 20.6122C29.9611 20.5443 30.0412 20.4903 30.1294 20.4535C30.2176 20.4167 30.3122 20.3977 30.4078 20.3977C30.5034 20.3977 30.5981 20.4167 30.6863 20.4535C30.7745 20.4903 30.8545 20.5443 30.9218 20.6122Z" fill="#4DB847"/>
<path fill-rule="evenodd" clip-rule="evenodd" d="M15.6565 29.9889L19.9867 25.6587L24.3236 29.9889H15.6565Z" fill="#D2AE6D"/>
</svg>
