<svg width="40" height="40" viewBox="0 0 40 40" fill="none" xmlns="http://www.w3.org/2000/svg">
<g clip-path="url(#clip0_792_8600)">
<path d="M18.6833 4.6637L18.4238 4.40622C18.3499 4.33292 18.3353 4.24999 18.38 4.15741C18.487 3.93367 18.6707 3.79963 18.9312 3.75527C19.0537 3.73405 19.0878 3.66847 19.0333 3.55854L18.7912 3.07249C18.7684 3.02795 18.7604 2.97739 18.7682 2.92804C18.7761 2.87869 18.7994 2.83306 18.835 2.79765C19.5544 2.08788 19.9549 1.22766 20.0366 0.217002C20.0374 0.158687 20.0615 0.103066 20.1036 0.0623735C20.1457 0.0216813 20.2024 -0.000748241 20.2612 1.90577e-05C20.3199 0.000786356 20.376 0.0246876 20.417 0.0664649C20.4581 0.108242 20.4807 0.164473 20.4799 0.222788C20.5246 1.05214 20.8231 1.80724 21.3753 2.48809C21.4394 2.56524 21.4929 2.64914 21.5357 2.73979C21.6873 3.05224 21.6727 3.30201 21.4919 3.4891C21.4161 3.56625 21.4239 3.63376 21.5153 3.69162L22.1073 4.07061C22.1283 4.08442 22.146 4.10263 22.1591 4.12396C22.1722 4.14528 22.1805 4.16921 22.1833 4.19404C22.186 4.21887 22.1833 4.24401 22.1752 4.26767C22.1671 4.29134 22.1539 4.31295 22.1365 4.33099L21.7661 4.72156C21.7523 4.73549 21.7433 4.75338 21.7404 4.77269C21.7375 4.79199 21.7408 4.81171 21.7498 4.82904C21.7589 4.84637 21.7732 4.86042 21.7908 4.86917C21.8084 4.87793 21.8283 4.88094 21.8477 4.87779C22.6002 4.77943 22.3698 5.87591 22.1015 6.2144C22.0484 6.28204 21.9736 6.33081 21.8886 6.35327C21.0719 6.57701 20.6947 7.13441 20.757 8.02549C20.7637 8.1157 20.8009 8.20102 20.8626 8.26766C20.9243 8.3343 21.0068 8.37837 21.0968 8.39276C21.1868 8.40714 21.2791 8.39099 21.3587 8.34692C21.4384 8.30285 21.5007 8.23344 21.5357 8.14989C21.979 7.07655 23.1835 6.57604 24.1139 7.57127C24.1819 7.64263 24.2159 7.7275 24.2159 7.82586C24.2218 8.45849 23.9398 9.06604 23.3702 9.64852C22.8938 10.1326 22.4281 10.0912 21.9732 9.52411C21.9455 9.4912 21.9064 9.46943 21.8634 9.46306C21.8204 9.45668 21.7766 9.46615 21.7406 9.48962C21.7045 9.51309 21.6788 9.54888 21.6684 9.59002C21.6581 9.63116 21.6638 9.6747 21.6844 9.71217C21.7505 9.83175 21.8147 9.91372 21.8769 9.95808C21.958 10.0111 22.0147 10.0921 22.0356 10.1846C22.0565 10.2772 22.04 10.3745 21.9895 10.4572C21.939 10.5399 21.8581 10.6017 21.7632 10.6304C21.6682 10.6591 21.5661 10.6525 21.4773 10.6119L20.8328 10.34C20.5548 10.2223 20.4255 10.313 20.4449 10.6119L20.5324 11.9283C20.5402 12.0498 20.4818 12.1105 20.3574 12.1105H20.1416C20.0249 12.1105 19.9695 12.0527 19.9753 11.937L20.0453 10.4788C20.0478 10.4359 20.0373 10.3933 20.0153 10.3563C19.9932 10.3193 19.9606 10.2897 19.9216 10.2711C19.8826 10.2525 19.8388 10.2458 19.796 10.2519C19.7531 10.258 19.713 10.2765 19.6808 10.3053C19.2939 10.6389 18.9021 10.665 18.5054 10.3834C18.4759 10.3626 18.4515 10.3356 18.4339 10.3043C18.4163 10.2729 18.406 10.2381 18.4038 10.2023C18.4015 10.1665 18.4074 10.1307 18.421 10.0974C18.4345 10.0642 18.4554 10.0343 18.4821 10.0102L18.8117 9.70927C18.838 9.68625 18.854 9.65381 18.8561 9.61909C18.8583 9.58437 18.8465 9.5502 18.8233 9.52411C18.8001 9.49803 18.7674 9.48215 18.7324 9.47998C18.6974 9.47781 18.663 9.48952 18.6367 9.51254C17.1609 10.7537 16.213 8.84424 16.3939 7.58574C16.4075 7.48351 16.458 7.4054 16.5455 7.35139C17.5401 6.7207 18.5696 7.17491 19.0158 8.18171C19.0498 8.2587 19.109 8.32206 19.1837 8.36154C19.2585 8.40101 19.3446 8.4143 19.4279 8.39923C19.5113 8.38417 19.587 8.34164 19.643 8.27854C19.6989 8.21544 19.7318 8.13545 19.7362 8.05152C19.7615 7.57127 19.6516 7.12959 19.4066 6.72648C19.3799 6.68369 19.3449 6.64694 19.3037 6.61855C19.2625 6.59016 19.2161 6.57076 19.1675 6.56158C18.2663 6.39956 17.5721 5.17289 18.6425 4.82861C18.7455 4.79582 18.7592 4.74085 18.6833 4.6637Z" fill="#005DAB"/>
<path d="M28.3746 12.0969L29.3429 12.554C29.3699 12.5667 29.3941 12.5846 29.4141 12.6067C29.4341 12.6287 29.4494 12.6545 29.4592 12.6826C29.469 12.7106 29.473 12.7403 29.4711 12.7699C29.4691 12.7995 29.4613 12.8284 29.4479 12.8549L29.2992 13.1587C29.2467 13.2686 29.164 13.2976 29.0513 13.2455C28.9288 13.1876 28.7917 13.177 28.64 13.2137C28.5897 13.2249 28.5501 13.2542 28.5298 13.295C28.5096 13.3358 28.5104 13.3848 28.532 13.4312C28.5537 13.4776 28.5944 13.5176 28.6453 13.5425C28.6962 13.5674 28.753 13.575 28.8034 13.5637C30.5503 13.2108 29.8708 15.7364 29.0046 16.3932C28.9229 16.4549 28.8315 16.4809 28.7304 16.4713C27.593 16.37 27.0826 15.3603 27.4968 14.2986C27.5289 14.2154 27.5328 14.1241 27.5078 14.0386C27.4828 13.9531 27.4302 13.878 27.3582 13.8249C27.2861 13.7718 27.1985 13.7435 27.1087 13.7444C27.0189 13.7453 26.9319 13.7753 26.861 13.8299C26.1668 14.3719 26.0492 15.018 26.5081 15.7683C26.555 15.8445 26.5716 15.9343 26.5547 16.02C26.4167 16.7259 26.0161 17.0017 25.3531 16.8474C25.2676 16.8281 25.2219 16.8619 25.216 16.9486L25.184 17.3479C25.1804 17.3939 25.1612 17.4374 25.1293 17.471C25.0975 17.5047 25.055 17.5266 25.009 17.5331C24.7659 17.5658 24.5725 17.4887 24.4286 17.3016C24.4146 17.2833 24.3953 17.2696 24.3732 17.2625C24.3512 17.2554 24.3275 17.2551 24.3053 17.2617C24.283 17.2683 24.2634 17.2815 24.249 17.2995C24.2345 17.3175 24.226 17.3394 24.2244 17.3624C24.205 17.6343 24.0874 17.8532 23.8715 18.0191C23.7957 18.075 23.7111 18.1059 23.6178 18.1117C22.6417 18.1657 21.7833 18.5061 21.0425 19.1329C21.0159 19.1559 20.983 19.1703 20.948 19.1744C20.9129 19.1784 20.8775 19.1719 20.8463 19.1556C20.8151 19.1394 20.7896 19.1142 20.7731 19.0833C20.7566 19.0524 20.7498 19.0172 20.7538 18.9825C20.7557 18.9478 20.7557 18.916 20.7538 18.887C20.7499 18.8465 20.7616 18.8108 20.7888 18.78C21.4421 18.0471 21.7697 17.1878 21.7717 16.2022C21.7717 16.0865 21.8251 16.0036 21.9321 15.9534L22.422 15.7249C22.5173 15.6786 22.5504 15.6053 22.5212 15.505L22.3579 14.9698C22.3499 14.9439 22.3479 14.9167 22.3521 14.89C22.3562 14.8633 22.3663 14.8379 22.3818 14.8156C22.3972 14.7934 22.4175 14.7749 22.4411 14.7615C22.4647 14.7481 22.4911 14.7402 22.5183 14.7383L22.9616 14.7036C23.0569 14.6959 23.0909 14.6467 23.0637 14.5561C22.8731 13.9022 23.1531 13.5174 23.9036 13.4017C24.0028 13.3863 24.0951 13.4036 24.1807 13.4538C24.9759 13.9051 25.6545 13.7334 26.2164 12.9388C26.2428 12.9009 26.2551 12.8552 26.2514 12.8093C26.2477 12.7635 26.2281 12.7203 26.196 12.6871C25.9491 12.4267 25.6399 12.3804 25.2685 12.5482C25.1791 12.5868 25.0858 12.6042 24.9886 12.6003C24.0261 12.5598 23.5079 12.0776 23.4341 11.1538C23.4263 11.0515 23.4555 10.9628 23.5216 10.8876C24.1146 10.2222 24.8651 9.9782 25.7731 10.1556C26.7355 10.3437 26.1056 11.1972 26.5139 11.3534C26.5454 11.3648 26.5796 11.3664 26.6121 11.3582C26.6446 11.3499 26.6738 11.3321 26.6959 11.307C26.718 11.282 26.7319 11.2509 26.7359 11.2179C26.7398 11.1849 26.7336 11.1514 26.7181 11.1219C26.5722 10.8558 26.6617 10.6648 26.9864 10.5491C27.1128 10.5047 27.2236 10.5289 27.3189 10.6214C27.5638 10.8606 27.7067 11.1538 27.7476 11.5009C27.7513 11.5328 27.764 11.5629 27.7844 11.5877C27.8048 11.6126 27.832 11.6311 27.8626 11.6412C27.8933 11.6512 27.9262 11.6523 27.9575 11.6444C27.9888 11.6365 28.0172 11.6198 28.0392 11.5964L29.1096 10.4594C29.199 10.3668 29.2865 10.3688 29.3721 10.4652L29.5179 10.633C29.5996 10.7275 29.5908 10.8124 29.4916 10.8876C29.0775 11.1981 28.6945 11.5434 28.3425 11.9233C28.2725 11.9966 28.2832 12.0545 28.3746 12.0969Z" fill="#005DAB"/>
<path d="M13.6842 11.3732C13.6876 11.3954 13.6965 11.4164 13.71 11.4343C13.7236 11.4522 13.7414 11.4666 13.7619 11.476C13.7824 11.4855 13.8049 11.4898 13.8275 11.4885C13.8501 11.4872 13.872 11.4804 13.8912 11.4687C14.1858 11.2893 13.8067 10.4185 14.5562 10.2247C15.505 9.97778 16.2906 10.2796 16.9127 11.1302C16.9385 11.1659 16.957 11.206 16.967 11.2482C16.977 11.2904 16.9784 11.3339 16.9711 11.3761C16.8175 12.2402 16.2789 12.6963 15.3553 12.7446C15.2614 12.7484 15.1673 12.7295 15.0812 12.6896C14.7429 12.5353 14.4454 12.569 14.1887 12.7908C14.1012 12.8641 14.0886 12.948 14.1508 13.0425C14.6777 13.8314 15.3417 14.0156 16.1428 13.5951C16.2322 13.5469 16.3275 13.5286 16.4286 13.5402C17.1869 13.6231 17.4805 14.0098 17.3094 14.7003C17.2841 14.8064 17.3259 14.8507 17.4348 14.8334L17.7906 14.7726C17.8128 14.7691 17.8354 14.7705 17.8569 14.7769C17.8784 14.7833 17.8982 14.7944 17.9147 14.8094C17.9313 14.8245 17.9442 14.843 17.9525 14.8637C17.9608 14.8844 17.9643 14.9066 17.9627 14.9288L17.9014 15.7187C17.8975 15.7785 17.9219 15.8199 17.9743 15.8431C18.5771 16.1189 18.8143 16.6088 18.686 17.3128C18.6685 17.4169 18.6869 17.5134 18.7414 17.6021L19.628 19.0371C19.652 19.0741 19.6616 19.1186 19.6551 19.1622C19.6486 19.2058 19.6264 19.2456 19.5926 19.2742C19.5588 19.3028 19.5157 19.3182 19.4712 19.3177C19.4268 19.3172 19.3841 19.3008 19.3509 19.2714C18.5888 18.6214 17.7031 18.2781 16.694 18.2415C16.5812 18.2376 16.4976 18.1865 16.4432 18.0881L16.1894 17.6397C16.1428 17.5568 16.0718 17.523 15.9765 17.5384L15.3641 17.6281C15.3375 17.6323 15.3103 17.6307 15.2844 17.6235C15.2584 17.6162 15.2344 17.6035 15.2139 17.5862C15.1934 17.5689 15.1769 17.5474 15.1656 17.5232C15.1543 17.4989 15.1483 17.4726 15.1483 17.4458V17.1045C15.1483 16.9926 15.0928 16.9492 14.982 16.9743C14.3326 17.1189 13.9505 16.8422 13.8358 16.144C13.8209 16.0562 13.8385 15.9649 13.8854 15.8865C14.3618 15.0822 14.1907 14.4013 13.3721 13.8439C13.2768 13.7803 13.1893 13.7899 13.1096 13.8729C12.853 14.1371 12.815 14.4476 12.9959 14.8044C13.0445 14.897 13.0649 14.9954 13.0571 15.0995C12.993 15.9964 12.5185 16.4998 11.6339 16.6097C11.5405 16.6213 11.4569 16.5982 11.383 16.5403C10.4498 15.8286 9.76146 13.4592 11.6426 13.6559C11.7029 13.6617 11.7418 13.6356 11.7593 13.5778C11.767 13.5527 11.7748 13.5286 11.7826 13.5054C11.7943 13.4611 11.7826 13.4254 11.7476 13.3984C11.6212 13.3077 11.4939 13.3068 11.3655 13.3955C11.287 13.4576 11.1936 13.4819 11.1058 13.4632C11.0181 13.4444 10.9431 13.3841 10.8975 13.2955C10.8518 13.2068 10.8393 13.0972 10.8625 12.9906C10.8857 12.884 10.9429 12.7893 11.0214 12.7272C11.2955 12.4842 11.6134 12.3424 11.9751 12.3019C12.0045 12.2983 12.0323 12.2864 12.0551 12.2676C12.0779 12.2488 12.0948 12.2239 12.1037 12.1958C12.1126 12.1678 12.1132 12.1377 12.1054 12.1094C12.0976 12.081 12.0817 12.0554 12.0597 12.0357L10.8522 10.945C10.7822 10.8833 10.7774 10.8158 10.8377 10.7425L10.9631 10.5892C11.0622 10.4696 11.1643 10.4667 11.2693 10.5805L12.3134 11.7175C12.3385 11.7449 12.3712 11.7644 12.4075 11.7734C12.4437 11.7824 12.4818 11.7807 12.517 11.7683C12.5522 11.756 12.5829 11.7336 12.6053 11.7039C12.6277 11.6743 12.6408 11.6388 12.643 11.6018C12.6644 11.2565 12.8053 10.9605 13.0659 10.7136C13.1296 10.653 13.2122 10.6152 13.3002 10.6064C13.3882 10.5976 13.4766 10.6183 13.5511 10.6651C13.6256 10.7119 13.6818 10.7821 13.7107 10.8644C13.7396 10.9467 13.7395 11.0362 13.7104 11.1186C13.6812 11.2035 13.6725 11.2884 13.6842 11.3732Z" fill="#005DAB"/>
<path d="M10.4675 19.4248L12.0686 19.393C12.1736 19.391 12.2261 19.4422 12.2261 19.5463V19.7951C12.2261 19.9031 12.1717 19.9562 12.0628 19.9542L10.412 19.9108C10.3818 19.9103 10.352 19.9185 10.3262 19.9344C10.3005 19.9503 10.28 19.9732 10.267 20.0004C10.2541 20.0275 10.2494 20.0578 10.2533 20.0876C10.2573 20.1174 10.2699 20.1454 10.2896 20.1683C10.5404 20.448 10.6522 20.7701 10.6249 21.1346C10.6207 21.1912 10.6007 21.2454 10.5673 21.2914C10.5338 21.3374 10.4882 21.3732 10.4354 21.395C10.1476 21.5107 9.93762 21.4201 9.80541 21.123C9.79818 21.1069 9.78715 21.0928 9.77325 21.0818C9.75935 21.0708 9.74299 21.0633 9.72554 21.0599C9.7081 21.0565 9.69008 21.0573 9.67302 21.0622C9.65596 21.0672 9.64034 21.0761 9.6275 21.0883L9.56334 21.152C9.53029 21.1867 9.5264 21.2233 9.55167 21.2619L10.0416 21.9852C10.0673 22.0219 10.0825 22.0649 10.0855 22.1097C10.0886 22.1545 10.0795 22.1994 10.0591 22.2398C9.56723 23.2138 8.78366 23.6478 7.70844 23.5417C7.61506 23.5307 7.53036 23.485 7.4722 23.4144C6.93556 22.7567 6.92779 22.1096 7.44887 21.4731C7.71427 21.1491 8.15466 21.0768 8.34715 20.663C8.37025 20.6135 8.38103 20.5592 8.37859 20.5046C8.37616 20.4501 8.36057 20.397 8.33315 20.3496C8.30572 20.3023 8.26726 20.2622 8.22098 20.2327C8.1747 20.2031 8.12195 20.185 8.06717 20.1799C7.17277 20.1008 6.61281 20.4808 6.38726 21.3198C6.36199 21.4162 6.30754 21.4924 6.22394 21.5483C5.73688 21.8724 5.04858 21.936 4.82401 21.2706C4.79485 21.1857 4.74818 21.1732 4.68402 21.233L4.40404 21.4905C4.36507 21.5252 4.31552 21.5458 4.26356 21.549C4.2116 21.5521 4.16034 21.5376 4.11822 21.5078C3.91795 21.3709 3.7906 21.179 3.73616 20.9321C3.71282 20.8299 3.65449 20.8038 3.56117 20.854L3.11786 21.0883C3.06026 21.1187 2.99441 21.13 2.92989 21.1206C2.86537 21.1112 2.80554 21.0817 2.75913 21.0363C2.04361 20.3438 1.1813 19.9629 0.172184 19.8935C0.124445 19.8905 0.0797614 19.8689 0.0476294 19.8333C0.0154973 19.7976 -0.00154949 19.7507 0.00011084 19.7025C0.00788819 19.5521 0.0739947 19.4692 0.198432 19.4537C1.24254 19.3419 2.10486 18.9571 2.78538 18.2994C2.86509 18.2222 2.95551 18.2049 3.05661 18.2473L3.5495 18.4527C3.63505 18.4894 3.69921 18.4662 3.74199 18.3833L3.92865 18.0159C3.98114 17.9136 4.06475 17.8538 4.17947 17.8365C4.36029 17.8095 4.49931 17.8731 4.59653 18.0274C4.67041 18.147 4.74624 18.1489 4.82401 18.0332C5.20316 17.47 5.68244 17.4006 6.26185 17.8249C6.33963 17.8808 6.38823 17.9561 6.40768 18.0506C6.58072 18.8934 7.13292 19.2512 8.06425 19.1239C8.15097 19.1121 8.23131 19.0721 8.29275 19.0103C8.35419 18.9485 8.39328 18.8682 8.40393 18.782C8.41458 18.6958 8.39619 18.6086 8.35164 18.5338C8.30708 18.4591 8.23885 18.4011 8.15758 18.3688C7.29721 18.0303 6.79266 17.0756 7.21847 16.2395C7.90385 14.8826 11.2053 16.8036 9.55459 18.0419C9.5323 18.0586 9.517 18.0829 9.51162 18.1101C9.50624 18.1374 9.51116 18.1656 9.52542 18.1894L9.57209 18.2676C9.57986 18.2816 9.59133 18.2932 9.60532 18.3012C9.61931 18.3091 9.6353 18.3132 9.65165 18.3129C9.668 18.3126 9.68412 18.308 9.69833 18.2995C9.71254 18.291 9.72434 18.279 9.7325 18.2647C9.88221 17.9831 10.1116 17.8625 10.4208 17.903C10.5141 17.9146 10.5705 17.9667 10.59 18.0593C10.6736 18.4759 10.5919 18.8549 10.345 19.1962C10.3292 19.2181 10.32 19.2439 10.3182 19.2708C10.3164 19.2976 10.3222 19.3244 10.335 19.3481C10.3477 19.3718 10.3668 19.3916 10.3902 19.4051C10.4136 19.4187 10.4404 19.4255 10.4675 19.4248Z" fill="#005DAB"/>
<path d="M35.2662 18.1224L35.6803 17.8157C35.7052 17.797 35.7339 17.7838 35.7643 17.7772C35.7948 17.7705 35.8264 17.7704 35.8569 17.7771C35.8874 17.7837 35.9161 17.7967 35.941 17.8154C35.9659 17.8341 35.9864 17.8579 36.0012 17.8852L36.287 18.432C36.2981 18.4535 36.3144 18.4719 36.3344 18.4857C36.3544 18.4995 36.3775 18.5082 36.4017 18.5111C36.4259 18.5139 36.4504 18.5109 36.4731 18.5021C36.4959 18.4934 36.5161 18.4792 36.532 18.4609C36.6545 18.3201 36.81 18.2487 36.9986 18.2468C37.1109 18.2467 37.2193 18.2891 37.3019 18.3654C38.0135 19.0173 38.8554 19.3828 39.8276 19.4619C39.8768 19.4664 39.9224 19.4895 39.9545 19.5262C39.9867 19.5629 40.0029 19.6105 39.9997 19.6586C39.9939 19.7773 39.8889 19.8872 39.7722 19.8959C38.9167 19.9672 38.1662 20.2758 37.5207 20.8217C37.1619 21.1254 36.8644 21.1949 36.4882 20.8998C36.4182 20.8439 36.3589 20.8535 36.3103 20.9287L35.9545 21.4871C35.9394 21.5106 35.9194 21.5308 35.8959 21.5462C35.8725 21.5616 35.846 21.572 35.8182 21.5766C35.7905 21.5812 35.762 21.58 35.7348 21.5731C35.7075 21.5661 35.682 21.5536 35.6599 21.5363L35.3799 21.3193C35.3022 21.2556 35.2351 21.2653 35.1787 21.3482C34.8151 21.8844 34.3465 21.9336 33.7729 21.4958C33.6893 21.4321 33.633 21.3492 33.6038 21.247C33.3646 20.3906 32.7677 20.055 31.8131 20.2402C31.7701 20.249 31.7299 20.2681 31.6961 20.2959C31.6623 20.3237 31.6359 20.3593 31.6192 20.3996C31.6026 20.4398 31.5961 20.4835 31.6004 20.5269C31.6047 20.5702 31.6196 20.6118 31.6439 20.6481C32.2622 21.5652 33.7642 22.0021 32.5305 23.411C32.4663 23.4862 32.3847 23.5287 32.2855 23.5383C31.2268 23.6367 28.8965 22.41 30.4569 21.3366C30.489 21.3144 30.5112 21.281 30.5186 21.2431C30.5261 21.2053 30.5184 21.166 30.4971 21.1334C30.4757 21.1007 30.4424 21.0772 30.404 21.0676C30.3656 21.0581 30.325 21.0632 30.2906 21.0821C30.1993 21.138 30.1215 21.2122 30.0573 21.3048C30.0083 21.375 29.9373 21.427 29.8554 21.4527C29.7734 21.4785 29.6851 21.4765 29.6041 21.4472C29.5231 21.4179 29.4538 21.3628 29.4071 21.2905C29.3604 21.2183 29.3388 21.1328 29.3457 21.0473C29.3748 20.7175 29.4954 20.4263 29.7073 20.1736C29.727 20.15 29.7393 20.1214 29.7429 20.091C29.7466 20.0606 29.7413 20.0299 29.7278 20.0024C29.7142 19.9749 29.693 19.9519 29.6666 19.9361C29.6402 19.9203 29.6098 19.9124 29.579 19.9132L27.9866 19.9451C27.8816 19.947 27.8291 19.8959 27.8291 19.7917V19.54C27.8291 19.4339 27.8835 19.3828 27.9924 19.3867L29.5265 19.4417C29.56 19.4425 29.5931 19.4339 29.622 19.4169C29.6508 19.3998 29.6742 19.3751 29.6894 19.3454C29.7047 19.3158 29.7111 19.2825 29.7081 19.2493C29.7051 19.2162 29.6927 19.1846 29.6723 19.1581C29.4487 18.8765 29.3486 18.5612 29.3719 18.2121C29.3782 18.1284 29.4127 18.0467 29.4696 17.9811C29.5264 17.9155 29.602 17.8702 29.6831 17.853C29.7642 17.8358 29.8458 17.8478 29.9136 17.887C29.9815 17.9262 30.0313 17.99 30.0544 18.0674C30.0952 18.2063 30.1876 18.2719 30.3315 18.2642C30.3661 18.262 30.3993 18.2494 30.4266 18.2281C30.4539 18.2068 30.4741 18.1779 30.4846 18.145C30.495 18.1121 30.4951 18.0769 30.485 18.044C30.4748 18.011 30.4549 17.9819 30.4277 17.9604C29.0074 16.8726 31.2268 15.6777 32.2418 15.7848C32.3487 15.7964 32.4391 15.8417 32.513 15.9208C33.0574 16.4994 33.1051 17.1175 32.6559 17.7752C32.3934 18.1542 31.9851 18.2295 31.6906 18.6027C31.653 18.6506 31.629 18.7076 31.6208 18.7678C31.6126 18.8279 31.6207 18.8892 31.644 18.9453C31.6674 19.0014 31.7054 19.0504 31.754 19.0873C31.8026 19.1241 31.8602 19.1476 31.921 19.1552C32.8484 19.269 33.4171 18.8862 33.6271 18.0067C33.6391 17.9582 33.6611 17.9127 33.6917 17.8728C33.7223 17.833 33.7609 17.7998 33.805 17.7752C34.1842 17.564 35.1087 17.3962 35.1554 18.0732C35.1593 18.1581 35.1962 18.1745 35.2662 18.1224Z" fill="#005DAB"/>
<path d="M12.8793 26.0557C12.9006 26.0874 12.9282 26.1146 12.9604 26.1355C12.9925 26.1564 13.0286 26.1707 13.0665 26.1774C13.1043 26.1842 13.1432 26.1833 13.1807 26.1748C13.2182 26.1663 13.2535 26.1504 13.2847 26.128C14.0041 25.6092 14.1703 24.966 13.7834 24.1983C13.7376 24.1093 13.7174 24.0083 13.7251 23.9061C13.7776 23.179 14.1655 22.8781 14.8888 23.0035C14.9022 23.0056 14.9159 23.0048 14.929 23.0011C14.942 22.9974 14.9541 22.9909 14.9644 22.9821C14.9747 22.9732 14.9829 22.9623 14.9885 22.95C14.994 22.9377 14.9968 22.9244 14.9967 22.9109V22.6505C14.9967 22.5444 15.0463 22.4721 15.1454 22.4335C15.3846 22.3371 15.6218 22.3747 15.857 22.5464C15.8771 22.5611 15.9008 22.5702 15.9257 22.5726C15.9506 22.5749 15.9756 22.5705 15.9981 22.5598C16.0206 22.5491 16.0398 22.5325 16.0535 22.5117C16.0671 22.491 16.0749 22.467 16.0758 22.4422C16.0933 21.9764 16.3091 21.7826 16.7816 21.7508C17.6313 21.6968 18.3866 21.394 19.0477 20.8423C19.0862 20.8111 19.1319 20.7897 19.1808 20.7801C19.2296 20.7706 19.2801 20.773 19.3277 20.7874L19.4385 20.825C19.4597 20.8312 19.4788 20.8427 19.4941 20.8584C19.5095 20.8741 19.5206 20.8936 19.5264 20.9149C19.5322 20.9362 19.5326 20.9588 19.5274 20.9805C19.5222 21.0022 19.5117 21.0223 19.4968 21.0391C18.8008 21.7971 18.4459 22.692 18.4323 23.7239C18.4304 23.8338 18.3769 23.9081 18.2719 23.9466L17.7907 24.1289C17.6993 24.1617 17.6663 24.2244 17.6915 24.317L17.8636 24.965C17.8706 24.9915 17.8715 25.0193 17.8663 25.0462C17.861 25.0731 17.8497 25.0985 17.8331 25.1204C17.8166 25.1424 17.7953 25.1604 17.7707 25.1731C17.7462 25.1857 17.7192 25.1927 17.6915 25.1936L17.2803 25.2051C17.1267 25.209 17.0839 25.2794 17.152 25.4163L17.2395 25.5986C17.2803 25.6854 17.2754 25.7703 17.2249 25.8532C16.7757 26.5552 16.2255 26.67 15.5741 26.1975C15.5302 26.1648 15.4795 26.142 15.4257 26.1305C15.3718 26.119 15.316 26.1192 15.2621 26.1309C14.7527 26.2428 14.3375 26.5003 14.0167 26.9034C13.9859 26.942 13.9698 26.9902 13.9714 27.0395C13.973 27.0888 13.9922 27.1359 14.0255 27.1724C14.2821 27.454 14.5796 27.508 14.9179 27.3345C14.9996 27.294 15.0861 27.2737 15.1775 27.2737C16.1399 27.2756 16.6727 27.7443 16.7757 28.6797C16.7869 28.7654 16.7651 28.853 16.7145 28.9257C16.2867 29.5506 15.6607 29.8466 14.8363 29.8138C13.4947 29.7589 14.1684 28.6045 13.6288 28.5264C13.6047 28.5229 13.5801 28.5259 13.5575 28.5349C13.535 28.544 13.5152 28.5589 13.5004 28.5781C13.4855 28.5972 13.4761 28.6199 13.473 28.6439C13.47 28.6679 13.4734 28.6923 13.483 28.7145C13.6036 28.9845 13.5394 29.1957 13.2905 29.3481C13.2011 29.404 13.1146 29.4001 13.031 29.3365C12.681 29.0761 12.4826 28.7251 12.436 28.2834C12.4346 28.2683 12.429 28.2538 12.4198 28.2417C12.4106 28.2296 12.3981 28.2203 12.3838 28.2149C12.3696 28.2095 12.354 28.2081 12.339 28.211C12.324 28.2139 12.3101 28.221 12.2989 28.2313C11.8673 28.5959 11.4803 28.9999 11.1381 29.4435C11.0915 29.5053 11.0351 29.5159 10.969 29.4754L10.6657 29.2844C10.645 29.2712 10.628 29.2531 10.6162 29.2318C10.6043 29.2105 10.598 29.1866 10.5977 29.1622C10.5974 29.1379 10.6032 29.1138 10.6145 29.0922C10.6259 29.0707 10.6424 29.0522 10.6627 29.0385C11.1119 28.7376 11.5085 28.3818 11.8527 27.9709C11.8741 27.945 11.8882 27.9137 11.8934 27.8805C11.8986 27.8473 11.8946 27.8135 11.882 27.7825C11.8695 27.7516 11.8487 27.7248 11.8219 27.705C11.7952 27.6852 11.7635 27.6731 11.7302 27.6701C11.388 27.6353 11.0993 27.4994 10.864 27.2621C10.804 27.2021 10.7662 27.1239 10.7565 27.0399C10.7469 26.956 10.766 26.8713 10.8108 26.7995C10.8556 26.7276 10.9235 26.6728 11.0035 26.6439C11.0835 26.615 11.171 26.6137 11.2519 26.6401C11.4269 26.696 11.5581 26.6526 11.6456 26.5099C11.6588 26.4888 11.6656 26.4646 11.6653 26.4398C11.665 26.415 11.6577 26.3908 11.644 26.3697C11.6304 26.3487 11.611 26.3317 11.5881 26.3207C11.5652 26.3097 11.5397 26.3051 11.5144 26.3074C9.56905 26.507 10.2982 24.1 11.3044 23.449C11.386 23.3969 11.4745 23.3786 11.5698 23.3941C12.3845 23.5271 12.82 24.0074 12.8764 24.8348C12.9055 25.263 12.5701 25.6015 12.8793 26.0557Z" fill="#005DAB"/>
<path d="M28.5175 28.1566L29.6112 29.1142C29.7181 29.2087 29.7133 29.2974 29.5966 29.3804L29.3954 29.525C29.302 29.5906 29.2233 29.5781 29.1591 29.4874C28.8441 29.0457 28.4738 28.6523 28.0479 28.307C28.0292 28.2917 28.0064 28.2819 27.9822 28.2789C27.958 28.2759 27.9335 28.2798 27.9115 28.2901C27.8895 28.3004 27.8709 28.3168 27.8578 28.3372C27.8448 28.3576 27.8379 28.3812 27.838 28.4054C27.8321 28.7911 27.6805 29.1055 27.383 29.3486C27.3272 29.3941 27.2589 29.4219 27.1869 29.4283C27.1149 29.4347 27.0427 29.4193 26.9797 29.3843C26.9166 29.3493 26.8657 29.2962 26.8336 29.232C26.8015 29.1678 26.7897 29.0955 26.7997 29.0245C26.8269 28.8297 26.8094 28.6417 26.7472 28.4604C26.7416 28.443 26.7304 28.4282 26.7153 28.4183C26.7001 28.4084 26.6819 28.4039 26.6635 28.4055C26.6451 28.4072 26.6276 28.4149 26.6137 28.4275C26.5998 28.44 26.5903 28.4567 26.5868 28.4748C26.5479 28.7333 26.5071 28.9937 26.4643 29.256C26.4435 29.3821 26.3857 29.4995 26.2981 29.5936C26.2105 29.6877 26.0969 29.7544 25.9714 29.7854C24.9778 30.0284 24.1865 29.7594 23.5974 28.9782C23.5312 28.8914 23.5069 28.794 23.5244 28.686C23.6683 27.822 24.205 27.3716 25.1344 27.335C25.2335 27.3311 25.3268 27.3542 25.4143 27.4044C25.6321 27.5259 25.8576 27.5249 26.091 27.4015C26.3573 27.2588 26.3943 27.0717 26.2018 26.8402C25.6496 26.1806 25.0041 26.0649 24.2652 26.4931C24.1797 26.5413 24.0873 26.5586 23.9882 26.5451C23.2649 26.4468 22.9771 26.0446 23.1249 25.3387C23.1463 25.2326 23.1025 25.1873 22.9936 25.2027L22.7778 25.2317C22.7346 25.2375 22.6907 25.229 22.6531 25.2075C22.6156 25.186 22.5866 25.1527 22.5707 25.1131C22.4696 24.8585 22.4959 24.6 22.6495 24.3377C22.6567 24.3248 22.6603 24.3102 22.66 24.2955C22.6597 24.2808 22.6555 24.2664 22.6478 24.2538C22.6401 24.2412 22.6292 24.2308 22.6162 24.2237C22.6032 24.2166 22.5885 24.213 22.5737 24.2133C21.722 24.2162 21.8562 23.2788 21.7366 22.7407C21.585 22.0493 21.1037 21.5921 20.815 20.9383C20.8048 20.9143 20.8025 20.8878 20.8083 20.8624C20.8141 20.837 20.8278 20.8141 20.8475 20.7969C20.8671 20.7796 20.8917 20.7689 20.9178 20.7663C20.9439 20.7636 20.9701 20.7691 20.9929 20.7821L22.4687 21.6471C22.5562 21.6992 22.6514 21.7281 22.7545 21.7339C23.4282 21.7657 24.1748 21.7455 24.2827 22.4659C24.2963 22.5642 24.3508 22.6009 24.4461 22.5758L25.0585 22.4167C25.0817 22.4107 25.1059 22.4094 25.1296 22.4129C25.1533 22.4164 25.176 22.4246 25.1965 22.437C25.2169 22.4494 25.2346 22.4658 25.2485 22.4852C25.2624 22.5046 25.2721 22.5265 25.2773 22.5498L25.3735 22.9606C25.391 23.0416 25.4416 23.0763 25.5252 23.0647C26.196 22.9683 26.5537 23.2759 26.5984 23.9876C26.6041 24.086 26.5819 24.1851 26.5343 24.274C26.1337 25.0147 26.2971 25.6502 27.0243 26.1806C27.0707 26.2138 27.1253 26.234 27.1823 26.2392C27.2392 26.2444 27.2966 26.2344 27.3484 26.2102C27.4001 26.1859 27.4444 26.1484 27.4767 26.1015C27.5089 26.0546 27.5279 26 27.5317 25.9434C27.5609 25.4747 27.3771 25.1449 27.4588 24.7138C27.5949 23.9886 28.0382 23.571 28.7887 23.4611C28.8801 23.4476 28.9628 23.4678 29.0366 23.5218C29.933 24.1834 30.2198 24.9935 29.897 25.952C29.6958 26.5451 28.6633 26.1893 28.7012 26.6059C28.7031 26.6267 28.7097 26.6468 28.7207 26.6646C28.7316 26.6825 28.7465 26.6976 28.7643 26.7087C28.7821 26.7199 28.8022 26.7269 28.8231 26.7291C28.8441 26.7314 28.8652 26.7288 28.885 26.7216L29.0804 26.6493C29.1795 26.6161 29.2875 26.6214 29.3829 26.664C29.4782 26.7066 29.5538 26.7834 29.5944 26.879C29.635 26.9746 29.6377 27.0819 29.6018 27.1793C29.566 27.2768 29.4943 27.3572 29.4012 27.4044L28.57 27.7921C28.5366 27.8075 28.5076 27.831 28.4857 27.8604C28.4637 27.8897 28.4495 27.924 28.4443 27.9602C28.4391 27.9964 28.443 28.0333 28.4558 28.0676C28.4686 28.1019 28.4898 28.1325 28.5175 28.1566Z" fill="#005DAB"/>
<path d="M18.5812 35.2146C17.9454 35.0468 18.0883 34.2251 18.4004 33.8201C18.4626 33.741 18.5433 33.6899 18.6424 33.6668C19.4649 33.4797 19.8256 32.9232 19.7245 31.9974C19.7151 31.9154 19.6787 31.8387 19.621 31.7792C19.5633 31.7198 19.4874 31.6807 19.4052 31.6682C19.3229 31.6557 19.2388 31.6704 19.1658 31.7101C19.0928 31.7497 19.0349 31.812 19.0012 31.8875C18.5491 32.903 17.4146 33.4151 16.5192 32.6166C16.4453 32.551 16.4016 32.4681 16.388 32.3678C16.2305 31.1932 17.3008 29.275 18.6074 30.5451C18.6349 30.5743 18.6729 30.5914 18.7131 30.5928C18.7533 30.5941 18.7924 30.5796 18.8218 30.5523C18.8512 30.5251 18.8685 30.4874 18.8699 30.4475C18.8712 30.4076 18.8566 30.3689 18.8291 30.3397C18.763 30.2626 18.6804 30.2028 18.5812 30.1603C18.509 30.1298 18.4493 30.0765 18.4111 30.0086C18.373 29.9408 18.3586 29.8622 18.3703 29.7851C18.3819 29.708 18.4189 29.6366 18.4754 29.5821C18.532 29.5275 18.6051 29.4928 18.6833 29.4833C19.0896 29.4371 19.4474 29.547 19.7565 29.8132C19.7826 29.8354 19.8147 29.8495 19.8488 29.8537C19.8828 29.858 19.9174 29.8522 19.9482 29.8371C19.979 29.822 20.0046 29.7982 20.0219 29.7687C20.0391 29.7393 20.0473 29.7054 20.0453 29.6714L19.9782 28.138C19.9763 28.0999 19.9827 28.0619 19.9971 28.0265C20.0115 27.9911 20.0334 27.9592 20.0614 27.9331C20.0895 27.9069 20.1229 27.8871 20.1594 27.8751C20.1958 27.863 20.2345 27.859 20.2728 27.8632C20.7073 27.9124 20.4536 29.2259 20.474 29.6338C20.4753 29.6577 20.4822 29.681 20.4942 29.7018C20.5062 29.7225 20.5229 29.7403 20.543 29.7535C20.5632 29.7667 20.5861 29.7751 20.6101 29.7779C20.6341 29.7807 20.6584 29.7779 20.6811 29.7698L21.5998 29.4342C21.6562 29.4137 21.7181 29.4135 21.775 29.4335C21.8319 29.4536 21.8803 29.4927 21.9118 29.5441C22.1199 29.8855 22.0518 30.1353 21.7077 30.2934C21.6858 30.303 21.6668 30.3181 21.6526 30.3372C21.6384 30.3563 21.6294 30.3788 21.6265 30.4026C21.6235 30.4264 21.6268 30.4506 21.6359 30.473C21.645 30.4955 21.6597 30.5153 21.6785 30.5306C21.731 30.574 21.8652 30.5711 21.906 30.5162C23.0493 29.0986 24.9071 31.7313 23.9272 32.6976C23.2068 33.4064 21.9206 32.8393 21.5969 32.0466C21.5589 31.9553 21.497 31.8756 21.4176 31.8156C21.3382 31.7557 21.2441 31.7176 21.1448 31.7052C20.9377 31.6821 20.8065 31.8325 20.7832 32.0351C20.6762 32.9628 21.0894 33.526 22.0227 33.7246C22.0687 33.7339 22.1109 33.7564 22.1441 33.7893C22.1773 33.8223 22.2 33.8642 22.2093 33.9098L22.3843 34.743C22.4096 34.8568 22.3707 34.9426 22.2677 35.0005L21.9118 35.1972C21.8107 35.2532 21.7952 35.3264 21.8652 35.4171L22.1452 35.7729C22.1632 35.7963 22.1758 35.8233 22.182 35.8521C22.1881 35.8809 22.1877 35.9107 22.1807 35.9393C22.1737 35.9679 22.1603 35.9945 22.1415 36.0173C22.1228 36.0401 22.0991 36.0584 22.0723 36.0709L21.5327 36.3169C21.4316 36.3631 21.4122 36.4316 21.4744 36.5223C22.0489 37.367 20.8998 37.8704 20.7336 38.695C20.648 39.1135 20.5469 39.5012 20.4303 39.858C20.4149 39.9034 20.3841 39.9422 20.3433 39.9678C20.3024 39.9934 20.2539 40.0042 20.2059 39.9984C20.1579 39.9926 20.1134 39.9706 20.0799 39.9361C20.0464 39.9015 20.0259 39.8566 20.022 39.8088C19.952 38.8136 19.5592 37.9621 18.8437 37.2542C18.8056 37.2174 18.7802 37.1696 18.7713 37.1176C18.7624 37.0656 18.7704 37.0121 18.7941 36.9649L19.0041 36.5367C19.0508 36.4422 19.0284 36.3689 18.937 36.3169L18.4266 36.0275C18.4034 36.0147 18.3832 35.9971 18.3675 35.9758C18.3518 35.9545 18.3409 35.9301 18.3356 35.9043C18.3304 35.8784 18.3308 35.8517 18.337 35.826C18.3431 35.8004 18.3548 35.7763 18.3712 35.7556L18.6454 35.4026C18.7212 35.3081 18.6998 35.2454 18.5812 35.2146Z" fill="#005DAB"/>
</g>
<defs>
<clipPath id="clip0_792_8600">
<rect width="40" height="40" fill="white"/>
</clipPath>
</defs>
</svg>
