<svg width="40" height="12" viewBox="0 0 40 12" fill="none" xmlns="http://www.w3.org/2000/svg">
<g clip-path="url(#clip0_792_8586)">
<path d="M18.629 4.74888C17.196 5.53188 16.423 4.43788 15.745 3.40888C15.7264 3.38022 15.7317 3.35755 15.761 3.34088C17.387 2.41088 19.0164 1.48855 20.649 0.573885C22.024 -0.197115 23.193 0.383885 24.071 1.50488C24.831 2.47388 25.281 2.87188 26.504 2.20488C27.35 1.74422 28.195 1.28288 29.039 0.820885C30.198 0.187885 30.934 -0.297115 32.049 0.310885C33.35 1.02088 33.549 3.05088 35.519 2.01388C36.1584 1.67788 36.7997 1.34588 37.443 1.01788C37.963 0.752885 38.501 0.916885 38.897 1.34888C39.2484 1.73288 39.5987 2.11655 39.948 2.49988C39.974 2.52788 39.9707 2.55188 39.938 2.57188C38.958 3.16455 37.9724 3.73988 36.981 4.29788C34.928 5.45288 34.975 3.54688 33.666 2.79588C32.835 2.31888 31.912 2.30988 31.063 2.76088C29.8717 3.39288 28.682 4.02888 27.494 4.66888C26.148 5.39388 25.637 3.48088 24.671 2.93988C23.7357 2.41722 22.771 2.43688 21.777 2.99888C20.7324 3.59022 19.683 4.17355 18.629 4.74888Z" fill="#FEB600"/>
<path d="M21.739 10.896C21.397 11.363 21.011 11.665 20.392 11.675C17.484 11.725 17.75 6.221 20.675 6.443C21.163 6.48033 21.517 6.70567 21.737 7.119C21.7419 7.12907 21.7502 7.13714 21.7603 7.14188C21.7705 7.14662 21.7819 7.14774 21.7928 7.14505C21.8037 7.14236 21.8133 7.13602 21.8201 7.1271C21.8269 7.11817 21.8304 7.1072 21.83 7.096L21.819 4.556C21.819 4.51867 21.8377 4.5 21.875 4.5H23.1C23.1334 4.5 23.15 4.51667 23.15 4.55V11.5C23.15 11.5333 23.1334 11.55 23.1 11.55H21.893C21.839 11.55 21.8127 11.523 21.814 11.469L21.83 10.927C21.8306 10.9162 21.8275 10.9054 21.8214 10.8964C21.8153 10.8875 21.8065 10.8807 21.7962 10.8772C21.7859 10.8737 21.7748 10.8736 21.7645 10.877C21.7541 10.8804 21.7452 10.8871 21.739 10.896ZM21.331 7.694C21.017 7.47333 20.6974 7.45367 20.372 7.635C19.416 8.167 19.434 10.7 20.826 10.58C21.48 10.523 21.814 9.909 21.826 9.299C21.838 8.611 21.892 8.087 21.331 7.694Z" fill="#074C90"/>
<path d="M0 11.5351V11.3701C0.038 9.82744 0.038 8.2851 0 6.7431V6.5611L1.322 6.5571C1.352 6.55644 1.36633 6.57144 1.365 6.6021L1.336 7.2881C1.33528 7.29884 1.33819 7.30951 1.34426 7.3184C1.35033 7.32729 1.35922 7.33388 1.36949 7.33711C1.37976 7.34034 1.39081 7.34002 1.40088 7.33621C1.41095 7.3324 1.41944 7.32532 1.425 7.3161C2.06 6.3061 3.724 5.9961 4.213 7.3101C4.21705 7.32127 4.22421 7.33103 4.23363 7.33824C4.24306 7.34546 4.25438 7.34984 4.26629 7.35088C4.2782 7.35193 4.29022 7.34959 4.30096 7.34415C4.3117 7.3387 4.32073 7.33037 4.327 7.3201C4.65967 6.77277 5.13333 6.4781 5.748 6.4361C6.839 6.3611 7.335 7.1931 7.352 8.1821C7.37133 9.28677 7.37967 10.3918 7.377 11.4971C7.377 11.5324 7.35933 11.5501 7.324 11.5501H6.08C6.06638 11.5501 6.0533 11.5448 6.04358 11.5352C6.03386 11.5257 6.02826 11.5127 6.028 11.4991C6.02133 10.4798 6.021 9.46377 6.027 8.4511C6.03 7.9521 5.663 7.4461 5.13 7.5461C4.554 7.6551 4.374 8.2651 4.362 8.7931C4.34267 9.6971 4.343 10.6008 4.363 11.5041C4.36367 11.5348 4.34867 11.5501 4.318 11.5501H3.052C3.03067 11.5501 3.02 11.5394 3.02 11.5181C3.026 10.5768 3.02767 9.63744 3.025 8.7001C3.019 7.0271 1.368 7.2501 1.359 8.7071C1.351 10.0064 1.34933 10.9331 1.354 11.4871C1.354 11.5231 1.336 11.5408 1.3 11.5401L0 11.5351Z" fill="#074C90"/>
<path d="M10.9661 10.8961C10.9663 10.8846 10.9627 10.8733 10.9558 10.8641C10.9489 10.8548 10.9391 10.8481 10.928 10.845C10.9169 10.842 10.9051 10.8426 10.8944 10.847C10.8838 10.8513 10.8749 10.8591 10.8691 10.8691C10.2051 12.0611 8.33308 11.9731 8.08808 10.4871C7.77308 8.5771 9.55908 8.5351 10.9181 8.3371C10.9298 8.33544 10.9405 8.32961 10.9484 8.32064C10.9563 8.31167 10.9608 8.30014 10.9611 8.2881C10.9821 6.9031 9.17408 7.4811 8.56108 7.9301C8.55646 7.93339 8.55102 7.93536 8.54537 7.93578C8.53971 7.93619 8.53404 7.93505 8.52899 7.93247C8.52394 7.92989 8.51969 7.92598 8.5167 7.92115C8.51372 7.91632 8.51212 7.91077 8.51208 7.9051L8.51908 6.8971C8.51908 6.8731 8.52975 6.85576 8.55108 6.8451C9.89908 6.1841 12.1601 6.1451 12.2051 8.2441C12.2284 9.3301 12.2337 10.4161 12.2211 11.5021C12.2211 11.5341 12.2051 11.5501 12.1731 11.5501H10.9961C10.9891 11.5501 10.9821 11.5487 10.9757 11.546C10.9693 11.5432 10.9634 11.5392 10.9586 11.5342C10.9537 11.5291 10.9499 11.5232 10.9474 11.5166C10.945 11.5101 10.9438 11.5031 10.9441 11.4961L10.9661 10.8961ZM9.36808 9.6641C8.96908 10.3881 9.87808 10.9321 10.4511 10.5441C10.8957 10.2428 11.0524 9.79143 10.9211 9.1901C10.9157 9.16543 10.9007 9.1551 10.8761 9.1591C10.4311 9.2301 9.60208 9.2381 9.36808 9.6641Z" fill="#074C90"/>
<path d="M14.589 7.27902C14.5887 7.28911 14.5917 7.29897 14.5977 7.30708C14.6036 7.31519 14.6121 7.32112 14.6218 7.32395C14.6316 7.32678 14.642 7.32637 14.6516 7.32277C14.6612 7.31917 14.6694 7.31259 14.675 7.30402C15.1057 6.60469 15.7373 6.33202 16.57 6.48602C17.367 6.63402 17.676 7.51802 17.686 8.23202C17.7013 9.32069 17.7053 10.4104 17.698 11.501C17.698 11.5337 17.6813 11.55 17.648 11.55H16.402C16.3964 11.55 16.3909 11.5489 16.3857 11.5467C16.3805 11.5446 16.3759 11.5414 16.3719 11.5374C16.368 11.5334 16.365 11.5286 16.3629 11.5234C16.3609 11.5182 16.3599 11.5126 16.36 11.507C16.386 10.411 16.379 9.37636 16.339 8.40302C16.284 7.09402 14.643 7.35602 14.609 8.57002C14.5963 9.00402 14.5943 9.97936 14.603 11.496C14.603 11.532 14.5853 11.55 14.55 11.55H13.313C13.271 11.55 13.25 11.529 13.25 11.487V6.59102C13.25 6.58015 13.2542 6.56972 13.2617 6.56203C13.2692 6.55434 13.2794 6.55002 13.29 6.55002H14.54C14.584 6.55002 14.6057 6.57169 14.605 6.61502L14.589 7.27902Z" fill="#074C90"/>
<path d="M27.749 7.41295C27.955 6.74695 28.4137 6.43428 29.125 6.47495C29.1657 6.47749 29.2039 6.49536 29.2318 6.52491C29.2596 6.55445 29.2751 6.59345 29.275 6.63395V7.77895C29.2751 7.78813 29.2729 7.79719 29.2686 7.8053C29.2643 7.81342 29.2581 7.82032 29.2504 7.82539C29.2428 7.83046 29.234 7.83354 29.2248 7.83433C29.2157 7.83513 29.2065 7.83362 29.1981 7.82995C28.0781 7.34495 27.658 8.31895 27.653 9.23095C27.6497 9.98695 27.649 10.7426 27.651 11.4979C27.651 11.5326 27.6337 11.5499 27.599 11.5499H26.363C26.321 11.5499 26.3 11.5289 26.3 11.4869V6.59095C26.3 6.58007 26.3043 6.56964 26.3118 6.56195C26.3193 6.55427 26.3294 6.54995 26.34 6.54995H27.591C27.635 6.54995 27.6564 6.57195 27.655 6.61595L27.637 7.41395C27.6367 7.42169 27.6393 7.42927 27.6443 7.43519C27.6493 7.44112 27.6564 7.44495 27.6641 7.44595L27.691 7.44995C27.7035 7.45169 27.7162 7.44892 27.7269 7.44214C27.7375 7.43535 27.7454 7.425 27.749 7.41295Z" fill="#074C90"/>
<path d="M25.2621 6.55103H24.0381C24.0033 6.55103 23.9751 6.57923 23.9751 6.61403V11.488C23.9751 11.5228 24.0033 11.551 24.0381 11.551H25.2621C25.2969 11.551 25.3251 11.5228 25.3251 11.488V6.61403C25.3251 6.57923 25.2969 6.55103 25.2621 6.55103Z" fill="#074C90"/>
<path d="M29.744 11.394C29.7527 9.83872 29.7527 8.23738 29.744 6.59005C29.744 6.57944 29.7481 6.56927 29.7555 6.56176C29.7628 6.55426 29.7727 6.55005 29.783 6.55005H31.038C31.0481 6.55005 31.0578 6.55405 31.0649 6.56118C31.072 6.5683 31.076 6.57797 31.076 6.58805V11.487C31.076 11.529 31.055 11.55 31.013 11.55H29.796C29.7567 11.55 29.733 11.5307 29.725 11.492C29.717 11.4547 29.7234 11.422 29.744 11.394Z" fill="#074C90"/>
</g>
<defs>
<clipPath id="clip0_792_8586">
<rect width="40" height="11.7" fill="white"/>
</clipPath>
</defs>
</svg>
