<svg width="36" height="28" viewBox="0 0 36 28" fill="none" xmlns="http://www.w3.org/2000/svg">
<path d="M22.2086 2.65039C19.5323 2.65039 17.0527 3.46366 14.9963 4.84224C14.9963 4.84224 33.0813 13.2625 33.1207 13.2724C34.8131 14.0361 34.8426 12.9451 34.8426 12.9451C33.7012 7.07376 28.4764 2.65039 22.2086 2.65039ZM31.0839 23.5374C31.074 23.5275 13.7368 16.952 10.1946 15.623C9.63372 15.4048 9.36806 15.8213 9.38774 16.0693C9.78132 22.7242 15.3702 28.0005 22.2185 28.0005C26.1641 28.0005 29.6867 26.2549 32.0482 23.4977C32.0383 23.4977 31.6447 23.7754 31.0839 23.5374Z" fill="#1B74FD"/>
<path fill-rule="evenodd" clip-rule="evenodd" d="M32.885 18.6571C32.8161 18.6372 5.06863 6.06139 4.77345 5.93246C4.00596 5.57541 2.91378 6.33909 3.51399 7.27137C3.61238 7.42014 5.78692 10.5839 5.78692 10.5839C5.78692 10.5839 5.14735 9.52273 5.21623 9.02683C5.25558 8.67971 5.59013 8.52102 5.83612 8.63012C6.07226 8.71938 32.1962 20.0059 32.3241 20.0753C33.2687 20.4919 34.0559 20.1944 34.3511 19.5001C34.5478 18.9149 34.7151 18.3 34.8332 17.6752C34.725 17.9827 34.1641 19.1629 32.885 18.6571ZM34.9808 13.9064C34.9513 14.2238 34.7348 15.6123 33.1998 14.8784C32.9243 14.7494 1.89047 0.28919 1.46737 0.0809146C0.876996 -0.206704 -0.411981 0.269354 0.257107 1.55868C0.276786 1.59835 2.74651 5.5655 2.71699 5.50599C2.66779 5.44648 2.30373 4.55387 2.13646 3.74061C2.05774 3.41332 2.35292 3.11578 2.80554 3.31414C2.85474 3.33398 33.0424 16.6735 33.2687 16.7727C33.9181 17.0801 34.9808 16.9314 35.0497 16.0983C35.0595 15.8404 35.0693 15.5925 35.0693 15.3247C35.0595 14.8585 35.0398 14.3726 34.9808 13.9064ZM32.0289 21.5333C31.9305 21.5035 8.16808 11.5162 7.95161 11.427C7.10541 11.0897 6.5544 11.8832 7.09557 12.6171L9.03396 15.1362C9.03396 15.1362 8.63054 14.4321 8.60102 14.1345C8.5715 13.8271 8.76829 13.4899 9.37834 13.7477C9.99823 14.0056 31.2122 22.6441 31.2713 22.6738C31.9305 22.9019 32.5209 22.8821 32.7964 22.5052C33.2195 21.8903 33.5737 21.3052 33.8886 20.6208C33.6918 20.958 33.003 21.9101 32.0289 21.5333Z" fill="#E32213"/>
</svg>
