<svg width="40" height="40" viewBox="0 0 40 40" fill="none" xmlns="http://www.w3.org/2000/svg">
<g clip-path="url(#clip0_792_8612)">
<path d="M15.8386 19.124L12.1959 3.90788L12.0461 3.2854L11.4812 3.58511C5.55617 6.66292 1.49854 12.8531 1.49854 20.0001C1.49854 27.1471 5.54464 33.3373 11.4697 36.4151L12.0346 36.7148L12.1844 36.0923L15.8271 20.8762C15.9654 20.2998 15.9654 19.7004 15.8271 19.124H15.8386Z" fill="black" stroke="white" stroke-width="0.87"/>
<path d="M20.3574 1.4984C17.2219 1.44076 14.2594 2.16698 11.6542 3.48111L10.9856 3.8154L11.5504 4.29955L29.683 19.9883L11.5504 35.6771L10.9856 36.1612L11.6542 36.4955C14.1556 37.7635 16.9914 38.4782 19.9885 38.4782C30.3401 38.4782 38.6974 29.9825 38.4899 19.5733C38.2824 9.70589 30.2133 1.65978 20.3574 1.47534V1.4984Z" fill="#EC1C24" stroke="white" stroke-width="0.87"/>
<path d="M20 0C25.5216 0 30.5245 2.23631 34.1441 5.85591C37.7637 9.4755 40 14.4784 40 20C40 25.5216 37.7637 30.513 34.1441 34.1326C30.5245 37.7637 25.5216 40 20.0115 40C14.5014 40 9.48703 37.7637 5.86744 34.1441C2.23631 30.5245 0 25.5216 0 20C0 14.4784 2.23631 9.4755 5.85591 5.86744C9.4755 2.23631 14.4784 0 20 0ZM32.5764 7.42363C29.3602 4.20749 24.9107 2.21326 20 2.21326C15.0893 2.21326 10.6398 4.20749 7.42363 7.42363C4.20749 10.6398 2.21326 15.0893 2.21326 20C2.21326 24.9107 4.20749 29.3602 7.42363 32.5764C10.6398 35.7925 15.0893 37.7867 20 37.7867C24.9107 37.7867 29.3602 35.7925 32.5764 32.5764C35.7925 29.3602 37.7867 24.9107 37.7867 20C37.7867 15.0893 35.7925 10.6398 32.5764 7.42363Z" fill="#FEFEFE"/>
<path d="M15.0317 20.0002L10.9971 37.0031L30.9971 20.0002L10.9971 2.99731L15.0317 20.0002Z" fill="#FEFEFE"/>
<path d="M1.00293 20C1.00293 27.3429 5.04904 33.7406 10.9972 37.0029L14.9972 20H1.00293Z" fill="black"/>
<path fill-rule="evenodd" clip-rule="evenodd" d="M10.9741 3.00854C5.03751 6.28232 1.00293 12.657 1.00293 19.9999H14.9972L10.9972 3.00854H10.9741Z" fill="black"/>
<path fill-rule="evenodd" clip-rule="evenodd" d="M30.7319 20H39.0086C38.9971 9.51013 30.5014 1.00293 20.0115 1.00293C16.7492 1.00293 13.6829 1.8329 10.9971 3.27382L11.0201 3.35451L30.7204 20H30.7319Z" fill="#EC1C24"/>
<path fill-rule="evenodd" clip-rule="evenodd" d="M30.7319 20L11.0201 36.634L10.9971 36.7262C13.6829 38.1787 16.7492 38.9971 20.0115 38.9971C30.5014 38.9971 38.9971 30.4899 38.9971 20H30.7204H30.7319Z" fill="#EC1C24"/>
</g>
<defs>
<clipPath id="clip0_792_8612">
<rect width="40" height="40" fill="white"/>
</clipPath>
</defs>
</svg>
