<svg width="40" height="41" viewBox="0 0 40 41" fill="none" xmlns="http://www.w3.org/2000/svg">
<path d="M40 32.94C40 37.8 37.3 40.5 32.44 40.5H7.56C2.7 40.5 0 37.8 0 32.94V8.06C0 3.2 2.7 0.5 7.56 0.5H32.45C37.3 0.5 40 3.2 40 8.06V32.94Z" fill="#FFE600"/>
<path d="M25.7197 18.5497V14.7297L27.0997 13.3497V16.6597L28.2997 17.8597L33.1297 13.0297L34.3197 14.2197C34.3097 13.3197 34.1297 10.7097 31.9197 8.53967C29.5397 6.23967 26.9597 7.27967 26.0797 8.15967L21.2597 12.9797L22.4897 14.2097L19.9997 16.7197L17.5097 14.2297L18.7397 12.9997L13.9197 8.17967C13.0397 7.29967 10.4597 6.25967 8.07969 8.55967C5.86969 10.7297 5.68969 13.3397 5.67969 14.2397L6.86969 13.0497L11.6997 17.8797L12.8997 16.6797V13.3697L14.2797 14.7497V18.5697L16.2197 20.4997L6.65969 30.0597L10.4397 33.8297L19.9997 24.2797L29.5597 33.8397L33.3397 30.0697L23.7797 20.4997L25.7197 18.5497Z" fill="#2B2D34"/>
</svg>
