<svg width="53" height="47" viewBox="0 0 53 47" fill="none" xmlns="http://www.w3.org/2000/svg">
<g clip-path="url(#clip0_4851_45853)">
<path d="M23.4402 26.1204C23.6502 28.3504 23.7602 29.5004 21.9602 31.4104C18.5088 34.6506 14.6855 37.4703 10.5702 39.8104C8.37368 41.0936 6.08391 42.2101 3.7202 43.1504C2.1802 43.7004 0.880204 43.9404 0.240204 42.8204C0.0773272 42.5122 -0.0078125 42.1689 -0.0078125 41.8204C-0.0078125 41.4718 0.0773272 41.1285 0.240204 40.8204C1.9102 36.2804 6.7402 27.8204 9.8802 22.2904C10.2002 21.7304 10.5302 21.1504 10.8802 20.5704C15.7202 12.2504 22.1402 2.00038 23.4002 0.390379C23.5902 0.160379 23.9202 -0.119621 24.2202 0.0603794C24.3213 0.131224 24.3971 0.232454 24.4366 0.349353C24.4762 0.466252 24.4775 0.592724 24.4402 0.710379C24.4402 0.710379 24.3602 1.04038 24.3302 1.16038C22.2502 9.60038 22.4702 17.8704 23.4402 26.1604" fill="#00A3B8"/>
<path d="M30.5099 28.7203C28.5099 27.7903 27.4099 27.3103 26.6599 24.7903C25.5821 20.1822 25.0551 15.4625 25.0899 10.7303C25.067 8.18696 25.2442 5.64579 25.6199 3.13027C25.9099 1.52027 26.3499 0.280273 27.6199 0.280273C27.9623 0.30002 28.295 0.401019 28.5907 0.574912C28.8863 0.748806 29.1362 0.990595 29.3199 1.28027C32.4099 5.00027 37.3199 13.4103 40.5399 18.8903C40.8699 19.4503 41.1999 20.0303 41.5399 20.6203C46.3699 29.0003 51.9999 39.6403 52.7999 41.5503C52.9199 41.8303 52.9899 42.2603 52.6799 42.4303C52.5673 42.483 52.4409 42.4988 52.3188 42.4755C52.1967 42.4522 52.085 42.3908 51.9999 42.3003L51.6699 42.0003C45.3999 36.0003 38.1299 32.0003 30.5099 28.7203Z" fill="#00A3B8"/>
<path d="M24.7205 33.5399C26.5405 32.2399 27.4905 31.5399 30.0405 32.1799C34.5837 33.5424 38.9479 35.4425 43.0405 37.8399C45.2504 39.0954 47.36 40.5196 49.3505 42.0999C50.6005 43.1599 51.4505 44.1599 50.8105 45.2799C50.6269 45.5696 50.3769 45.8114 50.0813 45.9853C49.7857 46.1592 49.4529 46.2602 49.1105 46.2799C44.3405 47.0999 34.5905 47.1499 28.2405 47.1899H26.2405C16.5905 47.1899 4.53051 46.7299 2.48051 46.4599C2.18051 46.4599 1.77051 46.2699 1.77051 45.9099C1.77051 45.5499 2.03051 45.4699 2.23051 45.3999L2.68051 45.2699C11.0005 42.8299 18.0605 38.4999 24.7205 33.5399Z" fill="#00A3B8"/>
</g>
<defs>
<clipPath id="clip0_4851_45853">
<rect width="53" height="47" fill="white"/>
</clipPath>
</defs>
</svg>
