<svg width="53" height="16" viewBox="0 0 53 16" fill="none" xmlns="http://www.w3.org/2000/svg">
<path d="M38.2103 3.94072C42.2119 4.42469 46.0726 5.09495 49.8287 6.62177C52.0992 7.54718 54.7884 9.62884 51.3867 11.8117C50.3198 12.4962 48.8685 13.0551 47.5259 13.4499C44.7361 14.2667 41.8959 14.8505 39.0054 15.2015C30.9673 16.1762 22.9197 16.2586 14.8628 15.4486C11.6221 15.1205 1.94409 13.9299 0.225085 10.7689C-1.51808 7.5573 7.3809 5.68826 9.13211 5.36427C9.19518 5.35347 9.26497 5.37709 9.34146 5.43514C9.35287 5.44382 9.36164 5.45555 9.36676 5.46899C9.37188 5.48244 9.37315 5.49705 9.37043 5.51119C9.3677 5.52532 9.36109 5.5384 9.35134 5.54894C9.34159 5.55948 9.3291 5.56706 9.31529 5.57082C7.50973 6.02846 4.01133 6.82224 2.91833 8.28831C1.56969 10.0966 4.6011 11.6356 5.77864 12.0932C8.46652 13.1354 11.245 13.8232 14.114 14.1566C14.1811 14.1647 14.2361 14.1418 14.2791 14.0878C17.5037 9.97578 20.7371 5.87186 23.9792 1.77604C25.6136 -0.289422 28.7618 -0.271195 30.9418 0.702811C31.0035 0.729811 31.0645 0.729134 31.1249 0.700784C32.9305 -0.119325 35.3198 -0.248921 37.1334 0.71496C37.1911 0.74601 37.2488 0.747358 37.3065 0.719008C38.9772 -0.0626266 42.1415 -0.459518 43.7518 0.868856C43.8954 0.987654 43.8779 1.0214 43.6994 0.970104C42.5783 0.656236 41.441 0.249219 40.4064 0.986305C39.728 1.47027 38.7578 2.93634 38.1459 3.79695C38.0868 3.88065 38.1083 3.92857 38.2103 3.94072ZM30.6761 0.854683C29.2684 0.390292 28.1546 0.700111 27.3347 1.78414C24.1355 6.01901 20.9357 10.2546 17.7352 14.4908C17.6788 14.565 17.697 14.6042 17.7895 14.6082L19.7541 14.7236C19.8266 14.7277 19.885 14.7014 19.9292 14.6447L30.6962 0.923531C30.7005 0.917792 30.7035 0.911097 30.7048 0.904025C30.7062 0.896953 30.7059 0.889717 30.7039 0.88294C30.7019 0.876163 30.6983 0.87005 30.6935 0.865127C30.6886 0.860204 30.6826 0.85662 30.6761 0.854683ZM26.1873 14.7317L36.9261 1.00656C36.9345 0.995748 36.9403 0.983074 36.943 0.969576C36.9457 0.956078 36.9451 0.94214 36.9414 0.928901C36.9376 0.915663 36.9308 0.903503 36.9215 0.893418C36.9122 0.883333 36.9007 0.875607 36.8878 0.87088C34.8065 0.109495 34.0436 0.923529 32.7936 2.58602C29.7394 6.64404 26.6818 10.7061 23.6209 14.7722C23.614 14.7818 23.6099 14.7931 23.6089 14.8049C23.6079 14.8167 23.6102 14.8284 23.6155 14.8388C23.6208 14.8492 23.6288 14.8578 23.6386 14.8635C23.6485 14.8693 23.6598 14.8721 23.6712 14.8715L26.0162 14.8188C26.086 14.8175 26.143 14.7884 26.1873 14.7317ZM37.4011 4.78311L30.0621 14.5495C30.0152 14.6116 30.0306 14.6399 30.1084 14.6345C34.6032 14.3571 39.3878 13.6788 43.633 12.1135C44.7622 11.6983 48.3311 10.046 46.9019 8.18706C45.3681 6.19045 39.889 5.18202 37.4575 4.76083C37.4466 4.75893 37.4355 4.76002 37.4255 4.76396C37.4155 4.76791 37.4071 4.77455 37.4011 4.78311Z" fill="#2A3493"/>
</svg>
