<svg width="40" height="41" viewBox="0 0 40 41" fill="none" xmlns="http://www.w3.org/2000/svg">
<path d="M39.4716 19.2062L40 17.5469L38.2815 17.6012C37.4765 17.5716 36.7012 17.3 36.0494 16.821H36.2815C37.3284 16.816 38.2864 16.2185 38.7506 15.2802L39.5062 13.6654C38.9136 13.6704 38.321 13.6358 37.7333 13.5617C37.1704 13.4284 36.6667 13.1222 36.2864 12.6877C35.7728 12.1395 35.0617 11.8284 34.3111 11.8235C34.0198 11.8235 33.7284 11.8728 33.4469 11.9617C33.4864 11.8284 33.521 11.6951 33.5457 11.5568C33.6642 10.5938 33.3926 9.62099 32.7951 8.85556L31.4914 7.25062L30.6914 9.12716C30.563 9.39383 30.3704 9.62593 30.1235 9.79383C29.9852 9.12222 29.6593 8.50988 29.1753 8.02593C28.3654 7.1963 27.2543 6.7321 26.0938 6.74198C25.8914 6.74198 25.6889 6.75679 25.4914 6.78642L23.9309 7.09259C24.0642 6.56914 24.2765 6.07037 24.563 5.61111L25.4222 4.27284L23.2593 4.47531L22.5679 2.99383L21.2346 3.71975L20 2.5L18.7654 3.71975L17.4321 3.0284L16.7407 4.47531L14.5778 4.22839L15.437 5.5716C15.7235 6.03086 15.9358 6.52963 16.0691 7.05309L14.5877 6.76173H14.5383C14.3309 6.7321 14.1235 6.71728 13.916 6.71728C12.7556 6.70741 11.6444 7.17161 10.8346 8.00123C10.3457 8.49012 10.0099 9.11235 9.87654 9.79383C9.63951 9.63086 9.44691 9.40864 9.31852 9.14691L8.51358 7.25556L7.2 8.86543C6.61235 9.63086 6.35062 10.5988 6.4642 11.5568C6.48889 11.6951 6.52346 11.8284 6.56296 11.9617C6.28148 11.8728 5.99012 11.8235 5.69877 11.8235C4.94815 11.8284 4.23704 12.1395 3.72346 12.6877C3.34815 13.1173 2.84938 13.4235 2.29136 13.5617C1.69877 13.6506 1.0963 13.6852 0.493827 13.6654L1.22963 15.3049C1.69383 16.2432 2.65185 16.8407 3.69877 16.8457H3.93086C3.28889 17.3148 2.52346 17.5864 1.7284 17.621L0 17.5469L0.528395 19.2062C0.923457 20.5049 2.04444 21.458 3.39259 21.6309C3.25432 22.5049 2.70123 23.2605 1.91111 23.6556L0.587654 24.1938L1.29877 25.4333C1.88642 26.3469 2.89877 26.8901 3.98025 26.8802C4.26173 26.8802 4.54321 26.8506 4.81975 26.7914C4.88889 27.0926 4.97778 27.3938 5.07654 27.6852C5.32346 28.337 5.33827 29.0481 5.12593 29.7099L4.48395 31.058L5.92099 31.4383C6.24198 31.5222 6.57778 31.5617 6.90864 31.5617C7.14568 31.5617 7.37778 31.537 7.60988 31.4827C7.77778 31.4432 7.94568 31.3938 8.1037 31.3296C8.28642 31.6605 8.51852 31.9667 8.78025 32.2383C9.69877 33.1815 11.0025 33.6605 12.6568 33.6605H13.837L11.4025 34.6728L13.2494 35.5864C13.9951 35.9519 14.7556 36.2827 15.5309 36.5741L15.3086 37.216L15.9457 37.5074C17.0025 37.9222 18.1235 38.1543 19.2593 38.1938H20.7753C21.9062 38.1543 23.0222 37.9173 24.0741 37.5025L24.6914 37.216L24.4741 36.5741C25.2593 36.2728 26.0296 35.9321 26.7802 35.5518L28.5926 34.6728L26.163 33.6852H27.3481C29.0025 33.6852 30.3111 33.1914 31.2247 32.263C31.4914 31.9914 31.7185 31.6852 31.9012 31.3543C32.0593 31.4185 32.2272 31.4679 32.3951 31.5074C32.6272 31.5617 32.8593 31.5864 33.0963 31.5864C33.4272 31.5864 33.763 31.542 34.084 31.463L35.5259 31.0827L34.8988 29.7593C34.6617 29.0877 34.6716 28.3519 34.9235 27.6852C35.0272 27.3839 35.1111 27.0778 35.1802 26.7716C35.4568 26.8309 35.7432 26.8605 36.0247 26.8605C37.116 26.8704 38.1333 26.3074 38.7111 25.379L39.4123 24.1543L38.1086 23.621C37.3185 23.2259 36.7654 22.4704 36.6272 21.5963C37.9753 21.4185 39.0963 20.4704 39.4914 19.1667L39.4716 19.2062Z" fill="white"/>
<path d="M25.9359 24.4505H14.084V28.8949C14.084 30.7221 15.4025 31.8579 17.3531 31.8579C18.9828 31.8579 19.4124 31.9221 20.0149 32.5245C20.3951 32.1147 20.9334 31.8826 21.4964 31.8924V31.8233L21.8717 30.6677L21.2346 29.9714C20.9778 30.0505 20.7112 30.0801 20.4445 30.0653C20.0445 30.0603 19.6494 30.0208 19.2593 29.9418H19.1359C19.0815 29.9418 19.0815 29.9418 19.0667 29.9714L18.9927 30.0949L18.8593 30.3171L18.6025 30.2579L17.4618 29.9912L17.3038 30.248V30.2776L17.442 30.4307L17.3828 30.6282C17.2791 30.8702 17.1309 31.0875 16.9433 31.2752L16.6569 31.5813L16.3951 31.2554L16.2025 31.0134C15.9951 30.7418 15.9457 30.3863 16.0643 30.0653L15.7433 30.1986L15.6001 29.8826L15.5211 29.6603C15.3186 29.1912 15.4717 28.648 15.8815 28.3517L16.8001 27.8579L17.6741 28.0307C17.6741 27.9468 17.7285 27.6455 17.7532 27.5714H17.7038L17.2099 27.7591L16.7161 27.4233C16.6173 27.3245 16.6124 27.1616 16.7161 27.0579L17.1852 26.3468L15.9951 24.8653L17.7778 25.5665L17.9013 25.4184L18.1482 25.1221L18.4297 25.3887C18.5038 25.4628 18.5531 25.5517 18.5778 25.6554C19.0717 25.8529 19.9852 26.4307 20.0593 27.369L19.7778 27.4826C19.8124 27.5319 19.8569 27.5714 19.9112 27.5961L21.2149 27.7245L21.3334 27.69C21.5556 27.606 21.7927 27.5616 22.0297 27.5566C22.2667 27.5566 22.4988 27.611 22.7112 27.7147C22.805 27.6801 22.9087 27.6603 23.0075 27.6554H23.0717C23.768 27.6554 24.1186 28.1789 24.3951 28.5937L24.5383 28.8011C24.7803 29.1468 25.1013 29.6505 25.1161 29.6702L25.2593 29.8924L25.0815 30.0998C24.9186 30.3171 24.6618 30.4406 24.3902 30.4406C24.3112 30.4455 24.2322 30.4455 24.1531 30.4406C24.084 30.4258 24.0149 30.406 23.9457 30.3764C23.9457 30.4455 23.9457 30.5295 23.9062 30.5986L23.7038 31.764C25.047 31.4924 25.9951 30.2875 25.9408 28.9147L25.9359 24.4505ZM14.0692 24.09H23.2988C22.9235 23.695 22.7951 23.1271 22.963 22.6085C22.8396 22.5493 22.721 22.4703 22.6173 22.3814C22.2568 22.648 21.1359 23.448 20.8692 23.6505L20.8099 23.69L17.1852 23.048H17.1112C16.9926 23.053 16.8741 23.053 16.7556 23.048C16.721 23.211 16.5778 23.3246 16.4149 23.3246H16.3556C16.163 23.29 16.0297 23.1073 16.0593 22.9147V22.8357C15.5902 22.4999 15.368 21.9172 15.4914 21.3542V21.29L15.5457 21.2505C15.5457 21.2505 15.6149 21.2011 15.7087 21.1468L15.447 21.1073C15.3482 21.0875 15.284 20.9987 15.2988 20.8999C15.3136 20.8011 15.4025 20.7369 15.5013 20.7517H15.5062L16.1334 20.8505L16.1926 18.6431L17.126 17.6554L17.7087 18.8801L17.0964 21.0036L17.6494 21.0925C17.7482 21.1122 17.8124 21.2011 17.7976 21.2999C17.7828 21.3888 17.7087 21.448 17.6198 21.448H17.5902L17.1408 21.374V21.4085C17.1902 21.4974 17.2643 21.5666 17.3581 21.611L20.1186 21.6554L20.8247 20.9592C20.2865 20.7715 19.9013 20.2974 19.8371 19.7295C19.4914 19.5962 19.2099 19.3394 19.0519 19.0085C18.9186 18.6974 18.8939 18.3468 18.9877 18.0209C18.5531 17.848 18.1581 17.5863 17.8371 17.2505H13.7383C13.9359 17.7345 14.0494 18.248 14.0692 18.7666V24.09Z" fill="#FCE527"/>
<path d="M17.8572 26.3914C17.7979 26.3914 17.7436 26.4358 17.7386 26.4951V26.5C17.7337 26.5642 17.7831 26.6235 17.8473 26.6284H17.8522C17.9213 26.6284 17.9707 26.5741 17.9707 26.5099C17.9707 26.4407 17.9213 26.3914 17.8572 26.3914Z" fill="#222220"/>
<path d="M17.8516 26.3865C17.8565 26.3865 17.8565 26.3914 17.8565 26.3914C17.8615 26.3914 17.8615 26.3865 17.8664 26.3865H17.8516ZM25.9206 34.4852L25.2392 34.2235L25.4268 33.5173L25.6342 32.7469C24.7009 33.226 23.7231 33.6111 22.7157 33.8976C22.2219 34.0358 21.8663 34.1 21.8663 34.1V34.5988C21.2589 34.6976 20.6466 34.7519 20.0293 34.7568H19.975C19.3577 34.7519 18.7453 34.6976 18.1379 34.5988V34.105C18.1379 34.105 17.7774 34.0358 17.2836 33.8976C16.2762 33.6111 15.2984 33.226 14.3651 32.7469L14.5676 33.5173L14.7601 34.2235L14.0737 34.4852L13.333 34.7667C14.3503 35.2951 15.412 35.7346 16.5083 36.0803L16.2466 36.7914C17.4367 37.2457 18.7108 37.4679 19.9848 37.4383H20.0145C21.2885 37.4679 22.5626 37.2457 23.7527 36.7914L23.4959 36.0803C24.5873 35.7346 25.649 35.2951 26.6663 34.7667L25.9206 34.4852ZM14.1577 34.8111L15.2638 34.4408L14.933 33.3544C15.6589 33.7148 16.4095 34.0161 17.1848 34.2531L16.6416 35.7346C15.7873 35.5074 14.9527 35.1963 14.1577 34.8111ZM20.0293 37.0877L20.0046 37.0679C18.9182 37.063 17.8367 36.9148 16.7898 36.6284L17.4564 34.821C18.2861 35.0284 19.1404 35.142 19.9996 35.1469H20.054C20.9132 35.1371 21.7675 35.0284 22.5972 34.821L23.2638 36.6284C22.212 36.9247 21.1206 37.0778 20.0293 37.0877ZM23.3972 35.7642V35.7494L22.854 34.2679C23.6293 34.0309 24.3799 33.7297 25.1058 33.3692L24.775 34.4556L25.8959 34.8309C25.0959 35.221 24.2564 35.5371 23.3972 35.7642ZM19.9997 6.29757C21.1157 6.26794 22.212 6.60374 23.1206 7.25066C23.2639 6.51979 23.5355 5.81856 23.9256 5.18152L22.8046 5.30992L22.2219 4.06053L21.091 4.64325L19.9997 3.56177L18.9083 4.64325L17.7774 4.06053L17.1947 5.30992L16.0737 5.18152C16.4639 5.81856 16.7355 6.51979 16.8787 7.25066C17.7873 6.60374 18.8836 6.26794 19.9997 6.29757ZM17.1453 5.74448L17.4565 5.77905L17.5898 5.49757L17.9799 4.65806L18.7058 5.03337L18.9873 5.17658L19.2145 4.96917L19.9997 4.17411L20.7848 4.96917L21.012 5.1914L21.2935 5.04819L22.0145 4.67288L22.4095 5.51238L22.5429 5.79387L22.854 5.7593L23.1503 5.72473C23.0318 5.99634 22.9281 6.27782 22.8441 6.56424C21.0614 5.65066 18.9429 5.65066 17.1602 6.56424C17.0762 6.27782 16.9725 5.99634 16.854 5.72473L17.1453 5.74448ZM34.6467 16.4901L34.5133 16.3272C33.5948 15.1568 32.7207 14.0457 31.1603 13.537C31.2245 13.4827 31.2887 13.4333 31.3578 13.3889C32.0985 12.9691 32.622 12.2482 32.7899 11.4136C32.8738 10.658 32.6615 9.90248 32.1973 9.30001L31.7035 8.68273L31.3924 9.41853C31.3924 9.46297 30.8442 10.6432 29.738 10.6432H29.4121C29.4714 9.86791 29.1899 9.10248 28.6417 8.54939C27.9751 7.86791 27.0566 7.48766 26.1035 7.4926C25.9257 7.4926 25.7479 7.50742 25.5751 7.53211L24.8195 7.68026L25.2887 8.29754C25.6541 8.79137 25.9849 9.64569 25.5948 10.1049C25.4072 10.2679 25.1948 10.3963 24.9627 10.4852C24.4689 10.7173 23.7578 11.0482 23.7578 11.8778C23.7578 12.4161 24.1775 12.979 24.9331 13.458C27.1603 14.8704 28.538 16.3272 29.1356 17.9667C30.059 20.4654 28.8541 21.8877 27.6837 22.6383L27.1603 22.9741L27.6195 23.3938C28.0294 23.7445 28.5331 23.9617 29.0714 24.0161H29.5207C29.98 24.0161 30.4343 23.9519 30.8738 23.8185C30.7652 24.0111 30.6319 24.1938 30.4887 24.3617C29.822 25.137 28.8343 25.5617 27.8121 25.5074H27.3726L27.338 25.9469C27.3331 26.5642 27.6047 27.1469 28.0738 27.5469C28.1973 27.6556 28.3356 27.7445 28.4837 27.8136C27.7528 28.5247 27.338 29.4975 27.3232 30.5198C27.3232 31.0778 27.1948 31.6309 26.9528 32.1346L26.459 32.8753H27.338C28.7899 32.8753 29.901 32.4753 30.6714 31.6803C31.0714 31.2605 31.3677 30.7519 31.5405 30.1988C31.8269 30.4407 32.1627 30.6087 32.5282 30.6926C32.701 30.7321 32.8788 30.7519 33.0566 30.7519C33.3232 30.7519 33.5899 30.7173 33.8467 30.658L34.4096 30.5099L34.1627 29.9864C33.8516 29.1519 33.8516 28.2284 34.1627 27.3938C34.3454 26.8506 34.4738 26.2877 34.543 25.7148C34.9874 25.942 35.4812 26.0556 35.98 26.0506C36.7998 26.0605 37.5652 25.6556 38.0096 24.9691L38.2812 24.4753L37.7874 24.2679C36.1331 23.5815 35.7677 21.7346 35.6936 20.737C35.8566 20.7716 36.0195 20.7914 36.1874 20.7963L36.3257 20.8901C38.1232 20.8901 38.7257 19.058 38.7504 18.979L38.9528 18.3321H38.2763C36.8541 18.2827 35.5257 17.6111 34.6467 16.4901ZM36.3306 20.3914H36.2615C35.901 20.3963 35.5454 20.2975 35.2393 20.1099C35.2393 20.1099 34.9775 23.6803 37.6393 24.7864V24.8012C37.2887 25.3346 36.6862 25.6506 36.0491 25.6407C35.3282 25.6852 34.6319 25.379 34.1775 24.821C34.1924 25.6605 34.0541 26.5 33.7726 27.2901C33.4121 28.2432 33.4121 29.3 33.7726 30.2531C33.5504 30.3074 33.3282 30.337 33.101 30.337C32.9627 30.337 32.8195 30.3222 32.6862 30.2877C32.0294 30.1296 31.5059 29.6457 31.2936 29.0086C31.2936 29.0086 31.3973 32.4358 27.4022 32.4358H27.3726C27.6738 31.863 27.8319 31.2259 27.8269 30.579C27.9998 28.0457 29.7183 27.6852 29.7183 27.6852C29.2442 27.6259 28.7948 27.458 28.3998 27.1914C28.0393 26.8901 27.8319 26.4457 27.822 25.9766C28.9775 26.0259 30.0936 25.5469 30.8491 24.6679C31.3035 24.1494 31.6047 23.5173 31.7331 22.8407C31.0961 23.3198 30.3109 23.5617 29.5158 23.5272H29.1109C28.6812 23.4827 28.2714 23.3148 27.9405 23.0333C29.4615 22.0457 30.5282 20.3568 29.5849 17.7938C28.8245 15.7395 27.0022 14.2037 25.1701 13.0482C24.5627 12.6728 24.1973 12.2482 24.1973 11.8827C24.1973 11.0235 25.417 10.9988 25.9208 10.4012C26.4985 9.72964 26.138 8.64322 25.6343 7.99137C25.7775 7.96668 25.9257 7.9568 26.0689 7.9568C26.8936 7.94692 27.6887 8.27779 28.2615 8.87038C28.8442 9.42347 29.0664 10.258 28.8442 11.0284L29.1109 11.0827C29.2738 11.1124 29.4368 11.1272 29.6047 11.1321H29.7133C31.1603 11.1321 31.8121 9.61606 31.8121 9.61606C31.8121 9.61606 33.3528 11.5124 31.0862 12.9938C30.6961 13.2457 30.5232 13.4877 30.5924 13.7346L30.6269 13.8975L30.7899 13.9272C32.4343 14.3716 33.259 15.5074 34.2812 16.7963C35.2491 18.0259 36.7109 18.7667 38.2763 18.821H38.3059C38.3059 18.821 37.8121 20.3914 36.3306 20.3914Z" fill="#222220"/>
<path d="M33.1603 13.7593C33.7134 14.0753 34.1924 14.505 34.5678 15.0185C34.8492 15.4531 35.2492 15.7988 35.7233 16.0062C35.9011 16.0655 36.0937 16.0951 36.2813 16.0951C37.0369 16.0951 37.7282 15.6655 38.0739 14.9938L38.3603 14.3519L37.664 14.3124C36.9134 14.1741 36.2369 13.7889 35.7381 13.2111C35.3678 12.8111 34.8492 12.579 34.3011 12.5741C33.8764 12.579 33.4665 12.7074 33.111 12.9346L32.469 13.384L33.1603 13.7593ZM34.3159 13.0531L34.3011 13.058C34.7208 13.058 35.1159 13.2408 35.3974 13.5519C35.9752 14.2136 36.7653 14.6531 37.6344 14.7963C37.3678 15.2951 36.8492 15.6062 36.2813 15.6111C36.1431 15.6111 36.0048 15.5864 35.8715 15.542C35.0715 15.2704 34.79 14.0605 33.4023 13.3297C33.6739 13.1519 33.99 13.058 34.3159 13.0531ZM33.4863 20.1247L33.4765 20.1148C33.0715 16.8555 30.7061 14.5 28.074 13.0728C27.832 12.9395 27.6049 12.8309 27.3876 12.7271C28.474 12.9494 29.6049 12.6827 30.4789 12.0012C30.4789 12.0012 28.953 13.1222 25.832 12.1049C26.6962 12.6679 28.3752 13.458 29.911 14.742C33.7431 18.1099 31.0024 21.3988 31.0024 21.3988C32.1481 20.3123 32.5481 18.6531 32.0345 17.1617C32.8444 18.5099 33.2345 20.0704 33.1505 21.6407C33.0419 24.2284 31.6049 26.4901 30.1234 28.2926C29.6789 28.8605 29.3728 29.5271 29.2444 30.2383C29.4962 29.5321 29.8765 28.8802 30.3703 28.3173C31.9752 26.4358 33.3333 24.4852 33.5258 21.6753C33.6938 22.1691 34.3752 23.6062 35.4617 24.1444C35.4617 24.1444 34.0987 23.3247 33.4863 20.1247ZM13.0419 32.1692C12.8049 31.6655 12.6765 31.1124 12.6715 30.5544C12.6567 29.5322 12.237 28.5593 11.5061 27.8482C11.6542 27.7791 11.7925 27.6902 11.916 27.5816C12.3851 27.1816 12.6567 26.5988 12.6518 25.9816L12.6221 25.542H12.1777C11.1604 25.5914 10.1728 25.1717 9.50613 24.3964C9.36292 24.2285 9.23452 24.0458 9.12094 23.8532C9.56046 23.9865 10.0147 24.0507 10.474 24.0507H10.9234C11.4617 23.9964 11.9703 23.7791 12.3802 23.4285L12.8394 23.0087L12.316 22.6729C11.1407 21.9223 9.94069 20.5001 10.8641 18.0013C11.4617 16.3766 12.8394 14.9099 15.0863 13.4976C15.8419 13.0038 16.2567 12.4556 16.2567 11.9174C16.2567 11.0877 15.5604 10.7569 15.0518 10.5248C14.8197 10.4359 14.6073 10.3075 14.4197 10.1445C14.0246 9.68526 14.3555 8.81118 14.7258 8.33711L15.2197 7.71982L14.4592 7.57168C14.2863 7.54205 14.1086 7.53217 13.9308 7.53217C12.9678 7.50254 12.0394 7.87291 11.3579 8.54945C10.7999 9.0976 10.5086 9.86797 10.5629 10.6482H10.2666C9.15551 10.6482 8.63205 9.47291 8.6123 9.42353L8.3012 8.68772L7.80736 9.30501C7.3481 9.90748 7.13577 10.663 7.21972 11.4186C7.38762 12.2532 7.90614 12.9741 8.64688 13.3939C8.71601 13.4383 8.78515 13.4877 8.84441 13.542C7.28391 14.0359 6.40984 15.1618 5.49132 16.3322L5.35799 16.5001C4.47898 17.6211 3.14564 18.2927 1.72342 18.342H1.04688L1.25428 18.989C1.25428 19.068 1.87651 20.9001 3.67897 20.9001H3.76786C3.93577 20.8951 4.09873 20.8754 4.26169 20.8408C4.18762 21.8285 3.82218 23.6853 2.16293 24.3717L1.6691 24.5791L1.9407 25.0729C2.38515 25.7593 3.15057 26.1643 3.97032 26.1544C4.46909 26.1593 4.95799 26.0457 5.40243 25.8186C5.47157 26.3914 5.59996 26.9544 5.78268 27.4976C6.09379 28.3322 6.09379 29.2556 5.78268 30.0902L5.53577 30.6137L6.09873 30.7618C6.35552 30.8211 6.62218 30.8556 6.88884 30.8556C7.06663 30.8556 7.24441 30.8359 7.41725 30.7964C7.78268 30.7124 8.11847 30.5445 8.40489 30.3025C8.57773 30.8556 8.87404 31.3643 9.27404 31.784C10.0493 32.5791 11.1604 32.9741 12.6073 32.9791H13.4863L13.0419 32.1692ZM12.6172 32.4457C8.62218 32.4457 8.72095 29.0186 8.72095 29.0186C8.5086 29.6556 7.98515 30.1396 7.32836 30.2976C7.19502 30.3322 7.05181 30.347 6.91354 30.347C6.68638 30.347 6.46416 30.3174 6.24688 30.263C6.60737 29.3099 6.60737 28.2532 6.24688 27.3001C5.96539 26.5099 5.83206 25.6704 5.84688 24.8309C5.39256 25.389 4.69625 25.6951 3.97527 25.6507H3.95057C3.30859 25.6606 2.70614 25.3396 2.35552 24.8062C5.01725 23.7001 4.75552 20.1297 4.75552 20.1297C4.44935 20.3174 4.09379 20.4161 3.73329 20.4112H3.67897C2.19749 20.4112 1.70367 18.8408 1.70367 18.8408H1.7333C3.29873 18.7914 4.76538 18.0507 5.73329 16.8211C6.75058 15.5322 7.58021 14.3964 9.22465 13.9519L9.38762 13.9223L9.42218 13.7593C9.46663 13.5075 9.29379 13.2655 8.92836 13.0186C6.66168 11.5371 8.20243 9.64081 8.20243 9.64081C8.20243 9.64081 8.84441 11.1569 10.3012 11.1569H10.3703C10.5382 11.1519 10.7012 11.1371 10.8641 11.1075L11.1308 11.0532C10.9036 10.2828 11.1308 9.44822 11.7135 8.89513C12.2863 8.30254 13.0814 7.97168 13.9061 7.98155C14.0493 7.98155 14.1975 7.99143 14.3407 8.01612C13.8468 8.67291 13.4814 9.75933 14.0592 10.426C14.553 11.0038 15.7777 11.0285 15.7777 11.9075C15.7777 12.2729 15.437 12.6976 14.8296 13.0778C12.9925 14.2334 11.1703 15.7692 10.4147 17.8235C9.47157 20.3865 10.5382 22.0902 12.0592 23.063C11.7283 23.3396 11.3184 23.5124 10.8888 23.5569H10.4789C9.68391 23.5914 8.89873 23.3495 8.26169 22.8704C8.39009 23.547 8.69132 24.1791 9.1407 24.6976C9.89626 25.5717 11.0172 26.0556 12.1728 26.0062C12.1629 26.4754 11.9555 26.9198 11.595 27.2211C11.1999 27.4877 10.7505 27.6556 10.2765 27.7149C10.2765 27.7149 11.9999 28.0655 12.1876 30.6087C12.1826 31.2556 12.3407 31.8927 12.6419 32.4655L12.6172 32.4457Z" fill="#222220"/>
<path d="M3.71367 16.0901H3.7186C3.90626 16.0901 4.09885 16.0605 4.27663 16.0013C4.7507 15.7938 5.1507 15.4482 5.43218 15.0136C5.80255 14.5 6.28157 14.0704 6.83465 13.7543L7.52601 13.384L6.88404 12.9346C6.52848 12.7074 6.1186 12.579 5.69885 12.5741C5.1507 12.579 4.63218 12.8111 4.26181 13.2161C3.76799 13.7889 3.0865 14.179 2.34083 14.3173L1.64453 14.3519L1.92601 14.9938C2.27169 15.6655 2.95811 16.0852 3.71367 16.0901ZM4.60255 13.5519C4.8791 13.2408 5.27416 13.058 5.69391 13.058C6.0149 13.063 6.33095 13.1618 6.60255 13.3346C5.20502 14.0803 4.91367 15.2753 4.13342 15.5469C4.00502 15.5914 3.86675 15.6161 3.72848 15.6161C3.15564 15.6161 2.63218 15.3 2.36552 14.7963C3.23465 14.6531 4.02478 14.2136 4.60255 13.5519ZM6.85939 21.6605C6.77544 20.0901 7.16062 18.5296 7.97544 17.1815C7.46186 18.6728 7.86186 20.3321 9.00754 21.4185C9.00754 21.4185 6.26186 18.1296 10.0989 14.7617C11.6347 13.4778 13.3088 12.6877 14.173 12.1247C11.052 13.142 9.52606 12.021 9.52606 12.021C10.4001 12.7025 11.5261 12.9691 12.6125 12.7469C12.3952 12.8506 12.168 12.9642 11.9261 13.0926C9.29396 14.5247 6.91371 16.8803 6.52359 20.1395V20.1148C5.91124 23.3148 4.54828 24.1346 4.54828 24.1346C5.62976 23.6012 6.31618 22.1593 6.47914 21.6654C6.66186 24.4803 8.0347 26.4309 9.63964 28.3074C10.1285 28.8704 10.5137 29.5222 10.7656 30.2284C10.6322 29.5222 10.3261 28.8556 9.87667 28.2926C8.39519 26.4901 6.96309 24.2284 6.85939 21.6605ZM19.0964 15.7148C19.2692 15.5469 19.5112 15.4679 19.7532 15.4975V16.4308C19.7483 16.6629 19.689 16.8852 19.5754 17.0876H20.5087C20.3952 16.8852 20.3359 16.6629 20.331 16.4308V15.4975C20.568 15.4679 20.81 15.5469 20.9828 15.7148V15.0679H19.0964V15.7148ZM18.7063 11.2358H18.6964C18.8396 11.3593 19.0075 11.458 19.1903 11.5173L19.3088 11.5716V10.9593L18.2125 10.5C18.2668 10.8062 18.4446 11.0728 18.7063 11.2358ZM21.3088 11.2309L21.3038 11.2358C21.5656 11.0728 21.7433 10.8062 21.7977 10.5L20.7014 10.9593V11.5667L20.8149 11.5123C20.9977 11.4531 21.1656 11.3543 21.3088 11.2309Z" fill="#222220"/>
<path d="M23.2745 8.75675C23.2745 7.83329 21.7189 7.00366 20.0053 7.00366C18.2917 7.00366 16.7362 7.83329 16.7362 8.75675L16.7707 8.98391L17.4572 12.9345L16.7707 13.3345L14.9782 14.3518C14.9782 14.3518 14.5782 14.5592 14.3905 14.6827C13.714 15.1765 13.5707 15.8382 13.9609 16.1247C14.0596 15.453 14.6473 14.9592 15.3288 14.979C15.8967 14.9938 16.4251 15.2802 16.7461 15.7493C16.8448 15.8679 16.9337 15.9963 17.0127 16.1247C17.1164 16.2926 17.2201 16.4407 17.3238 16.5839H12.751C13.1362 17.2456 13.3584 17.9913 13.4078 18.7567V28.9148C13.4078 31.3839 15.2991 32.5444 17.3584 32.5444C18.9387 32.5444 19.151 32.4703 20.0201 33.3395C20.8893 32.4703 21.1016 32.5444 22.6819 32.5444C24.7263 32.5444 26.6325 31.374 26.6325 28.9148V18.7666C26.6819 18.0012 26.9041 17.2555 27.2893 16.5938H22.667C22.7707 16.4506 22.8745 16.3024 22.9782 16.1345C23.0621 16.0061 23.151 15.8777 23.2448 15.7592C23.5707 15.2901 24.0991 15.0037 24.667 14.9888C25.3485 14.9691 25.9362 15.4629 26.0349 16.1345C26.43 15.853 26.2868 15.1469 25.6053 14.6926C25.4226 14.5642 25.0226 14.3617 25.0226 14.3617L23.2448 13.3148L22.5584 12.9148L23.2448 8.96416L23.2745 8.75675ZM17.3979 9.21107L19.8078 10.0259V13.8086L18.0349 12.8703L17.3979 9.21107ZM13.7386 17.2506H17.8917C18.2127 17.5864 18.6078 17.853 19.0424 18.0209C18.9485 18.3469 18.9732 18.6975 19.1066 19.0086C19.2646 19.3395 19.5461 19.5963 19.8917 19.7296C19.9559 20.2975 20.3411 20.7716 20.8794 20.9592C20.5831 21.2605 20.2917 21.5419 20.1732 21.6555L17.4127 21.6111C17.3189 21.5666 17.2448 21.4975 17.1954 21.4086V21.374L17.6448 21.4481H17.6745C17.7633 21.4481 17.8374 21.3888 17.8522 21.3C17.867 21.2012 17.8028 21.1123 17.7041 21.0926L17.151 21.0037L17.7633 18.8802L17.1806 17.6555L16.2473 18.6432L16.188 20.8506L15.5609 20.7518C15.4621 20.7321 15.3732 20.7963 15.3535 20.895V20.9C15.3386 20.9987 15.4028 21.0876 15.5016 21.1074L15.7633 21.1469C15.6695 21.2012 15.6053 21.2407 15.6004 21.2506L15.5461 21.2901V21.3543C15.4226 21.9172 15.6498 22.5 16.114 22.8358V22.9148C16.0843 23.1074 16.2177 23.2901 16.4103 23.3246H16.4695C16.6325 23.3246 16.7757 23.2111 16.8103 23.0481C16.9288 23.053 17.0424 23.053 17.1609 23.0481H17.2349L20.8547 23.7049L20.914 23.6654C21.2004 23.4629 22.3016 22.6777 22.6621 22.3963C22.7658 22.4851 22.8843 22.5642 23.0078 22.6234C22.8399 23.1419 22.9683 23.7098 23.3436 24.1049H14.0695V18.7666C14.0498 18.2481 13.9362 17.7345 13.7386 17.2506ZM22.351 22.1345C21.9757 22.4111 21.0522 23.0827 20.7164 23.3197L17.4325 22.7469V22.658C17.4868 22.4358 17.5164 22.2086 17.5214 21.9814L20.2868 22.0259L20.3411 21.9716C20.3856 21.9271 21.2596 21.0827 21.7041 20.5938C21.8226 20.7419 21.9609 20.8654 22.1189 20.9642C22.0399 21.3691 22.1238 21.7888 22.351 22.1345ZM16.8646 21.5419V21.5567C16.9387 21.695 17.0473 21.8135 17.1806 21.8926C17.1757 22.095 17.1559 22.2926 17.1214 22.4901C17.1214 22.5345 17.1214 22.579 17.0868 22.6234V22.6926C16.8596 22.6926 16.6374 22.658 16.4201 22.5888C16.0251 22.3765 15.8028 21.9419 15.867 21.4975C16.0448 21.374 16.2473 21.295 16.4596 21.2654C16.6424 21.2605 16.8053 21.3691 16.8646 21.5419ZM16.5238 20.8851L16.5782 18.7963L17.072 18.3024L17.3732 18.9296L16.7856 20.9642L16.5238 20.8851ZM22.3263 31.8876H21.8522L22.2226 30.6777C22.2819 30.5098 21.9757 30.2925 21.8473 30.1C22.1485 30.2827 22.4596 30.4456 22.7806 30.5938C22.7806 30.6333 22.3263 31.8876 22.3263 31.8876ZM23.5954 30.5345L23.5559 30.5L23.2991 31.8333C23.1362 31.8333 22.9633 31.8679 22.8053 31.8777L23.0769 30.5938C23.1559 30.2135 22.1337 30.1 21.63 29.3444C21.2991 29.6209 20.8745 29.7493 20.4498 29.7049C20.0745 29.7 19.7041 29.6604 19.3386 29.5864C19.2745 29.5814 19.2103 29.5814 19.1461 29.5864C18.993 29.5765 18.8448 29.6555 18.7658 29.7888L18.6917 29.9123L17.2843 29.5716L16.9485 30.1543C16.8942 30.2333 16.9041 30.3419 16.9732 30.4111L17.067 30.5148C16.9732 30.6975 16.8547 30.8654 16.7115 31.0086L16.5041 30.7518C16.3461 30.495 16.3609 30.1642 16.5387 29.9222L17.0917 28.9888L18.272 29.1666L18.0893 28.7469C17.8424 28.1938 18.2177 27.4876 18.2572 27.0827C18.2572 27.2061 18.1288 27.2308 18.0004 27.2308H17.6596C17.6349 27.2259 17.6053 27.2259 17.5806 27.2308L17.2596 27.4234L17.0078 27.1913C16.9683 27.1172 16.9831 27.0284 17.0424 26.974L17.6251 26.3172L16.9337 25.5123L17.9214 26.0061L18.2177 25.6506C18.2967 25.7296 18.2621 25.937 18.2621 25.937C18.9782 26.1148 19.4769 26.7666 19.4572 27.5074V27.6506C19.5559 27.8086 19.714 27.9172 19.8917 27.9617L21.23 28.095C21.4967 28.0111 21.7683 27.9567 22.0448 27.9222C22.2819 27.9222 22.5189 27.9963 22.7164 28.1246C22.8103 28.0605 22.9238 28.0209 23.0374 28.016H23.0819C23.6794 28.016 23.9312 28.5592 24.2522 29.0037C24.4942 29.3444 24.8201 29.858 24.8201 29.858C24.7263 29.9963 24.5732 30.0802 24.4053 30.0802C24.3461 30.0851 24.2917 30.0851 24.2325 30.0802C23.5905 29.9617 23.4967 28.6382 23.1312 28.5345H23.072C23.0028 28.5345 22.9387 28.574 22.9041 28.6382C23.072 29.0876 22.9732 29.2703 23.1559 29.6259C23.2893 29.8382 23.4572 30.0308 23.6498 30.1938C23.6498 30.1938 23.6251 30.3913 23.5954 30.5345ZM16.4004 29.2407H16.3905L16.4498 29.3938C16.4103 29.5271 15.9559 29.7197 15.9559 29.7197L15.8572 29.5024C15.7288 29.1913 15.8226 28.8358 16.0942 28.6333L16.8399 28.179L17.6349 28.3469C17.63 28.5049 17.6794 28.658 17.7732 28.7864L16.9386 28.6284L16.4448 28.974C16.3658 29.0432 16.351 29.1518 16.4004 29.2407ZM25.951 28.9197C26.0053 30.2926 25.0522 31.4975 23.7041 31.7642L23.9312 30.5691C23.9312 30.5 23.9559 30.416 23.9658 30.3469C24.0349 30.3765 24.1041 30.3963 24.1732 30.4111C24.2522 30.416 24.3312 30.416 24.4103 30.4111C24.6819 30.4111 24.9387 30.2876 25.1016 30.0703L25.2794 29.8629L25.1312 29.6605C25.1312 29.6605 24.8004 29.137 24.5535 28.7913L24.4152 28.5839C24.1386 28.1691 23.788 27.6456 23.0917 27.6456H23.0275C22.9288 27.6506 22.8251 27.6703 22.7312 27.7049C22.5189 27.6012 22.2868 27.5469 22.0498 27.5469C21.8127 27.5518 21.5757 27.5963 21.3535 27.6802L21.2349 27.7148L19.9312 27.5864C19.8769 27.5617 19.8325 27.5222 19.7979 27.4728L20.0794 27.3592C20.0004 26.416 19.0917 25.8382 18.5979 25.6456C18.5732 25.5419 18.5238 25.453 18.4498 25.379L18.1683 25.1123L17.9214 25.4086L17.7979 25.5567L15.9707 24.8061L17.1609 26.2876L16.6917 26.9987C16.593 27.0975 16.588 27.2605 16.6917 27.3642L17.1856 27.7L17.6794 27.5123H17.7288C17.7288 27.5864 17.6745 27.8876 17.6498 27.9716L16.7905 27.8234L15.872 28.3172C15.4473 28.6234 15.2991 29.1864 15.5214 29.6605L15.6251 29.8827L15.7683 30.1987L16.0893 30.0654C15.9707 30.3864 16.0201 30.7419 16.2275 31.0135L16.4201 31.2605L16.6769 31.5864L16.9633 31.2802C17.151 31.0926 17.2991 30.8753 17.4028 30.6333L17.4621 30.4358L17.3238 30.2827V30.253L17.4819 29.9963L18.6226 30.2629L18.8794 30.3222L19.0177 30.095L19.0917 29.9716C19.0917 29.9469 19.0917 29.9419 19.1609 29.9419H19.2843C19.6745 30.0209 20.0695 30.0605 20.4646 30.0654C20.7312 30.0802 20.9979 30.0506 21.2547 29.9716L21.8868 30.6926L21.5115 31.8481V31.9172C20.9485 31.9074 20.4103 32.1395 20.03 32.5493C19.4226 31.9469 18.993 31.8827 17.3683 31.8827C15.4177 31.8827 14.0991 30.7419 14.0991 28.9197V24.4753H25.951V28.9197ZM26.272 17.2506C26.0695 17.7296 25.9609 18.2432 25.9411 18.7666V22.095C25.5115 22.0012 25.1905 21.6358 25.1609 21.1963V21.0432H25.0127C24.7559 21.0234 24.5189 20.9049 24.3411 20.7222C24.1238 20.4703 24.0053 20.1543 24.0004 19.8234C23.788 20.1691 23.8078 20.6135 24.0547 20.9395C24.2473 21.1814 24.5288 21.3444 24.8349 21.3839C24.9238 21.9567 25.3831 22.4012 25.9559 22.4753V24.1049H23.8819C23.3387 23.8284 23.1115 23.1814 23.3535 22.6234L23.4325 22.4456L23.2498 22.3765C22.6572 22.1691 22.3312 21.5321 22.5189 20.9296L22.5584 20.7814L22.4201 20.7172C21.9016 20.416 21.6152 19.8284 21.6991 19.2358C21.4275 19.5123 21.3584 19.9321 21.5312 20.2777C21.4325 20.3913 21.3041 20.5246 21.1609 20.6728C20.6424 20.5642 20.267 20.1148 20.2473 19.5864V19.4629L20.1337 19.4185C19.8325 19.3296 19.5856 19.1222 19.4424 18.8456C19.3485 18.6185 19.3288 18.3617 19.393 18.1246C19.4917 18.1444 19.5905 18.1592 19.6893 18.1691C19.788 18.174 19.8917 18.174 19.9905 18.1691C20.7905 18.1691 21.551 17.8234 22.0843 17.2308L26.272 17.2506ZM23.072 13.8827L23.8819 14.3765L24.0843 14.495C23.6646 14.6086 23.2843 14.8358 22.9831 15.1518L22.9485 15.1814C22.8794 15.2555 22.8152 15.3296 22.751 15.4086L22.7115 15.458C22.6473 15.537 22.588 15.6209 22.5337 15.7098L22.5041 15.7543C22.4349 15.853 22.3707 15.9617 22.3066 16.0703C21.8572 16.9642 20.9831 17.5617 19.9905 17.6605C18.9979 17.5617 18.1238 16.9642 17.6745 16.0703C17.6103 15.9617 17.5461 15.858 17.4819 15.7543L17.4424 15.7L17.2843 15.4432L17.2399 15.3888C17.1757 15.3098 17.1115 15.2358 17.0473 15.1666L17.0127 15.1321C16.7115 14.816 16.3312 14.5888 15.9115 14.4753L16.1189 14.3567L16.9337 13.8629L17.7683 13.3691L19.9954 14.579L22.2226 13.4086L23.072 13.8827ZM21.9757 12.895L20.2028 13.8284V10.0308L22.6078 9.21601L21.9757 12.895ZM20.0004 9.63082L17.3633 8.57403C17.5856 8.0407 18.6226 7.58638 20.0004 7.58638C21.3782 7.58638 22.4152 8.0407 22.6374 8.57403L20.0004 9.63082Z" fill="#222220"/>
</svg>
