<svg  viewBox="0 0 30 18" fill="none" xmlns="http://www.w3.org/2000/svg">
<path d="M18.4929 16.0767H10.6187V1.92529H18.4929V16.0767Z" fill="#6C6BBD"/>
<path d="M11.1234 9C11.1234 6.12932 12.4675 3.57219 14.5606 1.92428C13.0299 0.719245 11.0982 4.17365e-07 8.99886 4.17365e-07C4.0288 4.17365e-07 0 4.02937 0 9C0 13.9706 4.0288 18 8.99886 18C11.0982 18 13.0299 17.2808 14.5606 16.0757C12.4675 14.4278 11.1234 11.8707 11.1234 9Z" fill="#EB001B"/>
<path d="M29.1129 9C29.1129 13.9706 25.0841 18 20.114 18C18.0147 18 16.0829 17.2808 14.5518 16.0757C16.6454 14.4278 17.9895 11.8707 17.9895 9C17.9895 6.12932 16.6454 3.57219 14.5518 1.92428C16.0829 0.719245 18.0147 4.17365e-07 20.114 4.17365e-07C25.0841 4.17365e-07 29.1129 4.02937 29.1129 9Z" fill="#0099DF"/>
</svg>
