<svg   viewBox="0 0 30 18" fill="none" xmlns="http://www.w3.org/2000/svg">
<rect x="10.9289" y="1.92529" width="8.11849" height="14.1495" fill="#FF5A00"/>
<path d="M11.4692 9C11.4692 6.12524 12.8623 3.57379 15 1.92524C13.4267 0.725243 11.4422 0 9.27742 0C4.14932 0 0 4.02524 0 9C0 13.9748 4.14932 18 9.27742 18C11.4422 18 13.4267 17.2748 15 16.0748C12.8593 14.4495 11.4692 11.8748 11.4692 9Z" fill="#EB001B"/>
<path d="M29.9998 9C29.9998 13.9748 25.8505 18 20.7223 18C18.5576 18 16.573 17.2748 14.9998 16.0748C17.1645 14.4233 18.5306 11.8748 18.5306 9C18.5306 6.12524 17.1375 3.57379 14.9998 1.92524C16.57 0.725243 18.5546 0 20.7193 0C25.8505 0 29.9998 4.05146 29.9998 9Z" fill="#F79E1B"/>
</svg>
