<svg viewBox="0 0 30 18" fill="none" xmlns="http://www.w3.org/2000/svg">
<path d="M26.9159 5H21.1402C21.4766 6.90655 23.3271 8.70095 25.3458 8.70095H29.9439C30 8.53273 30 8.25235 30 8.08413C30 6.40188 28.5981 5 26.9159 5Z" fill="url(#paint0_linear_1538_3591)"/>
<path d="M21.6445 9.0376V13.6918H24.4483V11.2245H26.9156C28.2614 11.2245 29.439 10.2712 29.8315 9.0376H21.6445Z" fill="#4FAD50"/>
<path d="M11.7758 5V13.6356H14.2431C14.2431 13.6356 14.8599 13.6356 15.1964 13.0187C16.8786 9.7103 17.3833 8.70095 17.3833 8.70095H17.7198V13.6356H20.5235V5H18.0562C18.0562 5 17.4394 5.05608 17.1029 5.61683C15.7011 8.47665 14.916 9.9346 14.916 9.9346H14.5796V5H11.7758Z" fill="#4FAD50"/>
<path d="M0 13.6917V5.05615H2.80375C2.80375 5.05615 3.58881 5.05615 4.03741 6.2898C5.15891 9.54215 5.27106 9.99075 5.27106 9.99075C5.27106 9.99075 5.49535 9.2057 6.5047 6.2898C6.9533 5.05615 7.73836 5.05615 7.73836 5.05615H10.5421V13.6917H7.73836V9.03748H7.40191L5.83182 13.6917H4.59816L3.02806 9.03748H2.69161V13.6917H0Z" fill="#4FAD50"/>
<defs>
<linearGradient id="paint0_linear_1538_3591" x1="21.1302" y1="6.877" x2="29.9801" y2="6.877" gradientUnits="userSpaceOnUse">
<stop stop-color="#27B1E6"/>
<stop offset="1" stop-color="#148ACA"/>
</linearGradient>
</defs>
</svg>
