<svg viewBox="0 0 30 18" fill="none" xmlns="http://www.w3.org/2000/svg">
<path d="M27.9824 4.13135H26.0964C25.5263 4.13135 25.0877 4.30679 24.8245 4.87697L21.228 13.0788H23.7719C23.7719 13.0788 24.2105 11.9823 24.2982 11.7192C24.5613 11.7192 27.0614 11.7192 27.4122 11.7192C27.5 12.0262 27.7193 13.035 27.7193 13.035H30L27.9824 4.13135ZM24.9999 9.87703C25.2192 9.3507 25.9649 7.377 25.9649 7.377C25.9649 7.42086 26.1842 6.85068 26.2719 6.54365L26.4473 7.33314C26.4473 7.33314 26.9298 9.48228 27.0175 9.92089H24.9999V9.87703Z" fill="#3362AB"/>
<path d="M21.4041 10.1404C21.4041 11.9825 19.7375 13.2106 17.1497 13.2106C16.0532 13.2106 15.0006 12.9913 14.4304 12.7282L14.7813 10.7106L15.0883 10.8422C15.8778 11.1931 16.4041 11.3246 17.369 11.3246C18.0708 11.3246 18.8164 11.0615 18.8164 10.4474C18.8164 10.0527 18.5094 9.78954 17.5445 9.35094C16.6234 8.91233 15.3953 8.21057 15.3953 6.93863C15.3953 5.18422 17.1059 4 19.5182 4C20.4392 4 21.2287 4.17544 21.7112 4.39474L21.3603 6.32459L21.1848 6.14915C20.7462 5.97371 20.1761 5.79827 19.3427 5.79827C18.4217 5.84213 17.9831 6.23687 17.9831 6.58775C17.9831 6.98249 18.5094 7.28951 19.3427 7.68425C20.7462 8.34215 21.4041 9.08777 21.4041 10.1404Z" fill="#3362AB"/>
<path d="M0 4.21939L0.0438601 4.04395H3.81583C4.34215 4.04395 4.73689 4.21939 4.86847 4.78957L5.70182 8.73698C4.86847 6.63169 2.93863 4.92115 0 4.21939Z" fill="#F9B50B"/>
<path d="M11.0092 4.13175L7.1934 13.0354H4.60565L2.41264 5.57914C3.99161 6.58792 5.30741 8.16688 5.78987 9.26339L6.05303 10.1844L8.42148 4.08789H11.0092V4.13175Z" fill="#3362AB"/>
<path d="M12.0181 4.08789H14.4304L12.8953 13.0354H10.483L12.0181 4.08789Z" fill="#3362AB"/>
</svg>
