<svg width="32" height="24" viewBox="0 0 32 24" fill="none" xmlns="http://www.w3.org/2000/svg">
<g clip-path="url(#clip0_778_5070)">
<mask id="mask0_778_5070" style="mask-type:luminance" maskUnits="userSpaceOnUse" x="0" y="0" width="32" height="24">
<rect width="32" height="24" fill="white"/>
</mask>
<g mask="url(#mask0_778_5070)">
<path fill-rule="evenodd" clip-rule="evenodd" d="M0 0H32V24H0V0Z" fill="#73BE4A"/>
<path fill-rule="evenodd" clip-rule="evenodd" d="M0 0V16H32V0H0Z" fill="#AF0100"/>
<rect width="6" height="24" fill="#F7FCFF"/>
<path fill-rule="evenodd" clip-rule="evenodd" d="M0.444336 2.23612L1.89696 0.0568848L3.31219 2.23605L1.89692 4.31542L0.444336 2.23612ZM1.89161 3.42541L2.70578 2.2292L1.89157 0.975484L1.05591 2.22914L1.89161 3.42541ZM2.00012 2.06457H1.75012V2.5807H2.00012V2.06457Z" fill="#B20000"/>
<path fill-rule="evenodd" clip-rule="evenodd" d="M1.13718 4.18591L0.444336 5.1766L1.13716 6.12187L1.81219 5.17658L1.13718 4.18591ZM1.46124 5.19339L1.14905 5.61718L0.833121 5.16811L1.14822 4.70305L1.46124 5.19339Z" fill="#B20000"/>
<path fill-rule="evenodd" clip-rule="evenodd" d="M2.63718 4.18591L1.94434 5.1766L2.63716 6.12187L3.31219 5.17658L2.63718 4.18591ZM2.96124 5.19339L2.64905 5.61718L2.33312 5.16811L2.64822 4.70305L2.96124 5.19339Z" fill="#B20000"/>
<path fill-rule="evenodd" clip-rule="evenodd" d="M3.63718 4.18591L2.94434 5.1766L3.63716 6.12187L4.31219 5.17658L3.63718 4.18591ZM3.96124 5.19339L3.64905 5.61718L3.33312 5.16811L3.64822 4.70305L3.96124 5.19339Z" fill="#B20000"/>
<path fill-rule="evenodd" clip-rule="evenodd" d="M5.13718 4.18591L4.44434 5.1766L5.13716 6.12187L5.81219 5.17658L5.13718 4.18591ZM5.46124 5.19339L5.14905 5.61718L4.83312 5.16811L5.14822 4.70305L5.46124 5.19339Z" fill="#B20000"/>
<path fill-rule="evenodd" clip-rule="evenodd" d="M2.94434 2.23612L4.39696 0.0568848L5.81219 2.23605L4.39692 4.31542L2.94434 2.23612ZM4.39161 3.42541L5.20578 2.2292L4.39157 0.975484L3.55591 2.22914L4.39161 3.42541ZM4.50012 2.06457H4.25012V2.5807H4.50012V2.06457Z" fill="#B20000"/>
<path d="M1.65627 12.4062L0.0371094 9.68711L0.463069 9.41683L1.63685 11.388L3.06907 8.75598L4.53688 11.3942L5.57397 9.67291L5.99855 9.94549L4.51979 12.3999L3.07389 9.80101L1.65627 12.4062Z" fill="#B20000"/>
<path fill-rule="evenodd" clip-rule="evenodd" d="M0.75 0.516113H1.01882V1.03224H0.75V0.516113Z" fill="#B20000"/>
<path fill-rule="evenodd" clip-rule="evenodd" d="M3 0H3.26882V0.516129H3V0Z" fill="#B20000"/>
<path fill-rule="evenodd" clip-rule="evenodd" d="M5.25 0.516113H5.51882V1.03224H5.25V0.516113Z" fill="#B20000"/>
<path fill-rule="evenodd" clip-rule="evenodd" d="M0.75 3.61292H1V4.12904H0.75V3.61292ZM3 3.61292H3.25V4.12904H3V3.61292ZM5.5 3.61292H5.25V4.12904H5.5V3.61292Z" fill="#B20000"/>
<path fill-rule="evenodd" clip-rule="evenodd" d="M0.75 6.1936H1V6.70973H0.75V6.1936ZM3 6.1936H3.25V6.70973H3V6.1936ZM5.5 6.1936H5.25V6.70973H5.5V6.1936Z" fill="#B20000"/>
<path fill-rule="evenodd" clip-rule="evenodd" d="M2.2082 8.95476L1.544 9.92298L0.496338 8.03608L1.8761 5.88025L3.06266 7.75944L4.24923 5.88025L5.62899 8.03608L4.58133 9.92298L3.91713 8.95476L4.44153 7.86449L4.24923 7.4215L3.12899 9.23859V9.45376L3.06266 9.34618L2.99634 9.45376V9.23859L1.8761 7.4215L1.6838 7.86449L2.2082 8.95476Z" fill="#B20000"/>
<path fill-rule="evenodd" clip-rule="evenodd" d="M3 10.5807H3.25V11.0968H3V10.5807ZM3 13.1613H3.25V13.6775H3V13.1613ZM3 11.3549H2.75V11.871H3V12.1291H2.75V12.6452H3V12.3871H3.25V12.6452H3.5V12.1291H3.25V11.871H3.5V11.3549H3.25V11.871H3V11.3549ZM2.25 11.871H2.5V12.3871H2.25V11.871ZM4 11.871H3.75V12.3871H4V11.871ZM0.5 11.871H0.75V12.3871H0.5V11.871ZM5.75 11.871H5.5V12.3871H5.75V11.871Z" fill="#B20000"/>
<path fill-rule="evenodd" clip-rule="evenodd" d="M0.444336 21.7639L1.89696 23.9431L3.31219 21.7639L1.89692 19.6846L0.444336 21.7639ZM1.89161 20.5746L2.70578 21.7708L1.89157 23.0245L1.05591 21.7709L1.89161 20.5746ZM2.00012 21.9354H1.75012V21.4193H2.00012V21.9354Z" fill="#B20000"/>
<path fill-rule="evenodd" clip-rule="evenodd" d="M1.13718 19.8141L0.444336 18.8234L1.13716 17.8781L1.81219 18.8234L1.13718 19.8141ZM1.46124 18.8066L1.14905 18.3828L0.833121 18.8319L1.14822 19.2969L1.46124 18.8066Z" fill="#B20000"/>
<path fill-rule="evenodd" clip-rule="evenodd" d="M2.63718 19.8141L1.94434 18.8234L2.63716 17.8781L3.31219 18.8234L2.63718 19.8141ZM2.96124 18.8066L2.64905 18.3828L2.33312 18.8319L2.64822 19.2969L2.96124 18.8066Z" fill="#B20000"/>
<path fill-rule="evenodd" clip-rule="evenodd" d="M3.63718 19.8141L2.94434 18.8234L3.63716 17.8781L4.31219 18.8234L3.63718 19.8141ZM3.96124 18.8066L3.64905 18.3828L3.33312 18.8319L3.64822 19.2969L3.96124 18.8066Z" fill="#B20000"/>
<path fill-rule="evenodd" clip-rule="evenodd" d="M5.13718 19.8141L4.44434 18.8234L5.13716 17.8781L5.81219 18.8234L5.13718 19.8141ZM5.46124 18.8066L5.14905 18.3828L4.83312 18.8319L5.14822 19.2969L5.46124 18.8066Z" fill="#B20000"/>
<path fill-rule="evenodd" clip-rule="evenodd" d="M2.94434 21.7639L4.39696 23.9431L5.81219 21.7639L4.39692 19.6846L2.94434 21.7639ZM4.39161 20.5746L5.20578 21.7708L4.39157 23.0245L3.55591 21.7709L4.39161 20.5746ZM4.50012 21.9354H4.25012V21.4193H4.50012V21.9354Z" fill="#B20000"/>
<path d="M1.65627 11.5938L0.0371094 14.3129L0.463069 14.5832L1.63685 12.612L3.06907 15.244L4.53688 12.6058L5.57397 14.3271L5.99855 14.0545L4.51979 11.6001L3.07389 14.199L1.65627 11.5938Z" fill="#B20000"/>
<path fill-rule="evenodd" clip-rule="evenodd" d="M0.75 23.4839H1.01882V22.9678H0.75V23.4839Z" fill="#B20000"/>
<path fill-rule="evenodd" clip-rule="evenodd" d="M3 24H3.26882V23.4839H3V24Z" fill="#B20000"/>
<path fill-rule="evenodd" clip-rule="evenodd" d="M5.25 23.4839H5.51882V22.9678H5.25V23.4839Z" fill="#B20000"/>
<path fill-rule="evenodd" clip-rule="evenodd" d="M0.75 20.3871H1V19.871H0.75V20.3871ZM3 20.3871H3.25V19.871H3V20.3871ZM5.5 20.3871H5.25V19.871H5.5V20.3871Z" fill="#B20000"/>
<path fill-rule="evenodd" clip-rule="evenodd" d="M0.75 17.8064H1V17.2903H0.75V17.8064ZM3 17.8064H3.25V17.2903H3V17.8064ZM5.5 17.8064H5.25V17.2903H5.5V17.8064Z" fill="#B20000"/>
<path fill-rule="evenodd" clip-rule="evenodd" d="M2.2082 15.1928L1.544 14.2246L0.496338 16.1115L1.8761 18.2673L3.06266 16.3881L4.24923 18.2673L5.62899 16.1115L4.58133 14.2246L3.91713 15.1928L4.44153 16.2831L4.24923 16.7261L3.12899 14.909V14.6938L3.06266 14.8014L2.99634 14.6938V14.909L1.8761 16.7261L1.6838 16.2831L2.2082 15.1928Z" fill="#B20000"/>
</g>
<rect width="32" height="24" fill="url(#paint0_linear_778_5070)" style="mix-blend-mode:overlay"/>
</g>
<defs>
<linearGradient id="paint0_linear_778_5070" x1="16" y1="0" x2="16" y2="24" gradientUnits="userSpaceOnUse">
<stop stop-color="white" stop-opacity="0.7"/>
<stop offset="1" stop-opacity="0.3"/>
</linearGradient>
<clipPath id="clip0_778_5070">
<rect width="32" height="24" fill="white"/>
</clipPath>
</defs>
</svg>
