<svg width="46" height="46" viewBox="0 0 46 46" fill="none" xmlns="http://www.w3.org/2000/svg">
<rect width="46" height="46" fill="#E7E8FF"/>
<path fill-rule="evenodd" clip-rule="evenodd" d="M25.4494 36.9015C32.0135 35.7384 37 29.9829 37 23.058C37 15.294 30.732 9 23 9C15.268 9 9 15.294 9 23.058C9 30.2074 14.3149 36.1103 21.1937 37L23.3499 33.2499L25.4494 36.9015ZM23 31.4927C18.3608 31.4927 14.6 27.7164 14.6 23.058C14.6 18.3996 18.3608 14.6232 23 14.6232C27.6392 14.6232 31.4 18.3996 31.4 23.058C31.4 27.7164 27.6392 31.4927 23 31.4927Z" fill="#9399EE"/>
</svg>
